<svg width="440" height="61" viewBox="0 0 440 61" fill="none" xmlns="http://www.w3.org/2000/svg">
<path d="M0 0V47.3102H45.2468V61L69.2799 47.3102H440V0H0Z" fill="white"/>
<path d="M21.72 16.66V30H25.04C25.96 30 27.18 29.96 28.24 29.12C28.96 28.56 29.6 27.52 29.6 26.24C29.6 24.96 28.92 23.34 27.06 22.88C28.24 22.08 28.38 20.92 28.38 20.26C28.38 18.64 27.6 17.82 27.18 17.5C26.2 16.72 24.86 16.66 24.12 16.66H21.72ZM23.2 18.06H24.36C24.78 18.06 26.94 18.1 26.94 20.3C26.94 22.36 25.1 22.52 24.32 22.52H23.2V18.06ZM23.2 23.84H24.72C25.78 23.84 26.48 23.96 26.98 24.24C27.5 24.52 28.12 25.14 28.12 26.2C28.12 27 27.76 27.66 27.24 28.04C26.6 28.54 25.76 28.6 24.9 28.6H23.2V23.84ZM38.3255 22.88C37.9455 22.38 37.0855 21.5 35.4855 21.5C33.3655 21.5 31.4455 22.98 31.4455 25.84C31.4455 28.76 33.3855 30.24 35.4855 30.24C36.9455 30.24 37.8455 29.46 38.3255 28.84V30H39.7655V21.7H38.3255V22.88ZM35.6455 22.78C36.9255 22.78 38.4055 23.72 38.4055 25.86C38.4055 27.5 37.4055 28.96 35.6455 28.96C33.9255 28.96 32.9255 27.62 32.9255 25.84C32.9255 23.82 34.2255 22.78 35.6455 22.78ZM42.4928 30H43.9328V25.62C43.9328 24.26 44.1728 23.7 44.4128 23.38C44.6328 23.1 44.9928 22.86 45.5728 22.86C45.7928 22.86 46.0928 22.92 46.4128 23.14L47.0928 21.84C46.7328 21.66 46.2528 21.5 45.8128 21.5C44.6928 21.5 44.0728 22.38 43.9328 22.6V21.7H42.4928V30ZM54.4225 22.3C54.0225 22.02 53.1625 21.5 51.8425 21.5C49.2825 21.5 47.4025 23.36 47.4025 25.9C47.4025 28.4 49.2625 30.24 51.8425 30.24C52.6225 30.24 53.5825 30.04 54.4825 29.38V27.66C53.7225 28.58 52.6625 28.96 51.8025 28.96C50.3225 28.96 48.8825 27.9 48.8825 25.88C48.8825 23.86 50.2825 22.78 51.8225 22.78C52.5625 22.78 53.6625 23.06 54.4225 24.02V22.3ZM56.692 30H58.132V25.66C58.132 25.06 58.172 24.08 58.732 23.42C59.152 22.92 59.692 22.78 60.192 22.78C60.832 22.78 61.272 23.02 61.552 23.38C61.892 23.82 61.932 24.4 61.932 24.9V30H63.372V24.86C63.372 23.94 63.312 23.26 62.892 22.64C62.392 21.9 61.492 21.5 60.512 21.5C59.132 21.5 58.392 22.32 58.132 22.66V15.42H56.692V30ZM72.4466 22.88C72.0666 22.38 71.2066 21.5 69.6066 21.5C67.4866 21.5 65.5666 22.98 65.5666 25.84C65.5666 28.76 67.5066 30.24 69.6066 30.24C71.0666 30.24 71.9666 29.46 72.4466 28.84V30H73.8866V21.7H72.4466V22.88ZM69.7666 22.78C71.0466 22.78 72.5266 23.72 72.5266 25.86C72.5266 27.5 71.5266 28.96 69.7666 28.96C68.0466 28.96 67.0466 27.62 67.0466 25.84C67.0466 23.82 68.3466 22.78 69.7666 22.78ZM85.8819 23C85.2219 21.58 84.0419 21.5 83.6019 21.5C82.2019 21.5 81.1819 22.36 81.1819 23.82C81.1819 24.24 81.2419 24.64 81.5619 25.04C81.9419 25.5 82.5819 25.82 83.5819 26.26C84.3619 26.6 84.9219 26.86 84.9219 27.64C84.9219 28.26 84.5019 28.96 83.5619 28.96C82.5219 28.96 82.0419 28.04 81.8819 27.6L80.6419 28.12C81.3419 30.2 83.2019 30.24 83.5419 30.24C85.1419 30.24 86.4019 29.26 86.4019 27.52C86.4019 27.06 86.3219 26.62 85.9619 26.18C85.6419 25.78 85.0819 25.4 83.8819 24.9C82.9419 24.5 82.5419 24.32 82.5419 23.72C82.5419 23.08 83.0219 22.78 83.5419 22.78C84.0819 22.78 84.5019 23.14 84.7019 23.62L85.8819 23ZM94.6731 22.88C94.2931 22.38 93.4331 21.5 91.8331 21.5C89.7131 21.5 87.7931 22.98 87.7931 25.84C87.7931 28.76 89.7331 30.24 91.8331 30.24C93.2931 30.24 94.1931 29.46 94.6731 28.84V30H96.1131V21.7H94.6731V22.88ZM91.9931 22.78C93.2731 22.78 94.7531 23.72 94.7531 25.86C94.7531 27.5 93.7531 28.96 91.9931 28.96C90.2731 28.96 89.2731 27.62 89.2731 25.84C89.2731 23.82 90.5731 22.78 91.9931 22.78ZM97.6405 21.7L101.72 30.54L105.8 21.7H104.2L101.72 27.3L99.2405 21.7H97.6405ZM111.197 30.24C113.717 30.24 115.597 28.4 115.597 25.88C115.597 23.36 113.737 21.5 111.197 21.5C108.657 21.5 106.797 23.36 106.797 25.88C106.797 28.4 108.677 30.24 111.197 30.24ZM111.197 22.78C112.717 22.78 114.117 23.84 114.117 25.88C114.117 27.9 112.697 28.96 111.197 28.96C109.717 28.96 108.277 27.92 108.277 25.88C108.277 23.86 109.677 22.78 111.197 22.78ZM117.805 15.42V30H119.245V15.42H117.805ZM121.965 15.42V30H123.405V15.42H121.965ZM132.486 22.88C132.106 22.38 131.246 21.5 129.646 21.5C127.526 21.5 125.606 22.98 125.606 25.84C125.606 28.76 127.546 30.24 129.646 30.24C131.106 30.24 132.006 29.46 132.486 28.84V30H133.926V21.7H132.486V22.88ZM129.806 22.78C131.086 22.78 132.566 23.72 132.566 25.86C132.566 27.5 131.566 28.96 129.806 28.96C128.086 28.96 127.086 27.62 127.086 25.84C127.086 23.82 128.386 22.78 129.806 22.78ZM136.653 30H138.093V25.62C138.093 24.26 138.333 23.7 138.573 23.38C138.793 23.1 139.153 22.86 139.733 22.86C139.953 22.86 140.253 22.92 140.573 23.14L141.253 21.84C140.893 21.66 140.413 21.5 139.973 21.5C138.853 21.5 138.233 22.38 138.093 22.6V21.7H136.653V30ZM142.571 21.7V30H144.011V21.7H142.571ZM142.271 18.56C142.271 19.12 142.731 19.58 143.291 19.58C143.851 19.58 144.311 19.12 144.311 18.56C144.311 18 143.851 17.54 143.291 17.54C142.731 17.54 142.271 18 142.271 18.56ZM146.731 30H148.171V25.66C148.171 25.06 148.211 24.08 148.771 23.42C149.191 22.92 149.731 22.78 150.231 22.78C150.871 22.78 151.311 23.02 151.591 23.38C151.931 23.82 151.971 24.4 151.971 24.9V30H153.411V24.86C153.411 23.94 153.351 23.26 152.931 22.64C152.431 21.9 151.531 21.5 150.551 21.5C149.171 21.5 148.431 22.32 148.171 22.66V21.7H146.731V30ZM162.486 22.88C161.826 22.02 160.866 21.5 159.646 21.5C158.526 21.5 157.506 21.94 156.806 22.62C156.206 23.22 155.606 24.22 155.606 25.84C155.606 27.52 156.246 28.56 156.806 29.12C157.446 29.76 158.426 30.24 159.646 30.24C161.106 30.24 162.006 29.46 162.486 28.84V30.04C162.486 30.74 162.446 31.48 162.026 32.16C161.546 32.96 160.846 33.32 159.826 33.32C159.186 33.32 158.426 33.18 157.826 32.52C157.466 32.12 157.186 31.5 157.186 30.8H155.766C155.766 32.02 156.286 32.92 156.846 33.48C157.406 34.04 158.386 34.6 159.806 34.6C161.366 34.6 162.506 33.9 163.126 33.06C163.926 31.98 163.926 30.7 163.926 29.8V21.7H162.486V22.88ZM159.806 22.78C160.546 22.78 161.226 23.06 161.686 23.52C162.206 24.02 162.566 24.88 162.566 25.86C162.566 26.84 162.186 27.72 161.626 28.26C161.166 28.72 160.566 28.96 159.806 28.96C159.046 28.96 158.486 28.7 158.026 28.28C157.226 27.54 157.086 26.56 157.086 25.84C157.086 25.16 157.226 24.28 157.926 23.56C158.326 23.16 158.926 22.78 159.806 22.78ZM166.653 21.7V30H168.093V21.7H166.653ZM166.353 18.56C166.353 19.12 166.813 19.58 167.373 19.58C167.933 19.58 168.393 19.12 168.393 18.56C168.393 18 167.933 17.54 167.373 17.54C166.813 17.54 166.353 18 166.353 18.56ZM178.493 21.7H170.773V23.02H175.613L169.613 30H178.253V28.68H172.493L178.493 21.7ZM186.372 22.88C185.712 22.02 184.752 21.5 183.532 21.5C182.412 21.5 181.392 21.94 180.692 22.62C180.092 23.22 179.492 24.22 179.492 25.84C179.492 27.52 180.132 28.56 180.692 29.12C181.332 29.76 182.312 30.24 183.532 30.24C184.992 30.24 185.892 29.46 186.372 28.84V30.04C186.372 30.74 186.332 31.48 185.912 32.16C185.432 32.96 184.732 33.32 183.712 33.32C183.072 33.32 182.312 33.18 181.712 32.52C181.352 32.12 181.072 31.5 181.072 30.8H179.652C179.652 32.02 180.172 32.92 180.732 33.48C181.292 34.04 182.272 34.6 183.692 34.6C185.252 34.6 186.392 33.9 187.012 33.06C187.812 31.98 187.812 30.7 187.812 29.8V21.7H186.372V22.88ZM183.692 22.78C184.432 22.78 185.112 23.06 185.572 23.52C186.092 24.02 186.452 24.88 186.452 25.86C186.452 26.84 186.072 27.72 185.512 28.26C185.052 28.72 184.452 28.96 183.692 28.96C182.932 28.96 182.372 28.7 181.912 28.28C181.112 27.54 180.972 26.56 180.972 25.84C180.972 25.16 181.112 24.28 181.812 23.56C182.212 23.16 182.812 22.78 183.692 22.78ZM196.9 22.88C196.52 22.38 195.66 21.5 194.06 21.5C191.94 21.5 190.02 22.98 190.02 25.84C190.02 28.76 191.96 30.24 194.06 30.24C195.52 30.24 196.42 29.46 196.9 28.84V30H198.34V21.7H196.9V22.88ZM194.22 22.78C195.5 22.78 196.98 23.72 196.98 25.86C196.98 27.5 195.98 28.96 194.22 28.96C192.5 28.96 191.5 27.62 191.5 25.84C191.5 23.82 192.8 22.78 194.22 22.78ZM205.735 21.7V34.6H207.175V21.7H205.735ZM205.435 18.56C205.435 19.12 205.895 19.58 206.455 19.58C207.015 19.58 207.475 19.12 207.475 18.56C207.475 18 207.015 17.54 206.455 17.54C205.895 17.54 205.435 18 205.435 18.56ZM216.255 22.88C215.875 22.38 215.015 21.5 213.415 21.5C211.295 21.5 209.375 22.98 209.375 25.84C209.375 28.76 211.315 30.24 213.415 30.24C214.875 30.24 215.775 29.46 216.255 28.84V30H217.695V21.7H216.255V22.88ZM213.575 22.78C214.855 22.78 216.335 23.72 216.335 25.86C216.335 27.5 215.335 28.96 213.575 28.96C211.855 28.96 210.855 27.62 210.855 25.84C210.855 23.82 212.155 22.78 213.575 22.78ZM219.223 21.7L223.303 30.54L227.383 21.7H225.783L223.303 27.3L220.823 21.7H219.223ZM232.779 30.24C235.299 30.24 237.179 28.4 237.179 25.88C237.179 23.36 235.319 21.5 232.779 21.5C230.239 21.5 228.379 23.36 228.379 25.88C228.379 28.4 230.259 30.24 232.779 30.24ZM232.779 22.78C234.299 22.78 235.699 23.84 235.699 25.88C235.699 27.9 234.279 28.96 232.779 28.96C231.299 28.96 229.859 27.92 229.859 25.88C229.859 23.86 231.259 22.78 232.779 22.78ZM240.827 28.84C241.447 29.64 242.387 30.24 243.727 30.24C246.247 30.24 247.707 28.18 247.707 25.9C247.707 23.66 246.267 21.5 243.667 21.5C243.067 21.5 241.807 21.64 240.827 22.86V15.42H239.387V30H240.827V28.84ZM243.527 28.96C241.827 28.96 240.747 27.58 240.747 25.88C240.747 23.88 242.167 22.78 243.507 22.78C244.847 22.78 246.227 23.86 246.227 25.9C246.227 27.56 245.207 28.96 243.527 28.96ZM256.023 28.84C256.643 29.64 257.583 30.24 258.923 30.24C261.443 30.24 262.903 28.18 262.903 25.9C262.903 23.66 261.463 21.5 258.863 21.5C258.263 21.5 257.003 21.64 256.023 22.86V15.42H254.583V30H256.023V28.84ZM258.723 28.96C257.023 28.96 255.943 27.58 255.943 25.88C255.943 23.88 257.363 22.78 258.703 22.78C260.043 22.78 261.423 23.86 261.423 25.9C261.423 27.56 260.403 28.96 258.723 28.96ZM271.27 27.22C271.09 27.62 270.79 28.04 270.41 28.36C269.93 28.76 269.39 28.96 268.71 28.96C267.27 28.96 266.09 27.86 266.07 26.14H272.53C272.57 25.04 272.27 23.76 271.75 23.02C271.25 22.3 270.23 21.5 268.61 21.5C266.11 21.5 264.59 23.42 264.59 25.9C264.59 28.98 266.69 30.24 268.69 30.24C269.75 30.24 270.69 29.9 271.45 29.22C271.87 28.84 272.23 28.34 272.47 27.88L271.27 27.22ZM266.17 24.94C266.39 23.7 267.39 22.78 268.61 22.78C269.83 22.78 270.81 23.64 271.05 24.94H266.17ZM274.739 30H276.179V25.62C276.179 24.26 276.419 23.7 276.659 23.38C276.879 23.1 277.239 22.86 277.819 22.86C278.039 22.86 278.339 22.92 278.659 23.14L279.339 21.84C278.979 21.66 278.499 21.5 278.059 21.5C276.939 21.5 276.319 22.38 276.179 22.6V21.7H274.739V30ZM280.657 21.7V30H282.097V21.7H280.657ZM280.357 18.56C280.357 19.12 280.817 19.58 281.377 19.58C281.937 19.58 282.397 19.12 282.397 18.56C282.397 18 281.937 17.54 281.377 17.54C280.817 17.54 280.357 18 280.357 18.56ZM289.417 23C288.757 21.58 287.577 21.5 287.137 21.5C285.737 21.5 284.717 22.36 284.717 23.82C284.717 24.24 284.777 24.64 285.097 25.04C285.477 25.5 286.117 25.82 287.117 26.26C287.897 26.6 288.457 26.86 288.457 27.64C288.457 28.26 288.037 28.96 287.097 28.96C286.057 28.96 285.577 28.04 285.417 27.6L284.177 28.12C284.877 30.2 286.737 30.24 287.077 30.24C288.677 30.24 289.937 29.26 289.937 27.52C289.937 27.06 289.857 26.62 289.497 26.18C289.177 25.78 288.617 25.4 287.417 24.9C286.477 24.5 286.077 24.32 286.077 23.72C286.077 23.08 286.557 22.78 287.077 22.78C287.617 22.78 288.037 23.14 288.237 23.62L289.417 23ZM291.848 30H293.288V25.66C293.288 25.06 293.328 24.08 293.888 23.42C294.308 22.92 294.848 22.78 295.348 22.78C295.988 22.78 296.428 23.02 296.708 23.38C297.048 23.82 297.088 24.4 297.088 24.9V30H298.528V24.86C298.528 23.94 298.468 23.26 298.048 22.64C297.548 21.9 296.648 21.5 295.668 21.5C294.288 21.5 293.548 22.32 293.288 22.66V15.42H291.848V30ZM307.603 22.88C306.943 22.02 305.983 21.5 304.763 21.5C303.643 21.5 302.623 21.94 301.923 22.62C301.323 23.22 300.723 24.22 300.723 25.84C300.723 27.52 301.363 28.56 301.923 29.12C302.563 29.76 303.543 30.24 304.763 30.24C306.223 30.24 307.123 29.46 307.603 28.84V30.04C307.603 30.74 307.563 31.48 307.143 32.16C306.663 32.96 305.963 33.32 304.943 33.32C304.303 33.32 303.543 33.18 302.943 32.52C302.583 32.12 302.303 31.5 302.303 30.8H300.883C300.883 32.02 301.403 32.92 301.963 33.48C302.523 34.04 303.503 34.6 304.923 34.6C306.483 34.6 307.623 33.9 308.243 33.06C309.043 31.98 309.043 30.7 309.043 29.8V21.7H307.603V22.88ZM304.923 22.78C305.663 22.78 306.343 23.06 306.803 23.52C307.323 24.02 307.683 24.88 307.683 25.86C307.683 26.84 307.303 27.72 306.743 28.26C306.283 28.72 305.683 28.96 304.923 28.96C304.163 28.96 303.603 28.7 303.143 28.28C302.343 27.54 302.203 26.56 302.203 25.84C302.203 25.16 302.343 24.28 303.043 23.56C303.443 23.16 304.043 22.78 304.923 22.78ZM318.13 22.88C317.75 22.38 316.89 21.5 315.29 21.5C313.17 21.5 311.25 22.98 311.25 25.84C311.25 28.76 313.19 30.24 315.29 30.24C316.75 30.24 317.65 29.46 318.13 28.84V30H319.57V21.7H318.13V22.88ZM315.45 22.78C316.73 22.78 318.21 23.72 318.21 25.86C318.21 27.5 317.21 28.96 315.45 28.96C313.73 28.96 312.73 27.62 312.73 25.84C312.73 23.82 314.03 22.78 315.45 22.78ZM329.885 23.02V21.7H328.445V18.7H327.005V21.7H326.125V23.02H327.005V30H328.445V23.02H329.885ZM337.603 22.88C337.223 22.38 336.363 21.5 334.763 21.5C332.643 21.5 330.723 22.98 330.723 25.84C330.723 28.76 332.663 30.24 334.763 30.24C336.223 30.24 337.123 29.46 337.603 28.84V30H339.043V21.7H337.603V22.88ZM334.923 22.78C336.203 22.78 337.683 23.72 337.683 25.86C337.683 27.5 336.683 28.96 334.923 28.96C333.203 28.96 332.203 27.62 332.203 25.84C332.203 23.82 333.503 22.78 334.923 22.78ZM341.75 34.6H343.35L349.45 21.7H347.85L345.15 27.64L342.21 21.7H340.57L344.39 29.22L341.75 34.6ZM350.949 34.6H352.549L358.649 21.7H357.049L354.349 27.64L351.409 21.7H349.769L353.589 29.22L350.949 34.6ZM364.049 30.24C366.569 30.24 368.449 28.4 368.449 25.88C368.449 23.36 366.589 21.5 364.049 21.5C361.509 21.5 359.649 23.36 359.649 25.88C359.649 28.4 361.529 30.24 364.049 30.24ZM364.049 22.78C365.569 22.78 366.969 23.84 366.969 25.88C366.969 27.9 365.549 28.96 364.049 28.96C362.569 28.96 361.129 27.92 361.129 25.88C361.129 23.86 362.529 22.78 364.049 22.78ZM370.657 30H372.097V25.62C372.097 24.26 372.337 23.7 372.577 23.38C372.797 23.1 373.157 22.86 373.737 22.86C373.957 22.86 374.257 22.92 374.577 23.14L375.257 21.84C374.897 21.66 374.417 21.5 373.977 21.5C372.857 21.5 372.237 22.38 372.097 22.6V21.7H370.657V30ZM376.575 30H378.015V25.48C378.015 24.48 378.195 22.78 379.835 22.78C381.355 22.78 381.335 24.5 381.335 25.08V30H382.775V25.38C382.775 24.38 382.955 22.78 384.615 22.78C385.975 22.78 386.095 24.02 386.095 24.96V30H387.535V24.74C387.535 23.56 387.295 21.5 384.835 21.5C384.275 21.5 383.135 21.58 382.335 22.84C382.175 22.56 381.575 21.5 380.075 21.5C379.195 21.5 378.475 21.9 378.015 22.58V21.7H376.575V30ZM396.626 22.88C396.246 22.38 395.386 21.5 393.786 21.5C391.666 21.5 389.746 22.98 389.746 25.84C389.746 28.76 391.686 30.24 393.786 30.24C395.246 30.24 396.146 29.46 396.626 28.84V30H398.066V21.7H396.626V22.88ZM393.946 22.78C395.226 22.78 396.706 23.72 396.706 25.86C396.706 27.5 395.706 28.96 393.946 28.96C392.226 28.96 391.226 27.62 391.226 25.84C391.226 23.82 392.526 22.78 393.946 22.78ZM400.794 30H402.234V25.66C402.234 25.06 402.274 24.08 402.834 23.42C403.254 22.92 403.794 22.78 404.294 22.78C404.934 22.78 405.374 23.02 405.654 23.38C405.994 23.82 406.034 24.4 406.034 24.9V30H407.474V24.86C407.474 23.94 407.414 23.26 406.994 22.64C406.494 21.9 405.594 21.5 404.614 21.5C403.234 21.5 402.494 22.32 402.234 22.66V21.7H400.794V30ZM412.348 27.3V16.66H410.908V27.3H412.348ZM410.628 29.2C410.628 29.74 411.088 30.2 411.628 30.2C412.168 30.2 412.628 29.74 412.628 29.2C412.628 28.66 412.168 28.2 411.628 28.2C411.088 28.2 410.628 28.66 410.628 29.2Z" fill="black"/>
</svg>
