<svg width="56" height="56" viewBox="0 0 56 56" fill="none" xmlns="http://www.w3.org/2000/svg">
<g id="facebook-2 1" clip-path="url(#clip0_1_1445)">
<path id="Vector" d="M49 0H7C3.1395 0 0 3.1395 0 7V49C0 52.8605 3.1395 56 7 56H49C52.8605 56 56 52.8605 56 49V7C56 3.1395 52.8605 0 49 0Z" fill="#1976D2"/>
<path id="Vector_2" d="M47.25 28H38.5V21C38.5 19.068 40.068 19.25 42 19.25H45.5V10.5H38.5C32.7005 10.5 28 15.2005 28 21V28H21V36.75H28V56H38.5V36.75H43.75L47.25 28Z" fill="#FAFAFA"/>
</g>
<defs>
<clipPath id="clip0_1_1445">
<rect width="56" height="56" fill="white"/>
</clipPath>
</defs>
</svg>
