<svg width="431" height="78" viewBox="0 0 431 78" fill="none" xmlns="http://www.w3.org/2000/svg">
<rect width="431" height="78" fill="#F7A90B"/>
<path d="M67.559 32.66V46H70.899C71.919 46 73.579 45.82 74.639 44.7C75.279 44.02 75.519 43.26 75.519 42.3C75.519 41.48 75.359 40.56 74.639 39.8C73.979 39.12 73.159 38.9 72.919 38.84C73.219 38.7 73.619 38.44 73.919 37.92C74.239 37.4 74.319 36.86 74.319 36.34C74.319 35.24 73.979 34.38 73.259 33.7C72.379 32.88 71.299 32.66 69.579 32.66H67.559ZM69.599 34.58H70.299C70.879 34.58 71.459 34.64 71.919 35.08C72.339 35.48 72.399 35.96 72.399 36.36C72.399 36.82 72.339 37.44 71.879 37.88C71.399 38.34 70.719 38.4 70.219 38.4H69.599V34.58ZM69.599 40.08H70.879C71.599 40.08 72.419 40.14 72.979 40.68C73.319 41.02 73.519 41.54 73.519 42.08C73.519 42.68 73.259 43.24 72.859 43.56C72.339 43.98 71.419 44.08 70.839 44.08H69.599V40.08ZM83.6263 43.16C83.4463 43.48 83.1863 43.82 82.8463 44.08C82.4463 44.38 82.0463 44.5 81.5063 44.5C81.0263 44.5 80.4663 44.42 80.0063 43.96C79.5863 43.54 79.3263 42.86 79.2863 42.26H85.3263V42.02C85.3263 41.14 85.2263 39.58 84.1463 38.46C83.6463 37.94 82.7863 37.36 81.4463 37.36C80.2463 37.36 79.3263 37.8 78.6263 38.5C77.7463 39.4 77.2863 40.66 77.2863 41.96C77.2863 43.22 77.7263 44.38 78.5263 45.18C79.3263 45.98 80.2463 46.26 81.3663 46.26C82.2663 46.26 83.1663 46.06 83.8463 45.62C84.3863 45.28 84.9063 44.72 85.2663 44.08L83.6263 43.16ZM79.4263 40.66C79.5263 40.24 79.7463 39.84 80.0263 39.58C80.2863 39.32 80.7263 39.04 81.4063 39.04C82.0463 39.04 82.4663 39.28 82.7263 39.52C83.0263 39.8 83.2463 40.2 83.3263 40.66H79.4263ZM89.3348 45.02C90.2148 46.1 91.3948 46.26 91.8548 46.26C93.8548 46.26 95.9348 44.58 95.9348 41.74C95.9348 39.06 94.0548 37.36 91.8348 37.36C90.9948 37.36 90.0548 37.64 89.3348 38.5V37.58H87.3748V50.58H89.3348V45.02ZM91.5948 39.12C93.0148 39.12 93.9348 40.32 93.9348 41.82C93.9348 43.28 93.0148 44.5 91.5948 44.5C90.3548 44.5 89.2148 43.6 89.2148 41.84C89.2148 40 90.3548 39.12 91.5948 39.12ZM97.9802 37.58V42.46C97.9802 43.54 98.1002 44.44 98.8802 45.22C99.6402 46 100.68 46.26 101.54 46.26C102.48 46.26 103.52 45.98 104.28 45.22C105.06 44.44 105.18 43.54 105.18 42.46V37.58H103.22V42.4C103.22 42.9 103.2 43.48 102.86 43.92C102.6 44.26 102.14 44.5 101.58 44.5C101.02 44.5 100.56 44.26 100.3 43.92C99.9602 43.48 99.9402 42.9 99.9402 42.4V37.58H97.9802ZM107.668 31.42V46H109.628V31.42H107.668ZM120.829 37.36C118.289 37.36 116.329 39.2 116.329 41.8C116.329 44.38 118.289 46.26 120.829 46.26C123.369 46.26 125.329 44.38 125.329 41.8C125.329 39.2 123.369 37.36 120.829 37.36ZM120.829 44.5C119.289 44.5 118.329 43.44 118.329 41.82C118.329 39.9 119.589 39.12 120.829 39.12C122.069 39.12 123.329 39.9 123.329 41.82C123.329 43.44 122.369 44.5 120.829 44.5ZM133.895 37.96C132.995 37.46 132.235 37.36 131.595 37.36C129.935 37.36 128.875 37.94 128.215 38.6C127.595 39.22 126.935 40.28 126.935 41.86C126.935 43.4 127.535 44.4 128.135 45.02C128.935 45.86 129.935 46.26 131.335 46.26C132.635 46.26 133.415 45.9 133.895 45.6V43.42C133.215 44.18 132.275 44.5 131.475 44.5C130.755 44.5 130.135 44.24 129.695 43.82C129.315 43.44 128.935 42.78 128.935 41.8C128.935 40.86 129.295 40.22 129.655 39.86C130.015 39.5 130.595 39.12 131.515 39.12C132.115 39.12 132.995 39.28 133.895 40.16V37.96ZM135.773 46H137.733V41.94C137.733 40.86 137.853 40.22 138.133 39.82C138.393 39.44 138.913 39.12 139.573 39.12C140.073 39.12 140.453 39.32 140.673 39.56C141.053 39.98 141.053 40.52 141.053 41.02V46H143.013V40.84C143.013 40.24 142.993 39.26 142.473 38.5C142.233 38.16 141.533 37.36 139.993 37.36C139.493 37.36 138.573 37.44 137.733 38.3V31.42H135.773V46ZM145.5 37.58V46H147.46V37.58H145.5ZM145.22 34.1C145.22 34.82 145.76 35.36 146.48 35.36C147.2 35.36 147.74 34.82 147.74 34.1C147.74 33.38 147.2 32.84 146.48 32.84C145.76 32.84 145.22 33.38 145.22 34.1ZM156.093 38.5C155.373 37.64 154.433 37.36 153.593 37.36C151.373 37.36 149.493 39.04 149.493 41.78C149.493 44.12 150.973 46.26 153.573 46.26C154.173 46.26 155.233 46.12 156.093 45.06V50.58H158.053V37.58H156.093V38.5ZM153.833 39.12C155.073 39.12 156.213 40 156.213 41.84C156.213 43.6 155.073 44.5 153.833 44.5C152.413 44.5 151.493 43.28 151.493 41.82C151.493 40.32 152.413 39.12 153.833 39.12ZM171.367 38.56C170.567 37.52 169.487 37.36 168.867 37.36C166.647 37.36 164.767 39.04 164.767 41.78C164.767 44.1 166.247 46.26 168.847 46.26C169.447 46.26 170.507 46.12 171.367 45.12V46H173.327V31.42H171.367V38.56ZM169.107 39.12C170.347 39.12 171.487 40 171.487 41.84C171.487 43.6 170.347 44.5 169.107 44.5C167.687 44.5 166.767 43.28 166.767 41.82C166.767 40.32 167.687 39.12 169.107 39.12ZM181.972 38.56C181.172 37.52 180.092 37.36 179.472 37.36C177.252 37.36 175.372 39.04 175.372 41.78C175.372 44.1 176.852 46.26 179.452 46.26C180.052 46.26 181.112 46.12 181.972 45.12V46H183.932V37.58H181.972V38.56ZM179.712 39.12C180.952 39.12 182.092 40 182.092 41.84C182.092 43.6 180.952 44.5 179.712 44.5C178.292 44.5 177.372 43.28 177.372 41.82C177.372 40.32 178.292 39.12 179.712 39.12ZM186.418 46H188.378V41.64C188.378 41.08 188.378 40.28 188.918 39.7C189.298 39.3 189.718 39.24 190.138 39.24C190.338 39.24 190.698 39.26 191.138 39.54L191.938 37.76C191.398 37.44 190.878 37.36 190.398 37.36C189.958 37.36 189.578 37.42 189.198 37.64C188.918 37.8 188.598 38.08 188.378 38.34V37.58H186.418V46ZM197.808 38.84C197.508 38.3 197.128 37.98 196.848 37.8C196.368 37.48 195.888 37.36 195.288 37.36C194.248 37.36 193.608 37.76 193.228 38.16C192.788 38.62 192.528 39.28 192.528 39.96C192.528 40.5 192.688 40.96 193.128 41.38C193.448 41.7 193.908 41.92 194.288 42.1L195.008 42.44C195.328 42.58 195.608 42.72 195.848 42.96C196.028 43.16 196.108 43.36 196.108 43.6C196.108 43.84 195.988 44.1 195.828 44.26C195.648 44.44 195.328 44.54 195.028 44.54C194.568 44.54 194.288 44.34 194.168 44.22C193.988 44.06 193.808 43.7 193.708 43.42L192.108 44.18C192.308 44.78 192.708 45.36 193.188 45.72C193.788 46.18 194.468 46.26 195.008 46.26C195.888 46.26 196.708 46.04 197.368 45.32C197.828 44.82 198.108 44.16 198.108 43.4C198.108 42.82 197.948 42.3 197.488 41.84C197.168 41.5 196.748 41.28 196.308 41.06L195.308 40.56C194.888 40.34 194.768 40.3 194.648 40.22C194.468 40.1 194.368 39.96 194.368 39.74C194.368 39.56 194.448 39.4 194.548 39.3C194.668 39.18 194.868 39.08 195.148 39.08C195.768 39.08 196.148 39.48 196.348 39.8L197.808 38.84ZM206.035 38.5C205.315 37.64 204.375 37.36 203.535 37.36C202.515 37.36 201.515 37.66 200.675 38.52C200.015 39.18 199.435 40.24 199.435 41.78C199.435 43.18 199.935 44.32 200.695 45.12C201.495 45.96 202.395 46.26 203.475 46.26C204.035 46.26 205.135 46.2 206.035 45.06V46.16C206.035 46.78 206.035 47.66 205.395 48.28C205.155 48.52 204.675 48.84 203.855 48.84C203.055 48.84 202.575 48.52 202.335 48.26C202.035 47.94 201.795 47.4 201.715 46.94H199.815C199.955 47.96 200.435 48.94 201.055 49.56C201.855 50.36 202.835 50.6 203.815 50.6C205.195 50.6 206.075 50.14 206.615 49.7C207.775 48.72 207.995 47.3 207.995 45.32V37.58H206.035V38.5ZM203.775 39.12C204.335 39.12 204.875 39.24 205.355 39.72C205.855 40.2 206.155 40.9 206.155 41.84C206.155 42.48 205.995 43.2 205.415 43.82C204.935 44.32 204.395 44.5 203.775 44.5C203.175 44.5 202.635 44.26 202.275 43.94C201.755 43.48 201.435 42.66 201.435 41.82C201.435 40.92 201.795 40.14 202.295 39.68C202.735 39.26 203.235 39.12 203.775 39.12ZM216.64 38.56C215.84 37.52 214.76 37.36 214.14 37.36C211.92 37.36 210.04 39.04 210.04 41.78C210.04 44.1 211.52 46.26 214.12 46.26C214.72 46.26 215.78 46.12 216.64 45.12V46H218.6V37.58H216.64V38.56ZM214.38 39.12C215.62 39.12 216.76 40 216.76 41.84C216.76 43.6 215.62 44.5 214.38 44.5C212.96 44.5 212.04 43.28 212.04 41.82C212.04 40.32 212.96 39.12 214.38 39.12ZM225.754 46H227.714V41.64C227.714 41.08 227.714 40.28 228.254 39.7C228.634 39.3 229.054 39.24 229.474 39.24C229.674 39.24 230.034 39.26 230.474 39.54L231.274 37.76C230.734 37.44 230.214 37.36 229.734 37.36C229.294 37.36 228.914 37.42 228.534 37.64C228.254 37.8 227.934 38.08 227.714 38.34V37.58H225.754V46ZM236.064 37.36C233.524 37.36 231.564 39.2 231.564 41.8C231.564 44.38 233.524 46.26 236.064 46.26C238.604 46.26 240.564 44.38 240.564 41.8C240.564 39.2 238.604 37.36 236.064 37.36ZM236.064 44.5C234.524 44.5 233.564 43.44 233.564 41.82C233.564 39.9 234.824 39.12 236.064 39.12C237.304 39.12 238.564 39.9 238.564 41.82C238.564 43.44 237.604 44.5 236.064 44.5ZM243.209 37.06L244.529 37.6L247.009 32.66L245.249 31.98L243.209 37.06ZM248.63 50.58H250.83L257.53 37.58H255.33L252.89 42.5L250.49 37.58H248.13L251.73 44.68L248.63 50.58ZM257.583 46H259.983L262.483 42.86L264.903 46H267.263L263.663 41.44L266.763 37.58H264.363L262.483 40.04L260.623 37.58H258.303L261.303 41.44L257.583 46ZM274.57 38.56C273.77 37.52 272.69 37.36 272.07 37.36C269.85 37.36 267.97 39.04 267.97 41.78C267.97 44.1 269.45 46.26 272.05 46.26C272.65 46.26 273.71 46.12 274.57 45.12V46H276.53V37.58H274.57V38.56ZM272.31 39.12C273.55 39.12 274.69 40 274.69 41.84C274.69 43.6 273.55 44.5 272.31 44.5C270.89 44.5 269.97 43.28 269.97 41.82C269.97 40.32 270.89 39.12 272.31 39.12ZM282.535 39.38V37.58H281.035V34.5H279.075V37.58H278.255V39.38H279.075V46H281.035V39.38H282.535ZM290.019 38.56C289.219 37.52 288.139 37.36 287.519 37.36C285.299 37.36 283.419 39.04 283.419 41.78C283.419 44.1 284.899 46.26 287.499 46.26C288.099 46.26 289.159 46.12 290.019 45.12V46H291.979V31.42H290.019V38.56ZM287.759 39.12C288.999 39.12 290.139 40 290.139 41.84C290.139 43.6 288.999 44.5 287.759 44.5C286.339 44.5 285.419 43.28 285.419 41.82C285.419 40.32 286.339 39.12 287.759 39.12ZM300.625 38.56C299.825 37.52 298.745 37.36 298.125 37.36C295.905 37.36 294.025 39.04 294.025 41.78C294.025 44.1 295.505 46.26 298.105 46.26C298.705 46.26 299.765 46.12 300.625 45.12V46H302.585V37.58H300.625V38.56ZM298.365 39.12C299.605 39.12 300.745 40 300.745 41.84C300.745 43.6 299.605 44.5 298.365 44.5C296.945 44.5 296.025 43.28 296.025 41.82C296.025 40.32 296.945 39.12 298.365 39.12ZM305.05 46H307.01V41.96C307.01 39.24 307.91 39.12 308.79 39.12C309.53 39.12 310.33 39.18 310.33 41.32V46H312.29V40.84C312.29 39.54 312.09 38.96 311.77 38.5C311.51 38.14 310.85 37.36 309.29 37.36C308.81 37.36 307.85 37.42 307.01 38.36V37.58H305.05V46ZM323.505 37.36C320.965 37.36 319.005 39.2 319.005 41.8C319.005 44.38 320.965 46.26 323.505 46.26C326.045 46.26 328.005 44.38 328.005 41.8C328.005 39.2 326.045 37.36 323.505 37.36ZM323.505 44.5C321.965 44.5 321.005 43.44 321.005 41.82C321.005 39.9 322.265 39.12 323.505 39.12C324.745 39.12 326.005 39.9 326.005 41.82C326.005 43.44 325.045 44.5 323.505 44.5ZM330.65 37.06L331.97 37.6L334.45 32.66L332.69 31.98L330.65 37.06ZM340.211 39.38V37.58H338.711V34.5H336.751V37.58H335.931V39.38H336.751V46H338.711V39.38H340.211ZM341.535 37.58V46H343.495V37.58H341.535ZM341.255 34.1C341.255 34.82 341.795 35.36 342.515 35.36C343.235 35.36 343.775 34.82 343.775 34.1C343.775 33.38 343.235 32.84 342.515 32.84C341.795 32.84 341.255 33.38 341.255 34.1ZM345.949 46H347.909V41.96C347.909 39.24 348.809 39.12 349.689 39.12C350.429 39.12 351.229 39.18 351.229 41.32V46H353.189V40.84C353.189 39.54 352.989 38.96 352.669 38.5C352.409 38.14 351.749 37.36 350.189 37.36C349.709 37.36 348.749 37.42 347.909 38.36V37.58H345.949V46ZM361.836 38.5C361.116 37.64 360.176 37.36 359.336 37.36C358.316 37.36 357.316 37.66 356.476 38.52C355.816 39.18 355.236 40.24 355.236 41.78C355.236 43.18 355.736 44.32 356.496 45.12C357.296 45.96 358.196 46.26 359.276 46.26C359.836 46.26 360.936 46.2 361.836 45.06V46.16C361.836 46.78 361.836 47.66 361.196 48.28C360.956 48.52 360.476 48.84 359.656 48.84C358.856 48.84 358.376 48.52 358.136 48.26C357.836 47.94 357.596 47.4 357.516 46.94H355.616C355.756 47.96 356.236 48.94 356.856 49.56C357.656 50.36 358.636 50.6 359.616 50.6C360.996 50.6 361.876 50.14 362.416 49.7C363.576 48.72 363.796 47.3 363.796 45.32V37.58H361.836V38.5ZM359.576 39.12C360.136 39.12 360.676 39.24 361.156 39.72C361.656 40.2 361.956 40.9 361.956 41.84C361.956 42.48 361.796 43.2 361.216 43.82C360.736 44.32 360.196 44.5 359.576 44.5C358.976 44.5 358.436 44.26 358.076 43.94C357.556 43.48 357.236 42.66 357.236 41.82C357.236 40.92 357.596 40.14 358.096 39.68C358.536 39.26 359.036 39.12 359.576 39.12Z" fill="black"/>
</svg>
