<svg width="80" height="80" viewBox="0 0 80 80" fill="none" xmlns="http://www.w3.org/2000/svg">
<path fill-rule="evenodd" clip-rule="evenodd" d="M62.3099 78V68.9051C62.3099 68.088 61.6475 67.4256 60.8304 67.4256C60.0134 67.4256 59.3509 68.088 59.3509 68.9051V78H62.3099ZM46.4535 78L44.1899 64.6276L45.3816 62.8336C45.4519 62.8836 45.5205 62.9333 45.5881 62.9824C46.1539 63.3926 46.6496 63.7521 47.4998 63.7521C48.468 63.7521 49.3732 63.2102 49.8187 62.3182V62.318L54.484 52.9676L65.1119 57.0835C65.4963 57.2485 71.0796 59.7628 71.0796 66.402V76.4093C71.0794 77.2261 71.7418 77.8888 72.5591 77.8888C73.3761 77.8888 74.0385 77.2263 74.0385 76.4093V66.402C74.0385 57.6544 66.5486 54.4747 66.2298 54.3435C66.2205 54.3396 66.211 54.3358 66.2016 54.3323L48.5132 47.482V43.3335C51.3226 41.1486 53.2706 37.9097 53.7596 34.2145C55.1604 34.1159 56.4602 33.5928 57.5217 32.68C58.9079 31.4879 59.7032 29.753 59.7032 27.9208C59.7032 26.4003 59.1547 24.9484 58.177 23.8171V18.3364C58.1768 8.22578 49.9512 0 39.8406 0C29.7299 0 21.5043 8.22578 21.5043 18.3364V23.9607C20.5162 25.0805 19.9789 26.459 19.9789 27.9206C19.9789 29.7534 20.7739 31.4881 22.1604 32.6804C23.2211 33.5928 24.5201 34.1153 25.9205 34.2141C26.4135 37.9786 28.4183 41.3382 31.467 43.5525V47.482L13.7978 54.3321C13.7885 54.3356 13.7792 54.3394 13.7699 54.3431C13.451 54.4743 5.96118 57.654 5.96118 66.4016V78H8.92056V66.4018C8.92056 59.7403 14.5413 57.2317 14.8865 57.0841L25.5061 52.9672L30.1718 62.318C30.6182 63.2122 31.5246 63.7521 32.4908 63.7521C33.3393 63.7521 33.8311 63.396 34.405 62.9805C34.4717 62.9322 34.5395 62.8831 34.6091 62.8336L35.8008 64.6276L33.5374 78H36.5377L38.6067 65.7761H41.3824L43.4513 78H46.4535ZM20.65 78V68.9051C20.65 68.088 19.9876 67.4256 19.1705 67.4256C18.3534 67.4256 17.691 68.088 17.691 68.9051V78H20.65ZM47.3631 60.6116L51.7126 51.8945L47.5047 50.2649C43.4565 55.2616 43.0979 55.7043 42.7393 56.1469L42.1322 56.8963C44.353 58.4733 46.2553 59.8247 47.0146 60.3641C47.2187 60.5091 47.3402 60.5954 47.3631 60.6116ZM41.8395 62.8173L42.9674 61.1194L39.9948 59.0081L37.022 61.1194L38.15 62.8173H41.8395ZM34.4258 45.1906V47.9594L39.9948 54.8333L45.554 47.9715V45.0979C43.8622 45.8376 41.96 46.2511 40.0203 46.2511C38.1443 46.2511 36.2233 45.9152 34.4258 45.1906ZM55.5922 30.4365C56.3241 29.807 56.7439 28.8899 56.7441 27.9208C56.7441 26.3058 55.5841 24.8953 53.8837 24.6191V31.223C54.5238 31.1189 55.1083 30.8527 55.5922 30.4365ZM22.9379 27.9206C22.9379 29.522 24.0785 30.9439 25.7982 31.223V24.6935C24.2491 25.0516 22.9379 26.3389 22.9379 27.9206ZM24.4637 21.9973C24.8663 21.8604 25.4064 21.7328 25.8777 21.6787C26.1896 20.4399 27.3487 19.6017 28.6213 19.697C34.4229 20.1136 40.7107 18.422 45.8653 15.0549C46.9465 14.3485 48.3672 14.5418 49.2261 15.4646C52.8964 19.4107 53.6746 20.0854 53.8395 20.8864C53.8845 21.1046 53.8839 21.3322 53.8839 21.6379C54.3418 21.6785 54.7878 21.7649 55.2178 21.8957V18.3364C55.2178 9.85736 48.3198 2.95918 39.8408 2.95918C31.3617 2.95918 24.4637 9.85736 24.4637 18.3364V21.9973ZM28.7574 23.1574V32.3879C28.7574 38.0592 33.2752 43.2919 40.0205 43.2917C46.0274 43.2917 50.9247 38.3938 50.9247 32.3877V21.6485C50.6771 21.3448 50.0851 20.7135 49.0918 19.6542C48.5847 19.1134 47.9729 18.461 47.2489 17.6837C41.8397 21.1479 35.1439 23.0452 28.7574 22.6711V23.1574ZM28.2773 51.8945L32.6268 60.6116L32.7388 60.532C33.2767 60.1499 35.361 58.669 37.8513 56.9007L32.4776 50.2676L28.2773 51.8945Z" fill="#F7A90B"/>
</svg>
