<svg width="245" height="52" viewBox="0 0 245 52" fill="none" xmlns="http://www.w3.org/2000/svg">
<g clip-path="url(#clip0_1_1350)">
<path d="M14.9695 16.848C14.9711 17.5775 14.8295 18.3001 14.553 18.9744C14.2764 19.6487 13.8702 20.2613 13.3578 20.7772C12.8453 21.2931 12.2367 21.702 11.5669 21.9806C10.897 22.2591 10.1791 22.4018 9.45434 22.4004H1.13742L2.26884 20.1204H9.45434C10.3063 20.104 11.1179 19.7518 11.7146 19.1395C12.3113 18.5273 12.6456 17.7038 12.6456 16.8462C12.6456 15.9885 12.3113 15.165 11.7146 14.5528C11.1179 13.9406 10.3063 13.5884 9.45434 13.572H5.63924C4.90807 13.5828 4.18206 13.4472 3.50343 13.173C2.8248 12.8989 2.2071 12.4917 1.68624 11.9751C1.16538 11.4585 0.75177 10.8428 0.469452 10.1638C0.187134 9.48486 0.041748 8.75619 0.041748 8.02017C0.041748 7.28415 0.187134 6.55548 0.469452 5.87652C0.75177 5.19757 1.16538 4.58188 1.68624 4.06528C2.2071 3.54867 2.8248 3.14146 3.50343 2.86731C4.18206 2.59316 4.90807 2.45755 5.63924 2.46837H13.949L12.8176 4.74837H5.63566C5.20324 4.74004 4.7735 4.81857 4.37158 4.97937C3.96967 5.14017 3.60363 5.38002 3.29489 5.68488C2.98615 5.98975 2.7409 6.3535 2.57348 6.75489C2.40605 7.15628 2.31982 7.58724 2.31982 8.02257C2.31982 8.4579 2.40605 8.88885 2.57348 9.29024C2.7409 9.69163 2.98615 10.0554 3.29489 10.3603C3.60363 10.6651 3.96967 10.905 4.37158 11.0658C4.7735 11.2266 5.20324 11.3051 5.63566 11.2968H9.45077C10.1757 11.2949 10.8939 11.4371 11.5641 11.7154C12.2343 11.9937 12.8433 12.4024 13.3561 12.9182C13.8689 13.434 14.2754 14.0467 14.5523 14.7211C14.8292 15.3955 14.971 16.1183 14.9695 16.848Z" fill="white"/>
<path d="M38.8441 4.74826H32.5635V22.4003H30.2983V4.74826H25.6427L24.0212 2.46826H38.8441V4.74826Z" fill="white"/>
<path d="M244.285 4.74826H238.006V22.4003H235.741V4.74826H231.082L229.461 2.46826H244.285V4.74826Z" fill="white"/>
<path d="M172.693 4.74826H166.413V22.4003H164.148V4.74826H159.489L157.869 2.46826H172.693V4.74826Z" fill="white"/>
<path d="M57.2573 4.15086L55.984 1.56006L54.7107 4.15086L45.632 22.4005H48.2048L55.984 6.68406L63.7632 22.4005H66.3372L57.2573 4.15086Z" fill="white"/>
<path d="M55.984 12.4355L55.376 13.6739L51.0339 22.4003H52.2643H55.984H59.7038H60.9341L56.5933 13.6739L55.984 12.4355Z" fill="#F7A90B"/>
<path d="M51.0339 22.4003L55.9841 12.4355V22.4003H51.0339Z" fill="#D3810B"/>
<path d="M88.683 22.4003H86.1376L80.6213 11.2967H82.4608C83.3128 11.2803 84.1244 10.9281 84.7211 10.3159C85.3178 9.70362 85.6521 8.88017 85.6521 8.0225C85.6521 7.16482 85.3178 6.34138 84.7211 5.72914C84.1244 5.11689 83.3128 4.76472 82.4608 4.7483H75.3887V22.4003H73.1235V2.4707H82.4585C83.7726 2.47339 85.0427 2.94756 86.0407 3.80808C87.0387 4.6686 87.6992 5.85908 87.9036 7.1657C88.1079 8.47231 87.8428 9.80946 87.1557 10.937C86.4687 12.0645 85.4047 12.9086 84.155 13.3175L88.683 22.4003Z" fill="white"/>
<path d="M105.372 22.4004C102.746 22.4004 100.228 21.3505 98.3712 19.4817C96.5146 17.613 95.4715 15.0784 95.4715 12.4355C95.4715 9.79272 96.5146 7.25813 98.3712 5.38937C100.228 3.52061 102.746 2.47075 105.372 2.47075C106.699 2.46675 108.013 2.73471 109.233 3.25831C110.454 3.78192 111.556 4.55019 112.472 5.51634L110.719 6.94075C109.641 5.87885 108.274 5.16213 106.792 4.881C105.309 4.59987 103.777 4.76691 102.389 5.36105C101.001 5.9552 99.8184 6.94984 98.9911 8.21951C98.1638 9.48918 97.7286 10.977 97.7404 12.4953C97.7521 14.0137 98.2104 15.4945 99.0573 16.751C99.9042 18.0075 101.102 18.9834 102.499 19.5557C103.896 20.1279 105.431 20.2708 106.909 19.9664C108.387 19.662 109.742 18.9239 110.803 17.8451L112.388 19.4399C111.472 20.3778 110.38 21.1226 109.176 21.6309C107.971 22.1391 106.678 22.4007 105.372 22.4004Z" fill="white"/>
<path d="M123.787 11.3255V7.1255L121.524 2.4707V22.4003H123.787V13.6031H131.849L130.773 11.3255H123.787Z" fill="white"/>
<path d="M134.112 2.4707V11.2679V13.5455V17.7455L136.374 22.4003V2.4707H134.112Z" fill="white"/>
<path d="M148.253 2.4707V22.4003H145.988V2.4707H148.253Z" fill="white"/>
<path d="M192.367 20.1227L196.595 22.4027H181.744V20.1227H192.367ZM192.367 4.74826L196.595 2.46826H181.744V4.74826H192.367ZM192.22 11.2967V13.5767H185.129V11.2967H192.22ZM184.036 20.1227H181.771V4.74826H184.036V20.1227Z" fill="white"/>
<path d="M213.312 22.4004C210.687 22.4004 208.169 21.3505 206.312 19.4817C204.455 17.613 203.412 15.0784 203.412 12.4355C203.412 9.79272 204.455 7.25813 206.312 5.38937C208.169 3.52061 210.687 2.47075 213.312 2.47075C214.639 2.46675 215.953 2.73471 217.174 3.25831C218.395 3.78192 219.497 4.55019 220.413 5.51634L218.654 6.94075C217.575 5.87897 216.209 5.16241 214.726 4.88144C213.244 4.60047 211.712 4.76768 210.324 5.36198C208.935 5.95628 207.753 6.95106 206.926 8.22082C206.099 9.49059 205.664 10.9785 205.676 12.4968C205.688 14.0151 206.146 15.4959 206.993 16.7523C207.84 18.0087 209.038 18.9845 210.435 19.5566C211.833 20.1286 213.367 20.2714 214.845 19.9668C216.323 19.6623 217.678 18.924 218.739 17.8451L220.323 19.4399C219.408 20.3773 218.317 21.1218 217.114 21.6301C215.91 22.1383 214.618 22.4002 213.312 22.4004Z" fill="white"/>
</g>
<path d="M7.448 47H8.596L4.41 37.214L0.112 47H1.26L2.38 44.368H6.356L7.448 47ZM2.786 43.388L4.382 39.65L5.95 43.388H2.786ZM9.66098 47H10.669V43.934C10.669 42.982 10.837 42.59 11.005 42.366C11.159 42.17 11.411 42.002 11.817 42.002C11.971 42.002 12.181 42.044 12.405 42.198L12.881 41.288C12.629 41.162 12.293 41.05 11.985 41.05C11.201 41.05 10.767 41.666 10.669 41.82V41.19H9.66098V47ZM12.9636 47H14.1956L16.0296 44.634L17.8636 47H19.0956L16.6876 43.906L18.8156 41.19H17.5836L16.0576 43.164L14.5596 41.19H13.3276L15.4416 43.892L12.9636 47ZM20.161 41.19V47H21.169V41.19H20.161ZM19.951 38.992C19.951 39.384 20.273 39.706 20.665 39.706C21.057 39.706 21.379 39.384 21.379 38.992C21.379 38.6 21.057 38.278 20.665 38.278C20.273 38.278 19.951 38.6 19.951 38.992ZM25.1171 42.114V41.19H24.1091V39.09H23.1011V41.19H22.4851V42.114H23.1011V47H24.1091V42.114H25.1171ZM30.3792 45.054C30.2532 45.334 30.0432 45.628 29.7772 45.852C29.4412 46.132 29.0632 46.272 28.5872 46.272C27.5792 46.272 26.7532 45.502 26.7392 44.298H31.2612C31.2892 43.528 31.0792 42.632 30.7152 42.114C30.3652 41.61 29.6512 41.05 28.5172 41.05C26.7672 41.05 25.7032 42.394 25.7032 44.13C25.7032 46.286 27.1732 47.168 28.5732 47.168C29.3152 47.168 29.9732 46.93 30.5052 46.454C30.7992 46.188 31.0512 45.838 31.2192 45.516L30.3792 45.054ZM26.8092 43.458C26.9632 42.59 27.6632 41.946 28.5172 41.946C29.3712 41.946 30.0572 42.548 30.2252 43.458H26.8092ZM32.8075 36.794V47H33.8155V44.606L34.0675 44.354L36.3915 47H37.7075L34.7675 43.682L37.2595 41.19H35.9435L33.8155 43.346V36.794H32.8075ZM40.7577 42.114V41.19H39.7497V39.09H38.7417V41.19H38.1257V42.114H38.7417V47H39.7497V42.114H40.7577ZM42.7159 41.19H41.7079V44.69C41.7079 45.404 41.7779 45.936 42.2399 46.44C42.7579 46.986 43.4439 47.168 44.0179 47.168C44.5919 47.168 45.2779 46.986 45.7959 46.44C46.2579 45.936 46.3279 45.404 46.3279 44.69V41.19H45.3199V44.578C45.3199 44.984 45.3199 45.46 45.0399 45.824C44.8859 46.02 44.5779 46.272 44.0179 46.272C43.4579 46.272 43.1499 46.02 42.9959 45.824C42.7159 45.46 42.7159 44.984 42.7159 44.578V41.19ZM48.2293 47H49.2373V43.934C49.2373 42.982 49.4053 42.59 49.5733 42.366C49.7273 42.17 49.9793 42.002 50.3853 42.002C50.5393 42.002 50.7493 42.044 50.9733 42.198L51.4493 41.288C51.1973 41.162 50.8613 41.05 50.5533 41.05C49.7693 41.05 49.3353 41.666 49.2373 41.82V41.19H48.2293V47ZM56.5231 42.016C56.2571 41.666 55.6551 41.05 54.5351 41.05C53.0511 41.05 51.7071 42.086 51.7071 44.088C51.7071 46.132 53.0651 47.168 54.5351 47.168C55.5571 47.168 56.1871 46.622 56.5231 46.188V47H57.5311V41.19H56.5231V42.016ZM54.6471 41.946C55.5431 41.946 56.5791 42.604 56.5791 44.102C56.5791 45.25 55.8791 46.272 54.6471 46.272C53.4431 46.272 52.7431 45.334 52.7431 44.088C52.7431 42.674 53.6531 41.946 54.6471 41.946ZM61.8679 41.19L64.7239 47.378L67.5799 41.19H66.4599L64.7239 45.11L62.9879 41.19H61.8679ZM73.0935 42.016C72.8275 41.666 72.2255 41.05 71.1055 41.05C69.6215 41.05 68.2775 42.086 68.2775 44.088C68.2775 46.132 69.6355 47.168 71.1055 47.168C72.1275 47.168 72.7575 46.622 73.0935 46.188V47H74.1015V41.19H73.0935V42.016ZM71.2175 41.946C72.1135 41.946 73.1495 42.604 73.1495 44.102C73.1495 45.25 72.4495 46.272 71.2175 46.272C70.0135 46.272 69.3135 45.334 69.3135 44.088C69.3135 42.674 70.2235 41.946 71.2175 41.946ZM83.7302 42.016C83.4642 41.666 82.8622 41.05 81.7422 41.05C80.2582 41.05 78.9142 42.086 78.9142 44.088C78.9142 46.132 80.2722 47.168 81.7422 47.168C82.7642 47.168 83.3942 46.622 83.7302 46.188V47H84.7382V36.794H83.7302V42.016ZM81.8542 41.946C82.7502 41.946 83.7862 42.604 83.7862 44.102C83.7862 45.25 83.0862 46.272 81.8542 46.272C80.6502 46.272 79.9502 45.334 79.9502 44.088C79.9502 42.674 80.8602 41.946 81.8542 41.946ZM86.5106 41.19V47H87.5186V41.19H86.5106ZM86.3006 38.992C86.3006 39.384 86.6226 39.706 87.0146 39.706C87.4066 39.706 87.7286 39.384 87.7286 38.992C87.7286 38.6 87.4066 38.278 87.0146 38.278C86.6226 38.278 86.3006 38.6 86.3006 38.992ZM94.7987 41.19H89.3947V42.114H92.7827L88.5827 47H94.6307V46.076H90.5987L94.7987 41.19ZM100.177 42.016C99.9114 41.666 99.3094 41.05 98.1894 41.05C96.7054 41.05 95.3614 42.086 95.3614 44.088C95.3614 46.132 96.7194 47.168 98.1894 47.168C99.2114 47.168 99.8414 46.622 100.177 46.188V47H101.185V41.19H100.177V42.016ZM98.3014 41.946C99.1974 41.946 100.233 42.604 100.233 44.102C100.233 45.25 99.5334 46.272 98.3014 46.272C97.0974 46.272 96.3974 45.334 96.3974 44.088C96.3974 42.674 97.3074 41.946 98.3014 41.946ZM103.081 50.22H104.201L108.471 41.19H107.351L105.461 45.348L103.403 41.19H102.255L104.929 46.454L103.081 50.22ZM109.534 47H110.542V43.962C110.542 43.542 110.57 42.856 110.962 42.394C111.256 42.044 111.634 41.946 111.984 41.946C112.432 41.946 112.74 42.114 112.936 42.366C113.174 42.674 113.202 43.08 113.202 43.43V47H114.21V43.402C114.21 42.758 114.168 42.282 113.874 41.848C113.524 41.33 112.894 41.05 112.208 41.05C111.242 41.05 110.724 41.624 110.542 41.862V41.19H109.534V47ZM123.83 42.016C123.564 41.666 122.962 41.05 121.842 41.05C120.358 41.05 119.014 42.086 119.014 44.088C119.014 46.132 120.372 47.168 121.842 47.168C122.864 47.168 123.494 46.622 123.83 46.188V47H124.838V41.19H123.83V42.016ZM121.954 41.946C122.85 41.946 123.886 42.604 123.886 44.102C123.886 45.25 123.186 46.272 121.954 46.272C120.75 46.272 120.05 45.334 120.05 44.088C120.05 42.674 120.96 41.946 121.954 41.946ZM126.747 36.794V47H127.755V44.606L128.007 44.354L130.331 47H131.647L128.707 43.682L131.199 41.19H129.883L127.755 43.346V36.794H126.747ZM137.105 42.016C136.839 41.666 136.237 41.05 135.117 41.05C133.633 41.05 132.289 42.086 132.289 44.088C132.289 46.132 133.647 47.168 135.117 47.168C136.139 47.168 136.769 46.622 137.105 46.188V47H138.113V41.19H137.105V42.016ZM135.229 41.946C136.125 41.946 137.161 42.604 137.161 44.102C137.161 45.25 136.461 46.272 135.229 46.272C134.025 46.272 133.325 45.334 133.325 44.088C133.325 42.674 134.235 41.946 135.229 41.946ZM144.474 42.016C144.208 41.666 143.606 41.05 142.486 41.05C141.002 41.05 139.658 42.086 139.658 44.088C139.658 46.132 141.016 47.168 142.486 47.168C143.508 47.168 144.138 46.622 144.474 46.188V47H145.482V36.794H144.474V42.016ZM142.598 41.946C143.494 41.946 144.53 42.604 144.53 44.102C144.53 45.25 143.83 46.272 142.598 46.272C141.394 46.272 140.694 45.334 140.694 44.088C140.694 42.674 141.604 41.946 142.598 41.946ZM151.703 45.054C151.577 45.334 151.367 45.628 151.101 45.852C150.765 46.132 150.387 46.272 149.911 46.272C148.903 46.272 148.077 45.502 148.063 44.298H152.585C152.613 43.528 152.403 42.632 152.039 42.114C151.689 41.61 150.975 41.05 149.841 41.05C148.091 41.05 147.027 42.394 147.027 44.13C147.027 46.286 148.497 47.168 149.897 47.168C150.639 47.168 151.297 46.93 151.829 46.454C152.123 46.188 152.375 45.838 152.543 45.516L151.703 45.054ZM148.133 43.458C148.287 42.59 148.987 41.946 149.841 41.946C150.695 41.946 151.381 42.548 151.549 43.458H148.133ZM154.132 47H155.14V43.836C155.14 43.136 155.266 41.946 156.414 41.946C157.478 41.946 157.464 43.15 157.464 43.556V47H158.472V43.766C158.472 43.066 158.598 41.946 159.76 41.946C160.712 41.946 160.796 42.814 160.796 43.472V47H161.804V43.318C161.804 42.492 161.636 41.05 159.914 41.05C159.522 41.05 158.724 41.106 158.164 41.988C158.052 41.792 157.632 41.05 156.582 41.05C155.966 41.05 155.462 41.33 155.14 41.806V41.19H154.132V47ZM163.716 41.19V47H164.724V41.19H163.716ZM163.506 38.992C163.506 39.384 163.828 39.706 164.22 39.706C164.612 39.706 164.934 39.384 164.934 38.992C164.934 38.6 164.612 38.278 164.22 38.278C163.828 38.278 163.506 38.6 163.506 38.992ZM166.614 50.22H167.734L172.004 41.19H170.884L168.994 45.348L166.936 41.19H165.788L168.462 46.454L166.614 50.22ZM177.519 42.016C177.253 41.666 176.651 41.05 175.531 41.05C174.047 41.05 172.703 42.086 172.703 44.088C172.703 46.132 174.061 47.168 175.531 47.168C176.553 47.168 177.183 46.622 177.519 46.188V47H178.527V41.19H177.519V42.016ZM175.643 41.946C176.539 41.946 177.575 42.604 177.575 44.102C177.575 45.25 176.875 46.272 175.643 46.272C174.439 46.272 173.739 45.334 173.739 44.088C173.739 42.674 174.649 41.946 175.643 41.946ZM183.656 42.1C183.194 41.106 182.368 41.05 182.06 41.05C181.08 41.05 180.366 41.652 180.366 42.674C180.366 42.968 180.408 43.248 180.632 43.528C180.898 43.85 181.346 44.074 182.046 44.382C182.592 44.62 182.984 44.802 182.984 45.348C182.984 45.782 182.69 46.272 182.032 46.272C181.304 46.272 180.968 45.628 180.856 45.32L179.988 45.684C180.478 47.14 181.78 47.168 182.018 47.168C183.138 47.168 184.02 46.482 184.02 45.264C184.02 44.942 183.964 44.634 183.712 44.326C183.488 44.046 183.096 43.78 182.256 43.43C181.598 43.15 181.318 43.024 181.318 42.604C181.318 42.156 181.654 41.946 182.018 41.946C182.396 41.946 182.69 42.198 182.83 42.534L183.656 42.1ZM185.358 41.19V47H186.366V41.19H185.358ZM185.148 38.992C185.148 39.384 185.47 39.706 185.862 39.706C186.254 39.706 186.576 39.384 186.576 38.992C186.576 38.6 186.254 38.278 185.862 38.278C185.47 38.278 185.148 38.6 185.148 38.992Z" fill="#ACB9C4"/>
<defs>
<clipPath id="clip0_1_1350">
<rect width="244.286" height="24" fill="white"/>
</clipPath>
</defs>
</svg>
