<svg width="206" height="58" viewBox="0 0 206 58" fill="none" xmlns="http://www.w3.org/2000/svg">
<rect width="206" height="58" fill="#F7A90B"/>
<path d="M67.6314 22.994V35H70.6374C71.5554 35 73.0494 34.838 74.0034 33.83C74.5794 33.218 74.7954 32.534 74.7954 31.67C74.7954 30.932 74.6514 30.104 74.0034 29.42C73.4094 28.808 72.6714 28.61 72.4554 28.556C72.7254 28.43 73.0854 28.196 73.3554 27.728C73.6434 27.26 73.7154 26.774 73.7154 26.306C73.7154 25.316 73.4094 24.542 72.7614 23.93C71.9694 23.192 70.9974 22.994 69.4494 22.994H67.6314ZM69.4674 24.722H70.0974C70.6194 24.722 71.1414 24.776 71.5554 25.172C71.9334 25.532 71.9874 25.964 71.9874 26.324C71.9874 26.738 71.9334 27.296 71.5194 27.692C71.0874 28.106 70.4754 28.16 70.0254 28.16H69.4674V24.722ZM69.4674 29.672H70.6194C71.2674 29.672 72.0054 29.726 72.5094 30.212C72.8154 30.518 72.9954 30.986 72.9954 31.472C72.9954 32.012 72.7614 32.516 72.4014 32.804C71.9334 33.182 71.1054 33.272 70.5834 33.272H69.4674V29.672ZM82.326 28.304C81.606 27.368 80.634 27.224 80.076 27.224C78.078 27.224 76.386 28.736 76.386 31.202C76.386 33.29 77.718 35.234 80.058 35.234C80.598 35.234 81.552 35.108 82.326 34.208V35H84.09V27.422H82.326V28.304ZM80.292 28.808C81.408 28.808 82.434 29.6 82.434 31.256C82.434 32.84 81.408 33.65 80.292 33.65C79.014 33.65 78.186 32.552 78.186 31.238C78.186 29.888 79.014 28.808 80.292 28.808ZM89.4949 29.042V27.422H88.1449V24.65H86.3809V27.422H85.6429V29.042H86.3809V35H88.1449V29.042H89.4949ZM96.2303 28.304C95.5103 27.368 94.5383 27.224 93.9803 27.224C91.9823 27.224 90.2903 28.736 90.2903 31.202C90.2903 33.29 91.6223 35.234 93.9623 35.234C94.5023 35.234 95.4563 35.108 96.2303 34.208V35H97.9943V27.422H96.2303V28.304ZM94.1963 28.808C95.3123 28.808 96.3383 29.6 96.3383 31.256C96.3383 32.84 95.3123 33.65 94.1963 33.65C92.9183 33.65 92.0903 32.552 92.0903 31.238C92.0903 29.888 92.9183 28.808 94.1963 28.808ZM104.083 29.042V27.422H102.175V24.56C102.175 24.02 102.373 23.75 102.463 23.66C102.697 23.408 103.021 23.372 103.237 23.372C103.489 23.372 103.723 23.426 104.083 23.642V21.896C103.705 21.734 103.327 21.68 102.949 21.68C102.031 21.68 101.473 22.076 101.149 22.418C100.717 22.886 100.411 23.624 100.411 24.794V27.422H99.6552V29.042H100.411V35H102.175V29.042H104.083ZM109.709 28.556C109.439 28.07 109.097 27.782 108.845 27.62C108.413 27.332 107.981 27.224 107.441 27.224C106.505 27.224 105.929 27.584 105.587 27.944C105.191 28.358 104.957 28.952 104.957 29.564C104.957 30.05 105.101 30.464 105.497 30.842C105.785 31.13 106.199 31.328 106.541 31.49L107.189 31.796C107.477 31.922 107.729 32.048 107.945 32.264C108.107 32.444 108.179 32.624 108.179 32.84C108.179 33.056 108.071 33.29 107.927 33.434C107.765 33.596 107.477 33.686 107.207 33.686C106.793 33.686 106.541 33.506 106.433 33.398C106.271 33.254 106.109 32.93 106.019 32.678L104.579 33.362C104.759 33.902 105.119 34.424 105.551 34.748C106.091 35.162 106.703 35.234 107.189 35.234C107.981 35.234 108.719 35.036 109.313 34.388C109.727 33.938 109.979 33.344 109.979 32.66C109.979 32.138 109.835 31.67 109.421 31.256C109.133 30.95 108.755 30.752 108.359 30.554L107.459 30.104C107.081 29.906 106.973 29.87 106.865 29.798C106.703 29.69 106.613 29.564 106.613 29.366C106.613 29.204 106.685 29.06 106.775 28.97C106.883 28.862 107.063 28.772 107.315 28.772C107.873 28.772 108.215 29.132 108.395 29.42L109.709 28.556ZM111.569 27.422V35H113.333V27.422H111.569ZM111.317 24.29C111.317 24.938 111.803 25.424 112.451 25.424C113.099 25.424 113.585 24.938 113.585 24.29C113.585 23.642 113.099 23.156 112.451 23.156C111.803 23.156 111.317 23.642 111.317 24.29ZM115.559 21.878V35H117.323V21.878H115.559ZM132.076 35.2365L138.04 29.2727L132.076 23.3089L130.925 24.4531L134.92 28.4418H124.885V30.1037H134.92L130.925 34.0987L132.076 35.2365Z" fill="black"/>
</svg>
