<svg width="80" height="80" viewBox="0 0 80 80" fill="none" xmlns="http://www.w3.org/2000/svg">
<g clip-path="url(#clip0_1_456)">
<path d="M24.605 67.8066H13.6675C12.8105 67.8066 12.1134 67.1094 12.1134 66.2523V53.513C12.1134 52.8642 11.5874 52.3383 10.9386 52.3383C10.2899 52.3383 9.76392 52.8642 9.76392 53.513V66.2523C9.76392 68.4049 11.515 70.156 13.6675 70.156H24.6051C25.2539 70.156 25.7798 69.6301 25.7798 68.9813C25.7798 68.3325 25.2537 67.8066 24.605 67.8066Z" fill="#284C68"/>
<path d="M10.9385 49.6814C11.5872 49.6814 12.1132 49.1554 12.1132 48.5067V3.9037C12.1132 3.04662 12.8103 2.34945 13.6673 2.34945H53.9129C54.5617 2.34945 55.0877 1.82349 55.0877 1.17473C55.0877 0.525964 54.5617 0 53.9129 0H13.6674C11.5149 0 9.76373 1.75113 9.76373 3.9037V48.5068C9.76373 49.1556 10.2897 49.6814 10.9385 49.6814Z" fill="#284C68"/>
<path d="M66.3328 0H58.9193C58.2706 0 57.7446 0.525964 57.7446 1.17473C57.7446 1.82349 58.2706 2.34945 58.9193 2.34945H66.3328C67.1897 2.34945 67.8869 3.04662 67.8869 3.9037V66.2524C67.8869 67.1095 67.1897 67.8066 66.3328 67.8066H55.2385C54.5897 67.8066 54.0638 68.3326 54.0638 68.9814C54.0638 69.6301 54.5897 70.1561 55.2385 70.1561H66.3328C68.4852 70.1561 70.2363 68.405 70.2363 66.2524V3.9037C70.2363 1.75113 68.4852 0 66.3328 0V0Z" fill="#284C68"/>
<path d="M56.1383 56.5424C56.1383 53.2826 55.1746 50.1387 53.3513 47.4503C52.9869 46.9134 52.2566 46.7734 51.7197 47.1375C51.1827 47.5017 51.0427 48.2322 51.4069 48.7691C52.9652 51.0668 53.7889 53.7547 53.7889 56.5424C53.7889 64.1888 47.5682 70.4097 39.9216 70.4097C32.2751 70.4097 26.0544 64.1888 26.0544 56.5424C26.0544 48.896 32.2751 42.6751 39.9216 42.6751C42.9355 42.6751 45.8012 43.6253 48.2089 45.4229C48.7288 45.811 49.465 45.7042 49.8531 45.1844C50.2412 44.6645 50.1344 43.9283 49.6145 43.5402C46.7977 41.4371 43.446 40.3257 39.9218 40.3257C30.9799 40.3257 23.7051 47.6004 23.7051 56.5424C23.7051 62.0747 26.4904 66.968 30.7318 69.8961V77.8364C30.7318 78.4893 31.0225 79.0997 31.5294 79.5111C32.0362 79.9224 32.6931 80.0816 33.3325 79.9473L39.7478 78.5988L46.3648 79.9555C46.51 79.9853 46.656 80 46.8011 80C47.2928 80 47.7723 79.8316 48.1616 79.5138C48.6658 79.1025 48.9551 78.4932 48.9551 77.8424V70.0037C53.2845 67.0889 56.1383 62.1429 56.1383 56.5424ZM33.0813 77.5995V71.2436C33.8256 71.5913 34.6001 71.8843 35.4003 72.1169V77.1119L33.0813 77.5995ZM39.5031 76.2495L37.7496 76.618V72.6133C38.4604 72.7088 39.1852 72.7591 39.9216 72.7591C40.5363 72.7591 41.1427 72.7236 41.7398 72.6567V76.6091L39.9807 76.2484C39.8231 76.2159 39.6605 76.2164 39.5031 76.2495ZM46.6057 77.6067L44.0894 77.0907V72.2153C44.9587 71.984 45.7998 71.6828 46.6057 71.3169V77.6067Z" fill="#F7A90B"/>
<path d="M39.9218 45.0247C33.5709 45.0247 28.404 50.1914 28.404 56.5425C28.404 62.8935 33.5708 68.0603 39.9218 68.0603C46.2729 68.0603 51.4396 62.8934 51.4396 56.5425C51.4396 50.1916 46.2727 45.0247 39.9218 45.0247ZM39.9218 65.7108C34.8664 65.7108 30.7534 61.5979 30.7534 56.5425C30.7534 51.4871 34.8662 47.3741 39.9218 47.3741C44.9774 47.3741 49.0902 51.4871 49.0902 56.5425C49.09 61.598 44.9772 65.7108 39.9218 65.7108Z" fill="#F7A90B"/>
<path d="M44.6239 53.056L42.6619 52.771L41.7845 50.993C41.4319 50.2788 40.7182 49.8351 39.9217 49.8351C39.1252 49.8351 38.4115 50.2788 38.0589 50.993L37.1814 52.771L35.2193 53.056C34.4312 53.1705 33.7887 53.7123 33.5424 54.4698C33.2964 55.2272 33.4978 56.0431 34.0681 56.5992L35.4878 57.983L35.1526 59.9371C35.0179 60.722 35.3346 61.5004 35.9788 61.9688C36.6232 62.4369 37.4613 62.4975 38.1666 62.127L39.9215 61.2044L41.6764 62.127C41.9831 62.2881 42.3148 62.3679 42.645 62.3677C43.0739 62.3677 43.5001 62.2333 43.8642 61.9688C44.5085 61.5006 44.8252 60.7221 44.6905 59.9373L44.3553 57.9831L45.775 56.5993C46.3454 56.0434 46.5467 55.2275 46.3006 54.4699C46.0547 53.7125 45.4122 53.1707 44.6239 53.056ZM42.6132 56.4004C42.1234 56.8778 41.9001 57.5653 42.0157 58.2391L42.2818 59.7907L40.8887 59.0583C40.586 58.899 40.2539 58.8194 39.9218 58.8194C39.5898 58.8194 39.2579 58.899 38.9553 59.0581L37.5619 59.7907L37.828 58.2392C37.9436 57.5651 37.7202 56.8778 37.2306 56.4006L36.1034 55.3018L37.6614 55.0755C38.338 54.9771 38.9225 54.5523 39.2252 53.9391L39.9218 52.5276L40.6185 53.9391C40.9211 54.5523 41.5058 54.9769 42.1826 55.0755L43.7405 55.3018L42.6132 56.4004Z" fill="#F7A90B"/>
<path d="M58.081 65.4572H62.3905C62.8844 65.4572 63.3486 65.2648 63.6978 64.9155L64.9958 63.6176C65.3449 63.2684 65.5374 62.804 65.5374 62.3103V8.0254C65.5374 7.53155 65.3451 7.06729 64.9958 6.71801L63.5181 5.24036C63.169 4.89123 62.7046 4.69873 62.2107 4.69873H17.6325C17.1386 4.69873 16.6744 4.89107 16.3251 5.24036L15.0041 6.56138C14.655 6.91051 14.4625 7.37491 14.4625 7.86877V62.4669C14.4625 62.9606 14.6548 63.4251 15.0041 63.7742L16.1455 64.9155C16.4946 65.2647 16.9588 65.4572 17.4527 65.4572H21.7622C22.411 65.4572 22.9369 64.9312 22.9369 64.2824C22.9369 63.6337 22.411 63.1077 21.7622 63.1077H17.6601L16.8119 62.2596V8.07615L17.8399 7.04834H62.0037L63.1881 8.23278V62.1029L62.1833 63.1077H58.0812C57.4324 63.1077 56.9064 63.6337 56.9064 64.2824C56.9064 64.9312 57.4323 65.4572 58.081 65.4572Z" fill="#284C68"/>
<path d="M24.5792 21.6123H55.1076C56.4768 21.6123 57.5908 20.4983 57.5908 19.1291V13.8043C57.5908 12.435 56.4768 11.321 55.1076 11.321H24.5792C23.21 11.321 22.096 12.435 22.096 13.8043V19.1291C22.096 20.4983 23.21 21.6123 24.5792 21.6123ZM24.4455 13.8043C24.4455 13.7305 24.5055 13.6705 24.5792 13.6705H55.1076C55.1813 13.6705 55.2413 13.7305 55.2413 13.8043V19.1291C55.2413 19.2028 55.1813 19.2628 55.1076 19.2628H24.5792C24.5055 19.2628 24.4455 19.2028 24.4455 19.1291V13.8043Z" fill="#284C68"/>
<path d="M23.2707 26.8285H56.4162C57.065 26.8285 57.5909 26.3025 57.5909 25.6537C57.5909 25.005 57.065 24.479 56.4162 24.479H23.2707C22.622 24.479 22.096 25.005 22.096 25.6537C22.096 26.3025 22.6218 26.8285 23.2707 26.8285Z" fill="#284C68"/>
<path d="M23.2707 32.6963H56.4162C57.065 32.6963 57.5909 32.1703 57.5909 31.5215C57.5909 30.8728 57.065 30.3468 56.4162 30.3468H23.2707C22.622 30.3468 22.096 30.8728 22.096 31.5215C22.096 32.1703 22.6218 32.6963 23.2707 32.6963Z" fill="#284C68"/>
<path d="M23.2707 38.5639H56.4162C57.065 38.5639 57.5909 38.038 57.5909 37.3892C57.5909 36.7404 57.065 36.2145 56.4162 36.2145H23.2707C22.622 36.2145 22.096 36.7404 22.096 37.3892C22.096 38.038 22.6218 38.5639 23.2707 38.5639Z" fill="#284C68"/>
</g>
<defs>
<clipPath id="clip0_1_456">
<rect width="80" height="80" fill="white"/>
</clipPath>
</defs>
</svg>
