<svg width="80" height="80" viewBox="0 0 80 80" fill="none" xmlns="http://www.w3.org/2000/svg">
<g clip-path="url(#clip0_1_471)">
<path d="M20.5972 17.0839C19.0969 15.5333 17.0296 14.6604 14.8719 14.6666H14.4612C12.3057 14.6623 10.2414 15.5349 8.74257 17.0839C7.33258 18.5336 6.58391 20.5011 6.67325 22.5213L6.82925 26.1106C7.06558 30.2179 10.5024 33.4059 14.6159 33.3332H14.7172C18.8307 33.4059 22.2675 30.2179 22.5039 26.1106L22.6665 22.5213C22.7559 20.5011 22.0072 18.5336 20.5972 17.0839ZM19.8399 25.9999C19.6592 28.6771 17.3996 30.7356 14.7172 30.6666H14.6159C11.9336 30.7356 9.6739 28.6771 9.49324 25.9999L9.44657 24.9106C11.9882 24.7974 14.4287 23.8816 16.4172 22.2946C17.2372 23.5072 18.475 24.3754 19.8945 24.7332L19.8399 25.9999ZM18.1679 19.6973C18.0937 19.1286 17.6641 18.6711 17.1012 18.5613C16.5404 18.4453 15.9687 18.7036 15.6852 19.2013C15.6679 19.2293 14.0132 21.8466 9.34391 22.2466C9.33241 21.0113 9.80757 19.8211 10.6666 18.9333C11.6621 17.9074 13.0317 17.3299 14.4612 17.3333H14.8719C16.3014 17.3299 17.6711 17.9074 18.6665 18.9333C19.4444 19.7438 19.906 20.8063 19.9679 21.9279C19.0452 21.5156 18.3759 20.6863 18.1679 19.6973Z" fill="#284C68"/>
<path d="M72.5972 49.0839C71.0969 47.5332 69.0295 46.6604 66.8719 46.6665H66.4612C64.3057 46.6622 62.2414 47.5349 60.7426 49.0839C59.3326 50.5335 58.5837 52.501 58.6732 54.5212L58.8292 58.1105C59.0656 62.2178 62.5024 65.4058 66.6159 65.3332H66.7172C70.8307 65.4058 74.2675 62.2178 74.5039 58.1105L74.6665 54.5212C74.7559 52.501 74.0072 50.5335 72.5972 49.0839ZM71.9999 54.4132L71.8399 57.9998C71.6592 60.677 69.3995 62.7355 66.7172 62.6665H66.6159C63.9336 62.7355 61.6739 60.677 61.4932 57.9998L61.3332 54.4065C61.2817 53.1147 61.7639 51.8587 62.6666 50.9332C63.6621 49.9074 65.0317 49.3299 66.4612 49.3332H66.8719C68.3014 49.3299 69.671 49.9074 70.6665 50.9332C71.5709 51.8604 72.0532 53.1192 71.9999 54.4132Z" fill="#284C68"/>
<path d="M41.1889 19.3906C39.7582 18.0068 37.4879 18.0068 36.0572 19.3906L21.1719 34.2759C20.9216 34.5262 20.582 34.6669 20.228 34.6666H6.66665C2.98666 34.6709 0.00433332 37.6532 0 41.3332V59.9998C0 62.209 1.79083 63.9998 3.99999 63.9998C4.45416 63.9998 4.90499 63.9227 5.33332 63.7718V65.3332C5.33332 66.0695 5.93032 66.6665 6.66665 66.6665H22.6666C23.4029 66.6665 23.9999 66.0695 23.9999 65.3332V43.7145C23.9998 43.3772 24.1274 43.0522 24.3573 42.8052L41.2759 24.6093C42.6931 23.1443 42.6541 20.8078 41.1889 19.3906ZM39.3717 22.7448C39.3669 22.7494 39.3621 22.7541 39.3572 22.7586L22.3999 40.9906C21.7133 41.7314 21.3321 42.7044 21.3333 43.7145V63.9998H7.99998V43.9999C7.99998 43.2635 7.40298 42.6665 6.66665 42.6665C5.93032 42.6665 5.33332 43.2635 5.33332 43.9999V59.9998C5.33332 60.7362 4.73632 61.3332 3.99999 61.3332C3.26366 61.3332 2.66666 60.7362 2.66666 59.9998V41.3332C2.66666 39.1241 4.45749 37.3332 6.66665 37.3332H20.228C21.2898 37.3366 22.3088 36.9146 23.0573 36.1612L37.9426 21.2759C38.3484 20.8909 38.9847 20.8909 39.3906 21.2759C39.7909 21.6868 39.7826 22.3444 39.3717 22.7448Z" fill="#284C68"/>
<path d="M14.6666 38.6666C13.9303 38.6666 13.3333 39.2636 13.3333 39.9999V55.9999C13.3333 56.7362 13.9303 57.3332 14.6666 57.3332C15.403 57.3332 16 56.7362 16 55.9999V39.9999C16 39.2636 15.403 38.6666 14.6666 38.6666Z" fill="#284C68"/>
<path d="M43.2572 49.0839C41.7584 47.5349 39.6941 46.6622 37.5386 46.6666H37.1279C34.9724 46.6622 32.9081 47.5349 31.4093 49.0839C29.9993 50.5336 29.2504 52.5011 29.3399 54.5212L29.4959 58.1105C29.7323 62.2179 33.1691 65.4059 37.2826 65.3332H37.3839C41.4974 65.4059 44.9342 62.2179 45.1706 58.1105L45.3266 54.5212C45.4161 52.5011 44.6672 50.5336 43.2572 49.0839ZM42.6666 54.4132L42.5066 57.9999C42.3259 60.677 40.0662 62.7355 37.3839 62.6665H37.2826C34.6003 62.7355 32.3406 60.677 32.1599 57.9999L31.9999 54.4066C31.9484 53.1147 32.4306 51.8587 33.3333 50.9332C34.3288 49.9074 35.6984 49.3299 37.1279 49.3332H37.5386C38.9681 49.3299 40.3377 49.9074 41.3332 50.9332C42.2376 51.8604 42.7199 53.1192 42.6666 54.4132Z" fill="#284C68"/>
<path d="M44.2226 66.6665H30.4439C26.8866 66.6702 24.0036 69.5532 23.9999 73.1105V78.6665C23.9999 79.4028 24.5969 79.9998 25.3333 79.9998C26.0696 79.9998 26.6666 79.4028 26.6666 78.6665V73.1105C26.6688 71.0252 28.3588 69.3353 30.4439 69.3332H44.2226C46.3079 69.3353 47.9977 71.0252 47.9999 73.1105V78.6665C47.9999 79.4028 48.5969 79.9998 49.3332 79.9998C50.0696 79.9998 50.6666 79.4028 50.6666 78.6665V73.1105C50.6629 69.5532 47.7799 66.6702 44.2226 66.6665Z" fill="#284C68"/>
<path d="M73.5558 66.6665H59.7772C56.2199 66.6702 53.3369 69.5532 53.3332 73.1105V78.6665C53.3332 79.4028 53.9302 79.9998 54.6666 79.9998C55.4029 79.9998 55.9999 79.4028 55.9999 78.6665V73.1105C56.002 71.0252 57.692 69.3353 59.7772 69.3332H73.5558C75.6412 69.3353 77.331 71.0252 77.3332 73.1105V78.6665C77.3332 79.4028 77.9302 79.9998 78.6665 79.9998C79.4028 79.9998 79.9998 79.4028 79.9998 78.6665V73.1105C79.9962 69.5532 77.1132 66.6702 73.5558 66.6665Z" fill="#284C68"/>
<path d="M76.0664 0H29.2665C27.077 0.0213333 25.3177 1.8105 25.3332 3.99999V23.9999C25.3332 24.7363 25.9302 25.3333 26.6665 25.3333C27.4028 25.3333 27.9998 24.7363 27.9998 23.9999V7.99998H77.3331V39.9999C77.3502 40.7174 76.7839 41.3136 76.0664 41.3332H30.5665C29.8302 41.3332 29.2332 41.9302 29.2332 42.6666C29.2332 43.4029 29.8302 43.9999 30.5665 43.9999H76.0664C78.2559 43.9786 80.0152 42.1894 79.9997 39.9999V3.99999C80.0152 1.8105 78.2559 0.0213333 76.0664 0ZM77.3331 5.33332H27.9998V3.99999C27.9827 3.28249 28.549 2.68633 29.2665 2.66666H76.0664C76.7839 2.68633 77.3502 3.28249 77.3331 3.99999V5.33332Z" fill="#284C68"/>
<path d="M47.9999 10.6666H31.9999C31.2636 10.6666 30.6666 11.2636 30.6666 12C30.6666 12.7363 31.2636 13.3333 31.9999 13.3333H47.9999C48.7362 13.3333 49.3332 12.7363 49.3332 12C49.3332 11.2636 48.7362 10.6666 47.9999 10.6666Z" fill="#F7A90B"/>
<path fill-rule="evenodd" clip-rule="evenodd" d="M59.4017 36.0076L71.7598 23.6495C72.3346 23.0747 72.299 22.107 71.6803 21.4883C71.0616 20.8696 70.0939 20.8341 69.5191 21.4089L57.9982 32.9298L52.3938 27.3254C52.0597 26.9913 51.2872 27.2221 50.6685 27.8408C50.0498 28.4595 49.819 29.232 50.1531 29.5661L57.4127 36.8257C57.7468 37.1597 58.5193 36.929 59.138 36.3103C59.2358 36.2125 59.324 36.1108 59.4017 36.0076Z" fill="#F7A90B"/>
<path d="M55.9999 10.6666H53.3332C52.5969 10.6666 51.9999 11.2636 51.9999 12C51.9999 12.7363 52.5969 13.3333 53.3332 13.3333H55.9999C56.7362 13.3333 57.3332 12.7363 57.3332 12C57.3332 11.2636 56.7362 10.6666 55.9999 10.6666Z" fill="#F7A90B"/>
</g>
<defs>
<clipPath id="clip0_1_471">
<rect width="80" height="80" fill="white"/>
</clipPath>
</defs>
</svg>
