<svg width="80" height="80" viewBox="0 0 80 80" fill="none" xmlns="http://www.w3.org/2000/svg">
<g clip-path="url(#clip0_1_522)">
<path d="M11.8461 3.60901H1.23077C0.551384 3.60901 0 4.15237 0 4.82457C0 5.498 0.551384 6.04014 1.23077 6.04014H11.8461C12.5255 6.04014 13.0769 5.498 13.0769 4.82457C13.0769 4.15237 12.5255 3.60901 11.8461 3.60901Z" fill="#F7A90B"/>
<path d="M11.8461 72.7443H1.23077C0.551384 72.7443 0 73.2876 0 73.9598C0 74.6345 0.551384 75.1754 1.23077 75.1754H11.8461C12.5255 75.1754 13.0769 74.6345 13.0769 73.9598C13.0769 73.2888 12.5255 72.7443 11.8461 72.7443Z" fill="#F7A90B"/>
<path d="M3.17789 66.7175C2.69666 66.2386 1.91881 66.2386 1.43758 66.7175C0.956353 67.194 0.956353 67.9586 1.43758 68.4363L5.39943 72.3505C5.63943 72.5863 5.9545 72.7066 6.26958 72.7066C6.58466 72.7066 6.90097 72.5863 7.13973 72.3505L7.40804 72.083C7.40927 72.083 7.40927 72.083 7.41173 72.0806L11.0647 68.4704C11.5459 67.9951 11.5459 67.2293 11.0647 66.754C10.5822 66.2763 9.80558 66.2763 9.32435 66.754L7.77112 68.2893V10.494L9.49543 12.1982C9.73543 12.4353 10.0505 12.5544 10.3656 12.5544C10.6807 12.5544 10.9957 12.4353 11.2357 12.1982C11.717 11.7217 11.717 10.9547 11.2357 10.4794L7.40927 6.70022C7.29604 6.58717 7.16066 6.49843 7.00927 6.43644C6.70897 6.31367 6.36804 6.31367 6.06773 6.43644C5.91635 6.49843 5.7822 6.58717 5.66774 6.70022L1.55204 10.7651C1.07081 11.2404 1.07081 12.0074 1.55204 12.4827C1.79204 12.7197 2.10712 12.84 2.4222 12.84C2.73727 12.84 3.05358 12.7197 3.29235 12.4827L5.30835 10.4928V68.8193L3.17789 66.7175Z" fill="#F7A90B"/>
<path d="M45.3846 66.145V63.021H50.9231C51.6037 63.021 52.1539 62.4801 52.1539 61.8054C52.1539 61.1332 51.6037 60.5898 50.9231 60.5898H45.3846V45.2421H55.5385V53.4472C55.5385 54.1218 56.0911 54.6628 56.7692 54.6628C57.4498 54.6628 58 54.1218 58 53.4472V4.82457C58 4.15237 57.4498 3.60901 56.7692 3.60901H17.2308C16.5514 3.60901 16 4.15237 16 4.82457V73.9599C16 74.6345 16.5514 75.1754 17.2308 75.1754H29.8462C30.5255 75.1754 31.0769 74.6345 31.0769 73.9599V63.0198H42.9231V66.1438C42.9231 66.8184 43.4757 67.3593 44.1539 67.3593C44.8332 67.3605 45.3846 66.8184 45.3846 66.145ZM45.3846 42.811V25.945H55.5385V42.811H45.3846ZM55.5385 23.5139H45.3846V6.04014H55.5385V23.5139ZM42.9231 23.5139H31.0769V6.04014H42.9231V23.5139ZM28.6154 23.5139H18.4616V6.04014H28.6154V23.5139ZM18.4616 45.2421H28.6154V60.5886H18.4616V45.2421ZM18.4616 42.811V25.945H28.6154V42.811H18.4616ZM31.0769 25.945H42.9231V42.811H31.0769V25.945ZM28.6154 72.7443H18.4616V63.0198H28.6154V72.7443ZM31.0769 60.5886V45.2421H42.9231V60.5886H31.0769Z" fill="#284C68"/>
<path d="M79.2488 40.5512C78.9522 40.426 78.6155 40.426 78.3165 40.5512C78.1669 40.6132 78.0357 40.7008 77.9238 40.815L44.4204 74.316C44.3062 74.429 44.2186 74.5628 44.1542 74.7123C44.0314 75.0077 44.0314 75.3456 44.1542 75.641C44.2806 75.9376 44.5152 76.1734 44.8118 76.2986C44.9613 76.3618 45.1182 76.391 45.2774 76.391H78.7832C79.453 76.391 79.9988 75.8488 79.9988 75.1754V41.672C79.9988 41.5152 79.966 41.3559 79.904 41.2089C79.7836 40.9098 79.5454 40.674 79.2488 40.5512ZM77.5677 44.6064V73.9586H48.2142L77.5677 44.6064Z" fill="#284C68"/>
<path d="M72.9339 57.106C72.9339 56.9455 72.9011 56.7887 72.8415 56.6392C72.7175 56.3426 72.4805 56.1068 72.1839 55.9816C71.8873 55.8564 71.5518 55.8564 71.2552 55.9816C71.1057 56.0448 70.9708 56.1335 70.8589 56.2466L60.7612 66.3443C60.6458 66.4586 60.5595 66.591 60.4962 66.7406C60.3698 67.0372 60.3698 67.3739 60.4962 67.6717C60.619 67.9659 60.856 68.2041 61.1539 68.3293C61.2985 68.3913 61.4614 68.4193 61.6182 68.4193H71.7183C72.3881 68.4193 72.9339 67.8808 72.9339 67.2037C72.9339 67.0165 72.8792 66.8354 72.799 66.6725C72.8792 66.5108 72.9339 66.337 72.9339 66.1425V57.106ZM70.5028 65.9881H64.555L70.5028 60.0367V65.9881Z" fill="#284C68"/>
</g>
<defs>
<clipPath id="clip0_1_522">
<rect width="79.9988" height="80" fill="white"/>
</clipPath>
</defs>
</svg>
