<svg width="80" height="80" viewBox="0 0 80 80" fill="none" xmlns="http://www.w3.org/2000/svg">
<path d="M45.7812 35.625C53.1908 35.625 59.2188 29.5969 59.2188 22.1875C59.2188 14.7781 53.1908 8.75 45.7812 8.75C38.3717 8.75 32.3438 14.7781 32.3438 22.1875C32.3438 29.5969 38.3717 35.625 45.7812 35.625ZM45.7812 11.875C51.4677 11.875 56.0938 16.5011 56.0938 22.1875C56.0938 27.8739 51.4677 32.5 45.7812 32.5C40.0948 32.5 35.4688 27.8739 35.4688 22.1875C35.4688 16.5011 40.0948 11.875 45.7812 11.875Z" fill="#F7A90B"/>
<path d="M45.7847 26.9034C44.7508 26.9034 43.9097 26.2048 43.9097 25.3462C43.9097 24.4832 43.21 23.7837 42.3472 23.7837C41.4844 23.7837 40.7847 24.4832 40.7847 25.3462C40.7847 27.4176 42.2291 29.1779 44.2238 29.7935C44.2399 30.6426 44.9319 31.3262 45.7847 31.3262C46.6375 31.3262 47.3296 30.6426 47.3456 29.7935C49.3403 29.1779 50.7847 27.4176 50.7847 25.3462C50.7847 22.7645 48.5417 20.664 45.7847 20.664C44.7508 20.664 43.9097 19.9654 43.9097 19.1068C43.9097 18.2481 44.7508 17.5496 45.7847 17.5496C46.8186 17.5496 47.6597 18.2482 47.6597 19.1068C47.6597 19.9698 48.3594 20.6693 49.2222 20.6693C50.085 20.6693 50.7847 19.9698 50.7847 19.1068C50.7847 17.036 49.3411 15.276 47.3472 14.6599V14.5699C47.3472 13.707 46.6475 13.0074 45.7847 13.0074C44.9219 13.0074 44.2222 13.707 44.2222 14.5699V14.6599C42.2283 15.2759 40.7847 17.0359 40.7847 19.1068C40.7847 21.6885 43.0277 23.789 45.7847 23.789C46.8186 23.789 47.6597 24.4876 47.6597 25.3462C47.6597 26.2048 46.8188 26.9034 45.7847 26.9034Z" fill="#F7A90B"/>
<path d="M67.4874 23.75C68.3502 23.75 69.0499 23.0505 69.0499 22.1875C69.0499 21.3245 68.3502 20.625 67.4874 20.625H63.4627C62.5999 20.625 61.9002 21.3245 61.9002 22.1875C61.9002 23.0505 62.5999 23.75 63.4627 23.75H67.4874Z" fill="#284C68"/>
<path d="M24.0749 20.625C23.2121 20.625 22.5124 21.3245 22.5124 22.1875C22.5124 23.0505 23.2121 23.75 24.0749 23.75H28.0996C28.9624 23.75 29.6621 23.0505 29.6621 22.1875C29.6621 21.3245 28.9624 20.625 28.0996 20.625H24.0749Z" fill="#284C68"/>
<path d="M34.0072 54.7042C34.0072 55.567 34.7069 56.2667 35.5697 56.2667H36.8392C37.702 56.2667 38.4017 55.567 38.4017 54.7042C38.4017 53.8414 37.702 53.1417 36.8392 53.1417H35.5697C34.7067 53.1417 34.0072 53.8414 34.0072 54.7042Z" fill="#284C68"/>
<path d="M8.80531 53.1083H7.53578C6.67297 53.1083 5.97328 53.808 5.97328 54.6708C5.97328 55.5336 6.67297 56.2333 7.53578 56.2333H8.80531C9.66812 56.2333 10.3678 55.5336 10.3678 54.6708C10.3678 53.808 9.66828 53.1083 8.80531 53.1083Z" fill="#284C68"/>
<path d="M22.2043 42.8678C23.0671 42.8678 23.7668 42.1681 23.7668 41.3053V40.0358C23.7668 39.1728 23.0671 38.4733 22.2043 38.4733C21.3415 38.4733 20.6418 39.1728 20.6418 40.0358V41.3053C20.6418 42.1683 21.3415 42.8678 22.2043 42.8678Z" fill="#284C68"/>
<path d="M22.1707 66.5072C21.3079 66.5072 20.6082 67.2069 20.6082 68.0697V69.3392C20.6082 70.202 21.3079 70.9017 22.1707 70.9017C23.0335 70.9017 23.7332 70.202 23.7332 69.3392V68.0697C23.7332 67.2067 23.0335 66.5072 22.1707 66.5072Z" fill="#284C68"/>
<path d="M29.1619 55.732L23.166 53.3921L17.0393 45.3199C16.5174 44.6325 15.5374 44.4981 14.8499 45.0199C14.1624 45.5416 14.0282 46.5217 14.5499 47.2092L20.9429 55.6322C21.1169 55.8616 21.3511 56.0385 21.6194 56.1431L28.0257 58.6431C28.2124 58.7161 28.4044 58.7506 28.5933 58.7506C29.2183 58.7506 29.8085 58.373 30.0493 57.7558C30.363 56.9516 29.9657 56.0456 29.1619 55.732Z" fill="#284C68"/>
<path d="M78.4375 3.125H39.7917C38.9289 3.125 38.2292 3.82453 38.2292 4.6875C38.2292 5.55047 38.9289 6.25 39.7917 6.25H68.5605C69.2327 10.515 72.61 13.8925 76.875 14.5647V29.8105C72.61 30.4827 69.2325 33.86 68.5605 38.1252H37.1875C37.1084 38.1252 37.0312 38.133 36.9553 38.1442C33.0298 34.6362 27.8538 32.5 22.1875 32.5C19.5564 32.5 17.0312 32.9614 14.6875 33.8058V14.5647C18.9525 13.8925 22.33 10.5152 23.002 6.25H27.2917C28.1545 6.25 28.8542 5.55047 28.8542 4.6875C28.8542 3.82453 28.1545 3.125 27.2917 3.125H13.125C12.2622 3.125 11.5625 3.82453 11.5625 4.6875V10.3216H5.625C4.76219 10.3216 4.0625 11.0211 4.0625 11.8841V41.7189C4.0625 41.7769 4.06625 41.8339 4.07234 41.8903C1.50859 45.5089 0 49.9252 0 54.6875C0 66.9217 9.95328 76.875 22.1875 76.875C34.4217 76.875 44.375 66.9217 44.375 54.6875C44.375 49.6403 42.6797 44.982 39.8303 41.25H71.2502V45.625H54.0097C53.1469 45.625 52.4472 46.3247 52.4472 47.1875C52.4472 48.0503 53.1469 48.75 54.0097 48.75H72.8127C73.6755 48.75 74.3752 48.0503 74.3752 47.1875V41.25H78.4375C79.3003 41.25 80 40.5503 80 39.6875V4.6875C80 3.82453 79.3003 3.125 78.4375 3.125ZM71.7438 6.25H76.875V11.3812C74.337 10.7889 72.3361 8.78797 71.7438 6.25ZM19.8187 6.25C19.2264 8.78797 17.2255 10.7889 14.6875 11.3812V6.25H19.8187ZM11.5625 13.4466V35.2142C9.97703 36.0828 8.50875 37.1397 7.1875 38.3541V13.4466H11.5625ZM22.1875 73.75C11.6764 73.75 3.125 65.1986 3.125 54.6875C3.125 44.1764 11.6764 35.625 22.1875 35.625C32.6986 35.625 41.25 44.1764 41.25 54.6875C41.25 65.1986 32.6986 73.75 22.1875 73.75ZM71.7438 38.125C72.3361 35.587 74.337 33.5861 76.875 32.9938V38.125H71.7438Z" fill="#284C68"/>
<path d="M47.7595 45.625C47.3485 45.625 46.9454 45.792 46.6548 46.0828C46.3641 46.3736 46.197 46.7766 46.197 47.1875C46.197 47.5984 46.364 48.0016 46.6548 48.292C46.9454 48.5827 47.3485 48.75 47.7595 48.75C48.1704 48.75 48.5735 48.5828 48.864 48.292C49.1546 48.0016 49.322 47.5984 49.322 47.1875C49.322 46.7766 49.1548 46.3734 48.864 46.0828C48.5735 45.792 48.172 45.625 47.7595 45.625Z" fill="#284C68"/>
<path d="M33.5423 6.25C33.9532 6.25 34.3563 6.08281 34.6469 5.79219C34.9374 5.50156 35.1048 5.09844 35.1048 4.6875C35.1048 4.27656 34.9376 3.87344 34.6469 3.58281C34.3563 3.29219 33.9532 3.125 33.5423 3.125C33.1298 3.125 32.7282 3.29219 32.4376 3.58281C32.1454 3.87344 31.9798 4.27656 31.9798 4.6875C31.9798 5.09844 32.1454 5.50156 32.4376 5.79219C32.7282 6.08281 33.1313 6.25 33.5423 6.25Z" fill="#284C68"/>
</svg>
