<svg width="80" height="80" viewBox="0 0 80 80" fill="none" xmlns="http://www.w3.org/2000/svg">
<g clip-path="url(#clip0_1_508)">
<path d="M67.966 43.8559C67.9594 41.18 67.3288 38.5502 66.1265 36.1629L68.888 33.4014C70.9583 31.3311 70.9583 27.9623 68.888 25.8919C67.8553 24.8592 66.4997 24.3419 65.1432 24.3394C65.1413 22.9238 64.5893 21.5934 63.5882 20.5921C62.555 19.559 61.1983 19.0415 59.841 19.0397C59.8391 17.6824 59.3216 16.3257 58.2883 15.2924C57.2877 14.2919 55.9581 13.7399 54.5436 13.7374C54.5409 12.3229 53.989 10.9933 52.9886 9.99266C51.9856 8.98971 50.6521 8.43738 49.2338 8.43738C47.8156 8.43738 46.482 8.98971 45.4792 9.99266L40.0018 15.4701L36.9541 12.4221C35.9511 11.4192 34.6177 10.8669 33.1993 10.8669C31.7809 10.8669 30.4475 11.4192 29.4447 12.4221C28.4435 13.4234 27.8916 14.7538 27.8896 16.1694C26.5332 16.1719 25.1774 16.6892 24.1448 17.7219C23.1442 18.7225 22.5923 20.052 22.5897 21.4667C21.1752 21.4693 19.8455 22.0212 18.8449 23.0218C17.1352 24.7314 16.839 27.3259 17.9529 29.3442C17.1857 29.5949 16.4643 30.0232 15.8556 30.6319C13.7853 32.7024 13.7853 36.071 15.8556 38.1415L18.0672 40.3532L0.49603 57.9244C-0.114114 58.5345 -0.114114 59.5239 0.49603 60.1342C0.80118 60.4392 1.20102 60.5918 1.60085 60.5918C2.00069 60.5918 2.40068 60.4392 2.70567 60.1342L14.617 48.2228L25.7751 59.3809L7.90292 77.253C7.29277 77.8632 7.29277 78.8525 7.90292 79.4628C8.20807 79.7678 8.6079 79.9205 9.00774 79.9205C9.40757 79.9205 9.80757 79.7678 10.1126 79.4628L34.269 55.3064C34.714 54.8615 35.2205 54.5008 35.7686 54.2296L39.5492 56.7197C42.0496 58.3665 45.0981 59.01 48.0373 58.534L69.0458 79.5425C69.3509 79.8475 69.7508 80.0002 70.1506 80.0002C70.5504 80.0002 70.9504 79.8475 71.2554 79.5425C71.8656 78.9324 71.8656 77.943 71.2554 77.3327L59.066 65.1433L60.5395 63.6697C61.1497 63.0596 61.1497 62.0702 60.5395 61.4599C59.9294 60.8499 58.94 60.8499 58.3297 61.4599L56.8562 62.9335L53.4061 59.4834L66.2899 46.5994L69.7402 50.0497L68.2699 51.52C67.6597 52.1303 67.6597 53.1195 68.2699 53.7298C68.575 54.0348 68.9749 54.1874 69.3747 54.1874C69.7745 54.1874 70.1745 54.0348 70.4795 53.7298L71.9498 52.2595L77.3317 57.6414C77.6369 57.9464 78.0367 58.099 78.4365 58.099C78.8364 58.099 79.2364 57.9464 79.5414 57.6414C80.1515 57.0313 80.1515 56.0419 79.5414 55.4316L67.966 43.8559ZM47.6889 12.2023C48.1015 11.7897 48.6502 11.5623 49.2338 11.5623C49.8174 11.5623 50.3661 11.7897 50.7788 12.2023C51.1916 12.615 51.4188 13.1637 51.4188 13.7473C51.4188 14.331 51.1914 14.8798 50.7788 15.2924L47.3453 18.7259C46.7351 19.3361 46.7351 20.3254 47.3453 20.9357C47.9554 21.546 48.9448 21.5459 49.5551 20.9357L52.9886 17.5022C53.4012 17.0894 53.95 16.8622 54.5337 16.8622C55.1173 16.8622 55.666 17.0896 56.0787 17.5022C56.9307 18.3542 56.9307 19.7403 56.0787 20.5923L50.8357 25.8353C50.2255 26.4455 50.2255 27.4348 50.8357 28.0451C51.1408 28.3503 51.5407 28.5028 51.9405 28.5028C52.3403 28.5028 52.7403 28.3503 53.0453 28.0451L58.2883 22.8021C58.701 22.3893 59.2497 22.1621 59.8333 22.1621C60.417 22.1621 60.9658 22.3894 61.3784 22.8021C61.7911 23.2147 62.0184 23.7635 62.0184 24.3471C62.0184 24.9306 61.7911 25.4794 61.3784 25.892L56.1354 31.1351C55.5253 31.7452 55.5253 32.7346 56.1354 33.3449C56.4406 33.65 56.8404 33.8025 57.2402 33.8025C57.6401 33.8025 58.0401 33.65 58.3451 33.3449L63.5879 28.1018C64.4398 27.2498 65.8262 27.25 66.678 28.1018C67.53 28.9538 67.53 30.3401 66.678 31.1919L53.7633 44.1067C49.6284 48.2417 44.1306 50.519 38.2826 50.519C36.6991 50.519 35.18 50.9361 33.8485 51.7153L24.8048 42.6715C25.5007 42.4087 26.1394 41.9998 26.6813 41.458C27.6825 40.4567 28.2344 39.1263 28.2364 37.7107C29.5928 37.7082 30.9486 37.1907 31.9812 36.1581C33.0138 35.1254 33.5312 33.7698 33.5337 32.4133C34.9493 32.4114 36.2799 31.8594 37.2809 30.8582C38.3136 29.8255 38.8309 28.4699 38.8334 27.1134C40.249 27.1115 41.5794 26.5595 42.5805 25.5584C43.5835 24.5555 44.1358 23.2221 44.1358 21.8037C44.1358 20.3853 43.5835 19.0519 42.5805 18.0489L42.211 17.6794L47.6889 12.2023ZM31.6543 14.6318C32.067 14.2191 32.6157 13.9918 33.1993 13.9918C33.7829 13.9918 34.3316 14.2191 34.7443 14.6318L40.3713 20.2587C40.784 20.6714 41.0113 21.2201 41.0113 21.8037C41.0113 22.3873 40.784 22.936 40.3713 23.3488C39.9587 23.7614 39.41 23.9888 38.8264 23.9888C38.2429 23.9888 37.6945 23.7616 37.2819 23.3493L31.6543 17.7217C31.2417 17.3091 31.0143 16.7603 31.0143 16.1768C31.0143 15.5932 31.2415 15.0446 31.6543 14.6318ZM26.3544 19.9315C26.7805 19.5054 27.3399 19.2926 27.8996 19.2926C28.4591 19.2926 29.0188 19.5056 29.4445 19.9315L35.0714 25.5584C35.9235 26.4105 35.9233 27.7967 35.0714 28.6487C34.6588 29.0613 34.1101 29.2887 33.5265 29.2887C32.9431 29.2887 32.3946 29.0615 31.982 28.6492L26.3546 23.0216C25.9418 22.609 25.7146 22.0602 25.7146 21.4765C25.7144 20.8929 25.9418 20.3443 26.3544 19.9315ZM21.0547 25.2314C21.4673 24.8186 22.0161 24.5914 22.5997 24.5914C23.1834 24.5914 23.7321 24.8188 24.1448 25.2314L29.7717 30.8583C30.6237 31.7104 30.6237 33.0966 29.7717 33.9484C28.9197 34.8003 27.5335 34.8004 26.6815 33.9484L21.0545 28.3215C20.2027 27.4697 20.2027 26.0833 21.0547 25.2314ZM18.0652 32.8416C18.4913 32.4155 19.0508 32.2027 19.6103 32.2027C20.1691 32.2027 20.7281 32.4153 21.1538 32.8402L24.4718 36.1582C24.8845 36.5709 25.1118 37.1196 25.1118 37.7032C25.1118 38.2868 24.8845 38.8355 24.4718 39.2483C24.0592 39.6611 23.5104 39.8883 22.9267 39.8883C22.3436 39.8883 21.7951 39.6613 21.3825 39.2491L21.3817 39.2483L18.0652 35.9318C17.2134 35.0797 17.2134 33.6934 18.0652 32.8416ZM16.8268 46.013L20.277 42.5628L31.4353 53.7209L27.985 57.1711L16.8268 46.013ZM49.6562 55.7333C49.2713 55.3486 48.7141 55.191 48.1854 55.3193C45.8206 55.8885 43.2994 55.4479 41.2682 54.1099L40.422 53.5524C46.2976 53.0581 51.756 50.5337 55.9732 46.3163L63.7709 38.5188C64.4417 40.1399 64.8035 41.8725 64.8368 43.6337L51.1968 57.2739L49.6562 55.7333Z" fill="#284C68"/>
<path d="M63.2981 56.4919C63.0075 56.7825 62.8403 57.1841 62.8403 57.5966C62.8403 58.0075 63.0075 58.4106 63.2981 58.7011C63.5887 58.9917 63.9919 59.1591 64.4028 59.1591C64.8153 59.1591 65.2169 58.9919 65.5075 58.7011C65.7981 58.4106 65.9653 58.0075 65.9653 57.5966C65.9653 57.1839 65.7981 56.7825 65.5075 56.4919C65.2169 56.2012 64.8137 56.0341 64.4028 56.0341C63.9919 56.0341 63.5887 56.2012 63.2981 56.4919Z" fill="#284C68"/>
<path d="M10.5567 12.7654C10.8618 13.0705 11.2617 13.223 11.6615 13.223C12.0613 13.223 12.4613 13.0705 12.7663 12.7654C13.3765 12.1552 13.3765 11.1659 12.7663 10.5556L5.41161 3.20089C4.80146 2.59075 3.81211 2.59075 3.20181 3.20089C2.59151 3.81104 2.59166 4.80039 3.20181 5.4107L10.5567 12.7654Z" fill="#F7A90B"/>
<path d="M19.063 8.51796C19.926 8.51796 20.6255 7.81844 20.6255 6.95549V1.56247C20.6255 0.699518 19.926 0 19.063 0C18.2001 0 17.5005 0.699518 17.5005 1.56247V6.95549C17.5005 7.81844 18.2001 8.51796 19.063 8.51796Z" fill="#F7A90B"/>
<path d="M1.56335 20.6246H6.95637C7.81933 20.6246 8.51884 19.9251 8.51884 19.0621C8.51884 18.1992 7.81933 17.4996 6.95637 17.4996H1.56335C0.700403 17.4996 0.00088501 18.1992 0.00088501 19.0621C0.00088501 19.9251 0.700403 20.6246 1.56335 20.6246Z" fill="#F7A90B"/>
<path d="M68.3388 13.223C68.7387 13.223 69.1387 13.0705 69.4437 12.7653L76.7984 5.41063C77.4085 4.80049 77.4085 3.81113 76.7984 3.20083C76.1882 2.59053 75.1989 2.59069 74.5886 3.20083L67.2339 10.5555C66.6237 11.1657 66.6237 12.155 67.2339 12.7653C67.5392 13.0705 67.939 13.223 68.3388 13.223Z" fill="#F7A90B"/>
<path d="M60.9372 8.51796C61.8002 8.51796 62.4997 7.81844 62.4997 6.95549V1.56247C62.4997 0.699518 61.8002 0 60.9372 0C60.0743 0 59.3748 0.699518 59.3748 1.56247V6.95549C59.3748 7.81844 60.0743 8.51796 60.9372 8.51796Z" fill="#F7A90B"/>
<path d="M71.4815 19.0621C71.4815 19.9251 72.181 20.6246 73.044 20.6246H78.437C79.2999 20.6246 79.9995 19.9251 79.9995 19.0621C79.9995 18.1992 79.2999 17.4996 78.437 17.4996H73.044C72.181 17.4996 71.4815 18.1992 71.4815 19.0621Z" fill="#F7A90B"/>
</g>
<defs>
<clipPath id="clip0_1_508">
<rect width="80" height="80" fill="white"/>
</clipPath>
</defs>
</svg>
