<svg width="80" height="80" viewBox="0 0 80 80" fill="none" xmlns="http://www.w3.org/2000/svg">
<path d="M47.0313 52.6564H45.625V34.3749C45.625 33.5982 44.9955 32.9686 44.2188 32.9686H32.9686C32.1919 32.9686 31.5624 33.5982 31.5624 34.3749V40C31.5624 40.7767 32.1919 41.4062 32.9686 41.4062H34.3749V52.6564H32.9686C32.1919 52.6564 31.5624 53.2859 31.5624 54.0626V59.6877C31.5624 60.4644 32.1919 61.094 32.9686 61.094H47.0313C47.808 61.094 48.4376 60.4644 48.4376 59.6877V54.0626C48.4376 53.2859 47.808 52.6564 47.0313 52.6564ZM45.625 58.2814H34.3749V55.4689H35.7812C36.5579 55.4689 37.1874 54.8394 37.1874 54.0626V40C37.1874 39.2232 36.5579 38.5937 35.7812 38.5937H34.3749V35.7812H42.8125V54.0626C42.8125 54.8394 43.4426 55.4689 44.2188 55.4689H45.625V58.2814Z" fill="#F7A90B"/>
<path d="M40 30.1561C43.1014 30.1561 45.625 27.6325 45.625 24.5311C45.625 21.4296 43.1014 18.906 40 18.906C36.8985 18.906 34.3749 21.4296 34.3749 24.5311C34.3749 27.6325 36.8985 30.1561 40 30.1561ZM40 21.7185C41.5507 21.7185 42.8125 22.9803 42.8125 24.5311C42.8125 26.0818 41.5507 27.3436 40 27.3436C38.4492 27.3436 37.1874 26.0818 37.1874 24.5311C37.1874 22.9803 38.4492 21.7185 40 21.7185Z" fill="#F7A90B"/>
<path d="M61.5232 23.8284C61.5232 24.5722 62.127 25.176 62.8708 25.176C63.6147 25.176 64.2185 24.5722 64.2185 23.8284C64.2185 23.0845 63.6147 22.4807 62.8708 22.4807C62.127 22.4807 61.5232 23.0845 61.5232 23.8284Z" fill="#284C68"/>
<path d="M66.9138 40C66.9138 41.7262 66.7406 43.4491 66.3995 45.121C66.2505 45.8501 66.7211 46.5619 67.4502 46.7108C67.5413 46.7298 67.6318 46.7387 67.7213 46.7387C68.3483 46.7387 68.91 46.2981 69.0405 45.6601C69.418 43.8108 69.609 41.9067 69.609 40C69.609 35.7565 68.6889 31.6731 66.8732 27.8629C66.5532 27.1911 65.7493 26.9058 65.0771 27.2259C64.4048 27.5459 64.12 28.3503 64.4401 29.0226C66.0815 32.4675 66.9138 36.1608 66.9138 40Z" fill="#284C68"/>
<path d="M40.4996 5.5C21.9053 5.5 6.00006 21.3753 6.00006 39.9995C6.00006 46.3613 7.82305 53.1269 10.8968 58.2442L6.06902 72.7255C5.90794 73.2093 6.03375 73.7436 6.39487 74.1042C6.75758 74.4669 7.29242 74.5906 7.7741 74.4295L22.2554 69.6023C27.3722 72.6766 34.1378 74.499 40.4996 74.499C59.0985 74.499 74.9991 58.6217 74.9991 39.9995C74.9991 21.4005 59.1222 5.5 40.4996 5.5V5.5ZM40.4996 71.8038C34.3968 71.8038 27.9102 70.0029 23.1477 66.9865C22.8103 66.7728 22.3896 66.7164 22.0001 66.8465L9.47865 71.0204L13.6526 58.499C13.7811 58.1147 13.7295 57.6936 13.5126 57.3514C10.4962 52.5894 8.69533 46.1023 8.69533 39.9995C8.69533 22.7598 23.2598 8.19527 40.4996 8.19527C57.7393 8.19527 72.3038 22.7598 72.3038 39.9995C72.3038 57.2393 57.7393 71.8038 40.4996 71.8038Z" fill="#284C68"/>
</svg>
