<svg width="80" height="80" viewBox="0 0 80 80" fill="none" xmlns="http://www.w3.org/2000/svg">
<path d="M31.3281 11.6719C30.5303 11.6719 29.8828 12.3194 29.8828 13.1172C29.8828 13.915 30.5303 14.5625 31.3281 14.5625C32.1259 14.5625 32.7734 13.915 32.7734 13.1172C32.7734 12.3194 32.1259 11.6719 31.3281 11.6719Z" fill="#F7A90B"/>
<path d="M40 23.2344C39.2031 23.2344 38.5547 22.586 38.5547 21.7891C38.5547 20.9921 39.2031 20.3438 40 20.3438C40.512 20.3438 41.0525 20.6049 41.5631 21.0992C42.1371 21.6544 43.0518 21.6392 43.6069 21.0657C44.1619 20.492 44.1469 19.577 43.5734 19.0219C42.8399 18.3121 42.106 17.9106 41.4453 17.6915V16.0078C41.4453 15.2096 40.7981 14.5625 40 14.5625C39.2019 14.5625 38.5547 15.2096 38.5547 16.0078V17.7017C36.8725 18.2983 35.6641 19.9048 35.6641 21.7891C35.6641 24.1799 37.6092 26.125 40 26.125C40.797 26.125 41.4453 26.7734 41.4453 27.5703C41.4453 28.3673 40.797 29.0156 40 29.0156C39.3826 29.0156 38.716 28.6273 38.1233 27.9222C37.6098 27.3112 36.6979 27.2324 36.087 27.7461C35.4759 28.2597 35.3971 29.1714 35.9107 29.7824C36.6833 30.7014 37.5918 31.3419 38.5547 31.6647V33.3516C38.5547 34.1498 39.2019 34.7969 40 34.7969C40.7981 34.7969 41.4453 34.1498 41.4453 33.3516V31.6577C43.1275 31.061 44.336 29.4546 44.336 27.5703C44.336 25.1795 42.3909 23.2344 40 23.2344Z" fill="#F7A90B"/>
<path d="M71.2188 24.1016C68.031 24.1016 65.4375 26.695 65.4375 29.8828V40.1836C63.5175 39.6891 61.3989 40.1997 59.9047 41.6938L50.2117 51.3867C48.8459 52.7507 48.0938 54.566 48.0938 56.4982V65.0039H46.6484C45.8503 65.0039 45.2031 65.651 45.2031 66.4492V75.5547C45.2031 76.3529 45.8503 77 46.6484 77H66.8828C67.6809 77 68.3281 76.3529 68.3281 75.5547V66.4492C68.3281 65.651 67.6809 65.0039 66.8828 65.0039H65.4375V64.3217C65.4375 63.9417 65.5919 63.5693 65.8613 63.3L74.8829 54.2784C76.2481 52.913 77 51.098 77 49.1676V29.8828C77 26.695 74.4065 24.1016 71.2188 24.1016ZM65.4375 74.1094H48.0938V67.8945H65.4375V74.1094ZM74.1094 49.1676C74.1094 50.3259 73.6581 51.4151 72.8388 52.2344L63.8172 61.2561C63.0098 62.0634 62.5469 63.1808 62.5469 64.3217V65.0039H50.9844V56.4982C50.9844 55.3388 51.4353 54.2499 52.2549 53.4314L61.9487 43.7377C63.0335 42.6527 64.7763 42.604 65.916 43.6267C65.9243 43.6339 65.9325 43.6413 65.9409 43.6484C65.9739 43.6766 66.0048 43.7069 66.036 43.7382C66.582 44.2838 66.8828 45.0093 66.8828 45.7812C66.8828 46.5532 66.582 47.2787 66.0357 47.8248L58.854 55.0065C58.2896 55.5709 58.2896 56.4861 58.854 57.0506C59.4185 57.615 60.3334 57.6152 60.8981 57.0506L68.0795 49.8693C69.1718 48.7775 69.7734 47.3259 69.7734 45.7812C69.7734 44.3591 69.2621 43.0161 68.3281 41.9598V29.8828C68.3281 28.2889 69.6249 26.9922 71.2188 26.9922C72.8126 26.9922 74.1094 28.2889 74.1094 29.8828V49.1676Z" fill="#284C68"/>
<path d="M33.3516 65.0039H31.9062V56.4982C31.9062 54.566 31.1541 52.7507 29.7892 51.3875L20.0954 41.6938C18.6011 40.1995 16.4825 39.689 14.5625 40.1836V29.8828C14.5625 26.695 11.969 24.1016 8.78125 24.1016C5.59347 24.1016 3 26.695 3 29.8828V49.1676C3 51.098 3.75185 52.913 5.11709 54.2784L14.1387 63.2999C14.4081 63.5693 14.5625 63.9416 14.5625 64.3217V65.0039H13.1172C12.3191 65.0039 11.6719 65.651 11.6719 66.4492V75.5547C11.6719 76.3529 12.3191 77 13.1172 77H33.3516C34.1497 77 34.7969 76.3529 34.7969 75.5547V66.4492C34.7969 65.651 34.1497 65.0039 33.3516 65.0039ZM7.1612 52.2346C6.34185 51.4151 5.89062 50.3259 5.89062 49.1676V29.8828C5.89062 28.2889 7.18736 26.9922 8.78125 26.9922C10.3751 26.9922 11.6719 28.2889 11.6719 29.8828V41.9597C10.7379 43.0159 10.2266 44.3588 10.2266 45.7812C10.2266 47.3259 10.8282 48.7775 11.9203 49.8687L19.1469 57.0953C19.7114 57.6597 20.6263 57.6597 21.191 57.0953C21.7554 56.5309 21.7554 55.6157 21.191 55.0512L13.964 47.8242C13.418 47.2787 13.1172 46.5532 13.1172 45.7812C13.1172 45.0093 13.418 44.2838 13.9636 43.7383C13.9951 43.7069 14.0261 43.6766 14.059 43.6484L14.0838 43.6267C15.2234 42.604 16.9663 42.6529 18.0512 43.7377L27.7456 53.432C28.5645 54.2499 29.0155 55.3387 29.0155 56.4981V65.0039H17.453V64.3217C17.4531 63.1808 16.9902 62.0634 16.1828 61.2561L7.1612 52.2346ZM31.9062 74.1094H14.5625V67.8945H31.9062V74.1094Z" fill="#284C68"/>
<path d="M40 3C28.0458 3 18.3203 12.7255 18.3203 24.6797C18.3203 36.6339 28.0458 46.3594 40 46.3594C51.9542 46.3594 61.6797 36.6339 61.6797 24.6797C61.6797 12.7255 51.9542 3 40 3ZM40 43.4688C29.6396 43.4688 21.2109 35.04 21.2109 24.6797C21.2109 14.3194 29.6396 5.89062 40 5.89062C50.3604 5.89062 58.7891 14.3194 58.7891 24.6797C58.7891 35.04 50.3604 43.4688 40 43.4688Z" fill="#284C68"/>
<path d="M49.9805 12.3033C46.2196 9.26673 41.2975 8.12146 36.4782 9.16049C35.6979 9.32873 35.2017 10.0976 35.3699 10.878C35.5382 11.6581 36.3072 12.1539 37.0874 11.9861C41.0489 11.1319 45.0865 12.0672 48.1647 14.5522C51.2425 17.0375 53.0078 20.7286 53.0078 24.6797C53.0078 31.8522 47.1725 37.6875 40 37.6875C32.8275 37.6875 26.9922 31.8522 26.9922 24.6797C26.9922 22.5372 27.5241 20.4134 28.5303 18.5383C28.9077 17.835 28.6435 16.9588 27.9402 16.5813C27.2367 16.2038 26.3604 16.4681 25.9832 17.1714C24.7522 19.4656 24.1016 22.0618 24.1016 24.6797C24.1016 33.4461 31.2336 40.5781 40 40.5781C48.7664 40.5781 55.8984 33.4461 55.8984 24.6797C55.8984 19.8508 53.7415 15.3398 49.9805 12.3033Z" fill="#F7A90B"/>
</svg>
