<svg width="80" height="80" viewBox="0 0 80 80" fill="none" xmlns="http://www.w3.org/2000/svg">
<g clip-path="url(#clip0_1_435)">
<path d="M78.0469 63.9375H76.4844V16.2938C76.4844 13.0628 73.8559 10.4344 70.625 10.4344H53.6981V8.06531C53.6981 3.61812 50.08 0 45.6328 0H34.3672C29.92 0 26.3019 3.61812 26.3019 8.06531V10.4344H9.375C6.14406 10.4344 3.51562 13.0628 3.51562 16.2938V63.9375H1.95312C0.876094 63.9375 0 64.8136 0 65.8906V71.2889C0 74.9894 3.01063 78 6.71109 78H73.2889C76.9894 78 80 74.9894 80 71.2889V65.8906C80 64.8136 79.1239 63.9375 78.0469 63.9375ZM53.6981 15.9513H54.0648C55.0491 15.9513 55.8497 16.7519 55.8497 17.7361C55.8497 18.7202 55.0491 19.5208 54.0648 19.5208H53.6981V15.9513ZM53.6981 21.8644H54.0648C56.4403 21.8661 58.3408 19.8352 58.1836 17.4656H69.4531V56.3955H66.5406V49.9422C66.5406 47.7345 65.7786 45.5711 64.395 43.8503C63.0112 42.1294 61.0614 40.9205 58.9045 40.4463L48.4047 38.1398C47.6273 37.9702 47.0863 37.2725 47.0859 36.5002V34.4852C51.0464 32.0814 53.6981 27.7277 53.6981 22.7661V21.8644ZM31.0922 40.65L32.0986 40.4289C33.0537 40.2189 33.8697 39.6669 34.4342 38.9223L38.2066 41.6942L35.795 44.1058L31.0922 40.65ZM35.733 46.62L35.1253 56.3955H15.8031V49.9422C15.8031 46.5047 18.2405 43.4738 21.5984 42.7353L28.0448 41.3194L34.7858 46.2728C35.073 46.4836 35.4016 46.598 35.733 46.62ZM44.7472 36.6155L40 40.1037L35.2528 36.6155C35.2577 36.518 35.2619 35.7222 35.258 35.6173C36.7363 36.1645 38.3339 36.4641 40.0002 36.4641C41.6664 36.4641 43.2639 36.1645 44.7423 35.6173C44.7403 35.7222 44.7416 36.5181 44.7472 36.6155ZM38.1797 45.0358L40 43.2155L41.8123 45.0278L42.4777 56.3955H37.4734L38.1797 45.0358ZM41.7936 41.6944L45.5659 38.9225C46.1305 39.667 46.9464 40.2191 47.9016 40.4291L48.9078 40.6502L44.205 44.1061L41.7936 41.6944ZM45.2145 46.2725L51.9552 41.3192L58.4014 42.7352C61.7595 43.4736 64.1969 46.5045 64.1969 49.942V56.3955H44.8256L44.2534 46.6203C44.5895 46.6006 44.9233 46.4864 45.2145 46.2725ZM28.6456 15.9117C30.3358 15.8192 32.0064 15.5753 33.6259 15.1836C34.255 15.0314 34.6417 14.3981 34.4895 13.7689C34.3372 13.1398 33.7042 12.7528 33.0748 12.9055C31.6348 13.2537 30.1495 13.4723 28.6455 13.562V8.06531C28.6456 4.91047 31.2123 2.34375 34.3672 2.34375H45.6328C48.7877 2.34375 51.3544 4.91047 51.3544 8.06531V13.1122C50.3855 12.6894 49.4777 12.1433 48.6456 11.4739C47.4959 10.5486 46.5358 9.42891 45.7925 8.14609C45.5311 7.69453 45.0861 7.38672 44.5716 7.30125C44.0578 7.21625 43.5373 7.36344 43.1447 7.70578C41.5744 9.07469 39.84 10.2283 37.9822 11.1388C37.4011 11.4234 37.1608 12.1255 37.4456 12.7067C37.7302 13.2877 38.432 13.5283 39.0136 13.2433C40.8461 12.3453 42.5578 11.2394 44.1403 9.93422C44.9688 11.2134 45.9875 12.3434 47.1763 13.2998C48.4361 14.3136 49.8384 15.0967 51.3544 15.6341V22.7661C51.3544 29.0269 46.2608 34.1205 40 34.1205C33.7392 34.1205 28.6456 29.0269 28.6456 22.7661V15.9117ZM32.9141 34.485V36.5C32.9131 37.2703 32.3681 37.9711 31.5955 38.1397L21.0953 40.4461C18.9386 40.9203 16.9889 42.1292 15.605 43.8502C14.2214 45.5711 13.4594 47.7344 13.4594 49.942V56.3955H10.5469V17.4656H21.8164C21.6567 19.8273 23.5558 21.8697 25.9352 21.8644H26.3019V22.7659C26.3019 27.7275 28.9536 32.0814 32.9141 34.485ZM24.1505 17.7361C24.1505 16.7519 24.9511 15.9513 25.9353 15.9513H26.302V19.5208H25.9353C24.9511 19.5206 24.1505 18.72 24.1505 17.7361ZM77.6562 71.2889C77.6562 73.697 75.697 75.6562 73.2889 75.6562H6.71109C4.30297 75.6562 2.34375 73.697 2.34375 71.2889V66.2812H32.1164V68.2344C32.1164 69.742 33.3431 70.9688 34.8508 70.9688H45.1492C46.6569 70.9688 47.8836 69.742 47.8836 68.2344V66.2812H59.1403C59.7877 66.2812 60.3122 65.7567 60.3122 65.1094C60.3122 64.462 59.7877 63.9375 59.1403 63.9375H5.85938V16.2938C5.85938 14.3553 7.43656 12.7781 9.375 12.7781H26.3019V13.6075H25.9352C24.6498 13.6075 23.5002 14.1981 22.7423 15.1219H10C9.00922 15.1219 8.20312 15.928 8.20312 16.9188V57.5673C8.20312 58.2147 8.72766 58.7392 9.375 58.7392H70.625C71.2723 58.7392 71.7969 58.2147 71.7969 57.5673V16.9188C71.7969 15.928 70.9908 15.1219 70 15.1219H57.2577C56.4998 14.198 55.3502 13.6075 54.0648 13.6075H53.6981V12.7781H70.625C72.5634 12.7781 74.1406 14.3553 74.1406 16.2938V63.9375H64.6091C63.9617 63.9375 63.4372 64.462 63.4372 65.1094C63.4372 65.7567 63.9617 66.2812 64.6091 66.2812H77.6562V71.2889ZM34.4602 68.2344V66.2812H45.5398V68.2344C45.5398 68.4498 45.3647 68.625 45.1492 68.625H34.8508C34.6353 68.625 34.4602 68.4498 34.4602 68.2344Z" fill="#284C68"/>
<path d="M39.946 29.9997C39.1019 29.9911 38.2634 29.7788 37.5213 29.3855C37.0494 29.1354 36.8767 28.5631 37.1354 28.1069C37.3942 27.651 37.9864 27.4836 38.4584 27.734C38.7862 27.9079 39.3315 28.1165 40.0001 28.1165C40.6769 28.1165 41.2108 27.9094 41.5414 27.7341C42.0136 27.4839 42.6057 27.6508 42.8645 28.1068C43.1233 28.5628 42.9508 29.1353 42.4789 29.3854C41.9446 29.6686 41.0251 30.0107 39.946 29.9997Z" fill="#F7A90B"/>
<path d="M35.9489 21.8844C35.9489 22.4046 35.5127 22.8261 34.9744 22.8261C34.4363 22.8261 34 22.4046 34 21.8844V19.9417C34 19.4215 34.4362 19 34.9744 19C35.5127 19 35.9489 19.4215 35.9489 19.9417V21.8844Z" fill="#F7A90B"/>
<path d="M46 21.8844C46 22.4046 45.5638 22.8261 45.0256 22.8261C44.4873 22.8261 44.0511 22.4046 44.0511 21.8844V19.9417C44.0511 19.4215 44.4873 19 45.0256 19C45.5638 19 46 19.4215 46 19.9417V21.8844Z" fill="#F7A90B"/>
<path d="M39.946 29.9997C39.1019 29.9911 38.2634 29.7788 37.5213 29.3855C37.0494 29.1354 36.8767 28.5631 37.1354 28.1069C37.3942 27.651 37.9864 27.4836 38.4584 27.734C38.7862 27.9079 39.3315 28.1165 40.0001 28.1165C40.6769 28.1165 41.2108 27.9094 41.5414 27.7341C42.0136 27.4839 42.6057 27.6508 42.8645 28.1068C43.1233 28.5628 42.9508 29.1353 42.4789 29.3854C41.9446 29.6686 41.0251 30.0107 39.946 29.9997Z" stroke="#F7A90B"/>
<path d="M35.9489 21.8844C35.9489 22.4046 35.5127 22.8261 34.9744 22.8261C34.4363 22.8261 34 22.4046 34 21.8844V19.9417C34 19.4215 34.4362 19 34.9744 19C35.5127 19 35.9489 19.4215 35.9489 19.9417V21.8844Z" stroke="#F7A90B"/>
<path d="M46 21.8844C46 22.4046 45.5638 22.8261 45.0256 22.8261C44.4873 22.8261 44.0511 22.4046 44.0511 21.8844V19.9417C44.0511 19.4215 44.4873 19 45.0256 19C45.5638 19 46 19.4215 46 19.9417V21.8844Z" stroke="#F7A90B"/>
</g>
<defs>
<clipPath id="clip0_1_435">
<rect width="80" height="80" fill="white"/>
</clipPath>
</defs>
</svg>
