<svg width="80" height="80" viewBox="0 0 80 80" fill="none" xmlns="http://www.w3.org/2000/svg">
<g id="innovation 1">
<g id="Group">
<path id="Vector" d="M63.3838 67.8663L61.6163 69.6338L65 73.0175L73.3838 64.6338L71.6163 62.8663L65 69.4825L63.3838 67.8663Z" fill="#284C68"/>
<path id="Vector_2" d="M16.6163 7.86627L10 14.4825L8.38377 12.8663L6.61627 14.6338L10 18.0175L18.3838 9.63377L16.6163 7.86627Z" fill="#284C68"/>
<path id="Vector_3" d="M40 25C34.4863 25 30 29.4863 30 35C30 40.5138 34.4863 45 40 45C45.5138 45 50 40.5138 50 35C50 29.4863 45.5138 25 40 25ZM40 42.5C35.8637 42.5 32.5 39.1362 32.5 35C32.5 30.8637 35.8637 27.5 40 27.5C44.1362 27.5 47.5 30.8637 47.5 35C47.5 39.1362 44.1362 42.5 40 42.5Z" fill="#F7A90B"/>
<path id="Vector_4" d="M40 30C37.2425 30 35 32.2425 35 35C35 37.7575 37.2425 40 40 40C42.7575 40 45 37.7575 45 35C45 32.2425 42.7575 30 40 30ZM40 37.5C38.6212 37.5 37.5 36.3787 37.5 35C37.5 33.6212 38.6212 32.5 40 32.5C41.3787 32.5 42.5 33.6212 42.5 35C42.5 36.3787 41.3787 37.5 40 37.5Z" fill="#F7A90B"/>
<path id="Vector_5" d="M53.7225 28.9713L54.7675 26.7863L48.215 20.2312L46.0288 21.2762C45.835 21.19 45.6375 21.1088 45.44 21.0313L44.635 18.75H35.365L34.56 21.0325C34.3625 21.11 34.1663 21.1912 33.9713 21.2775L31.785 20.2325L25.2325 26.7875L26.2775 28.9725C26.1912 29.1687 26.1088 29.365 26.0325 29.5613L23.75 30.365V39.6338L26.0325 40.44C26.11 40.6363 26.1912 40.8325 26.2775 41.0288L25.2325 43.215L31.785 49.7675L33.9713 48.7225C34.1663 48.8088 34.3625 48.8913 34.56 48.9675L35.365 51.25H44.635L45.44 48.9675C45.6363 48.89 45.8325 48.8088 46.0288 48.7225L48.215 49.7675L54.7675 43.215L53.7225 41.0288C53.8088 40.8325 53.8913 40.6363 53.9675 40.44L56.25 39.635V30.3662L53.9675 29.56C53.89 29.3638 53.8088 29.1675 53.7225 28.9713ZM53.75 37.865L52.0087 38.4788L51.8138 39.0512C51.6513 39.5262 51.4512 40.0075 51.2175 40.4838L50.95 41.0275L51.7487 42.695L47.6963 46.7475L46.0275 45.9487L45.4825 46.2162C45.01 46.4487 44.5288 46.65 44.0513 46.8125L43.4775 47.0075L42.865 48.75H37.135L36.5212 47.0087L35.9475 46.8138C35.47 46.6513 34.9888 46.45 34.5163 46.2175L33.9713 45.95L32.3025 46.7487L28.25 42.6963L29.0488 41.0288L28.7812 40.485C28.5475 40.0088 28.3475 39.5275 28.185 39.0525L27.99 38.48L26.25 37.865V32.1338L27.9912 31.52L28.1862 30.9475C28.3487 30.4725 28.5487 29.9912 28.7825 29.515L29.05 28.9713L28.2512 27.3038L32.3038 23.2512L33.9725 24.0488L34.5175 23.7812C34.9862 23.55 35.4688 23.35 35.95 23.185L36.5225 22.9888L37.135 21.25H42.865L43.4788 22.99L44.0513 23.1862C44.5325 23.3512 45.015 23.5512 45.4838 23.7825L46.0288 24.05L47.6975 23.2525L51.75 27.305L50.9513 28.9725L51.2187 29.5163C51.4525 29.9925 51.6525 30.4738 51.815 30.9488L52.01 31.5212L53.75 32.135V37.865Z" fill="#F7A90B"/>
<path id="Vector_6" d="M6.25 66.25H21.25V68.75H6.25V66.25Z" fill="#284C68"/>
<path id="Vector_7" d="M18.75 71.25H21.25V73.75H18.75V71.25Z" fill="#284C68"/>
<path id="Vector_8" d="M6.25 71.25H16.25V73.75H6.25V71.25Z" fill="#284C68"/>
<path id="Vector_9" d="M63.0175 18.75H65H78.75V1.25H71.25V3.75H66.25V6.25H61.25V16.9825L57.42 20.8113C56.6763 19.8975 55.8825 19.0188 54.9937 18.2238C50.16 13.9 43.9225 11.9113 37.4125 12.645C27.2188 13.785 18.9163 21.9975 17.6737 32.1737C17.6087 32.7013 17.5662 33.2262 17.5375 33.75H15C14.31 33.75 13.75 33.1887 13.75 32.5V23.6763C19.3662 23.0513 23.75 18.28 23.75 12.5C23.75 6.2975 18.7038 1.25 12.5 1.25C6.29625 1.25 1.25 6.2975 1.25 12.5C1.25 18.28 5.63375 23.0525 11.25 23.6763V32.5C11.25 34.5675 12.9325 36.25 15 36.25H17.55C17.6938 38.8675 18.2812 41.3988 19.27 43.75H13.75C11.6825 43.75 10 45.4325 10 47.5V61.25H5C2.9325 61.25 1.25 62.9325 1.25 65V75C1.25 77.0675 2.9325 78.75 5 78.75H22.5C24.5675 78.75 26.25 77.0675 26.25 75V65C26.25 62.9325 24.5675 61.25 22.5 61.25V59.045C22.5 57.5037 21.2463 56.25 19.705 56.25C18.64 56.25 17.6838 56.8425 17.205 57.795L15.4775 61.25H12.5V47.5C12.5 46.81 13.06 46.25 13.75 46.25H20.5C22.3387 49.4388 24.97 52.18 28.2475 54.185C27.06 54.815 26.25 56.065 26.25 57.5C26.25 59.2287 27.4312 60.6737 29.025 61.105C28.8512 61.5375 28.75 62.0062 28.75 62.5C28.75 64.2287 29.9312 65.6738 31.525 66.105C31.3512 66.5375 31.25 67.0062 31.25 67.5C31.25 69.1275 32.2987 70.5025 33.75 71.02V72.5C33.75 75.9463 36.5537 78.75 40 78.75C43.4463 78.75 46.25 75.9463 46.25 72.5V71.02C47.7012 70.5025 48.75 69.1275 48.75 67.5C48.75 67.0062 48.6488 66.5375 48.475 66.105C50.0687 65.6725 51.25 64.2287 51.25 62.5C51.25 62.0062 51.1488 61.5375 50.975 61.105C52.5687 60.6725 53.75 59.2287 53.75 57.5C53.75 56.065 52.94 54.815 51.75 54.185C58.0588 50.3187 62.0513 43.6287 62.4587 36.25H65C65.69 36.25 66.25 36.8112 66.25 37.5V56.3237C60.6338 56.9475 56.25 61.7188 56.25 67.5C56.25 73.7038 61.2962 78.75 67.5 78.75C73.7038 78.75 78.75 73.7038 78.75 67.5C78.75 61.7188 74.3662 56.9475 68.75 56.3237V37.5C68.75 35.4325 67.0675 33.75 65 33.75H62.4337C62.215 29.8512 60.9888 26.1087 58.9062 22.8612L63.0175 18.75ZM73.75 3.75H76.25V16.25H73.75V3.75ZM71.25 6.25V16.25H68.75V6.25H71.25ZM63.75 8.75H66.25V16.25H65H63.75V8.75ZM3.75 12.5C3.75 7.675 7.67625 3.75 12.5 3.75C17.3237 3.75 21.25 7.675 21.25 12.5C21.25 17.325 17.3237 21.25 12.5 21.25C7.67625 21.25 3.75 17.325 3.75 12.5ZM17.0225 63.75L19.44 58.915C19.565 58.6675 20 58.7713 20 59.045V63.75H22.5C23.19 63.75 23.75 64.31 23.75 65V75C23.75 75.69 23.19 76.25 22.5 76.25H5C4.31 76.25 3.75 75.69 3.75 75V65C3.75 64.31 4.31 63.75 5 63.75H17.0225ZM76.25 67.5C76.25 72.3238 72.3238 76.25 67.5 76.25C62.6763 76.25 58.75 72.3238 58.75 67.5C58.75 62.6763 62.6763 58.75 67.5 58.75C72.3238 58.75 76.25 62.6763 76.25 67.5ZM40 76.25C37.9325 76.25 36.25 74.5675 36.25 72.5V71.25H43.75V72.5C43.75 74.5675 42.0675 76.25 40 76.25ZM45 68.75H35C34.31 68.75 33.75 68.19 33.75 67.5C33.75 66.81 34.31 66.25 35 66.25H45C45.69 66.25 46.25 66.81 46.25 67.5C46.25 68.19 45.69 68.75 45 68.75ZM47.5 63.75H45H35H32.5C31.81 63.75 31.25 63.19 31.25 62.5C31.25 61.81 31.81 61.25 32.5 61.25H47.5C48.19 61.25 48.75 61.81 48.75 62.5C48.75 63.19 48.19 63.75 47.5 63.75ZM49.41 52.645L48.75 52.9975V56.25H50C50.69 56.25 51.25 56.81 51.25 57.5C51.25 58.19 50.69 58.75 50 58.75H47.5H32.5H30C29.31 58.75 28.75 58.19 28.75 57.5C28.75 56.81 29.31 56.25 30 56.25H31.25V52.9975L30.59 52.645C23.2337 48.7125 19.1387 40.7962 20.1537 32.4763C21.2587 23.4375 28.6338 16.1425 37.69 15.13C43.485 14.4875 49.0312 16.245 53.3275 20.0875C57.5687 23.88 60 29.315 60 35C60 42.3925 55.9425 49.1538 49.41 52.645Z" fill="#284C68"/>
</g>
</g>
</svg>
