<svg width="72" height="72" viewBox="0 0 72 72" fill="none" xmlns="http://www.w3.org/2000/svg">
<g clip-path="url(#clip0_1_649)">
<path d="M4.50002 4.8989C-1.15798 10.7759 1.7941e-05 17.0189 1.7941e-05 35.9849C1.7941e-05 51.7349 -2.74798 67.5239 11.634 71.2409C16.125 72.3959 55.917 72.3959 60.402 71.2349C66.39 69.6899 71.262 64.8329 71.928 56.3639C72.021 55.1819 72.021 16.8089 71.925 15.6029C71.217 6.5819 65.664 1.3829 58.347 0.329895C56.67 0.0868951 56.334 0.0148951 47.73 -0.000104941C17.211 0.0148951 10.521 -1.34411 4.50002 4.8989Z" fill="url(#paint0_linear_1_649)"/>
<path d="M35.994 9.41726C25.101 9.41726 14.757 8.44826 10.806 18.5883C9.17399 22.7763 9.41099 28.2153 9.41099 36.0033C9.41099 42.8373 9.19199 49.2603 10.806 53.4153C14.748 63.5613 25.176 62.5893 35.988 62.5893C46.419 62.5893 57.174 63.6753 61.173 53.4153C62.808 49.1853 62.568 43.8273 62.568 36.0033C62.568 25.6173 63.141 18.9123 58.104 13.8783C53.004 8.77826 46.107 9.41726 35.982 9.41726H35.994ZM33.612 14.2083C56.334 14.1723 59.226 11.6463 57.63 46.7373C57.063 59.1483 47.613 57.7863 35.997 57.7863C14.817 57.7863 14.208 57.1803 14.208 35.9913C14.208 14.5563 15.888 14.2203 33.612 14.2023V14.2083ZM50.184 18.6213C48.423 18.6213 46.995 20.0493 46.995 21.8103C46.995 23.5713 48.423 24.9993 50.184 24.9993C51.945 24.9993 53.373 23.5713 53.373 21.8103C53.373 20.0493 51.945 18.6213 50.184 18.6213ZM35.994 22.3503C28.455 22.3503 22.344 28.4643 22.344 36.0033C22.344 43.5423 28.455 49.6533 35.994 49.6533C43.533 49.6533 49.641 43.5423 49.641 36.0033C49.641 28.4643 43.533 22.3503 35.994 22.3503ZM35.994 27.1413C47.709 27.1413 47.724 44.8653 35.994 44.8653C24.282 44.8653 24.264 27.1413 35.994 27.1413Z" fill="white"/>
</g>
<defs>
<linearGradient id="paint0_linear_1_649" x1="4.63808" y1="67.4012" x2="71.5545" y2="9.48583" gradientUnits="userSpaceOnUse">
<stop stop-color="#FFDD55"/>
<stop offset="0.5" stop-color="#FF543E"/>
<stop offset="1" stop-color="#C837AB"/>
</linearGradient>
<clipPath id="clip0_1_649">
<rect width="72" height="72" fill="white"/>
</clipPath>
</defs>
</svg>
