<svg width="56" height="56" viewBox="0 0 56 56" fill="none" xmlns="http://www.w3.org/2000/svg">
<g id="instagram-3 1" clip-path="url(#clip0_1_1439)">
<path id="Vector" d="M3.50006 3.81052C-0.900609 8.38152 5.80251e-05 13.2372 5.80251e-05 27.9885C5.80251e-05 40.2385 -2.13728 52.5189 9.04872 55.4099C12.5417 56.3082 43.4911 56.3082 46.9794 55.4052C51.6367 54.2035 55.4261 50.4259 55.9441 43.8389C56.0164 42.9195 56.0164 13.0739 55.9417 12.1359C55.3911 5.11952 51.0721 1.07586 45.3811 0.256856C44.0767 0.0678563 43.8154 0.0118563 37.1234 0.00018964C13.3864 0.0118563 8.18306 -1.04514 3.50006 3.81052Z" fill="url(#paint0_linear_1_1439)"/>
<path id="Vector_2" d="M27.9953 7.32415C19.523 7.32415 11.4776 6.57049 8.40464 14.4572C7.13531 17.7145 7.31964 21.9448 7.31964 28.0022C7.31964 33.3175 7.14931 38.3132 8.40464 41.5448C11.4706 49.4362 19.5813 48.6802 27.9906 48.6802C36.1036 48.6802 44.4686 49.5248 47.579 41.5448C48.8506 38.2548 48.664 34.0875 48.664 28.0022C48.664 19.9242 49.1096 14.7092 45.192 10.7938C41.2253 6.82715 35.861 7.32415 27.986 7.32415H27.9953ZM26.1426 11.0505C43.8153 11.0225 46.0646 9.05782 44.8233 36.3508C44.3823 46.0038 37.0323 44.9445 27.9976 44.9445C11.5243 44.9445 11.0506 44.4732 11.0506 27.9928C11.0506 11.3212 12.3573 11.0598 26.1426 11.0458V11.0505ZM39.032 14.4828C37.6623 14.4828 36.5516 15.5935 36.5516 16.9632C36.5516 18.3328 37.6623 19.4435 39.032 19.4435C40.4016 19.4435 41.5123 18.3328 41.5123 16.9632C41.5123 15.5935 40.4016 14.4828 39.032 14.4828ZM27.9953 17.3832C22.1316 17.3832 17.3786 22.1385 17.3786 28.0022C17.3786 33.8658 22.1316 38.6188 27.9953 38.6188C33.859 38.6188 38.6096 33.8658 38.6096 28.0022C38.6096 22.1385 33.859 17.3832 27.9953 17.3832ZM27.9953 21.1095C37.107 21.1095 37.1186 34.8948 27.9953 34.8948C18.886 34.8948 18.872 21.1095 27.9953 21.1095Z" fill="white"/>
</g>
<defs>
<linearGradient id="paint0_linear_1_1439" x1="3.60744" y1="52.4234" x2="55.6535" y2="7.37814" gradientUnits="userSpaceOnUse">
<stop stop-color="#FFDD55"/>
<stop offset="0.5" stop-color="#FF543E"/>
<stop offset="1" stop-color="#C837AB"/>
</linearGradient>
<clipPath id="clip0_1_1439">
<rect width="56" height="56" fill="white"/>
</clipPath>
</defs>
</svg>
