<svg width="300" height="48" viewBox="0 0 300 48" fill="none" xmlns="http://www.w3.org/2000/svg">
<path d="M12.0002 2C8.07598 2 4.85999 5.2064 4.85999 9.11984C4.85999 10.6362 5.34431 12.0454 6.16391 13.2037L11.1288 21.7868C11.8241 22.6952 12.2863 22.5226 12.8645 21.7388L18.3408 12.4196C18.4512 12.2194 18.5381 12.0063 18.6137 11.7886C18.9612 10.9418 19.1399 10.0352 19.1397 9.11984C19.14 5.2064 15.9249 2 12.0002 2ZM12.0002 5.336C14.1137 5.336 15.7941 7.01264 15.7941 9.11984C15.7941 11.227 14.1137 12.903 12.0002 12.903C9.88702 12.903 8.20583 11.2273 8.20583 9.11984C8.20583 7.01264 9.88702 5.33624 12.0002 5.33624V5.336Z" fill="#F7A90B"/>
<path d="M16.5391 13.7378L16.5276 13.768C16.5312 13.7589 16.5341 13.7496 16.5377 13.7404L16.5391 13.7378Z" fill="#F7A90B"/>
<path d="M8.16143 18.5737C4.77119 19.0528 2.39999 20.1988 2.39999 21.8857C2.39999 24.1581 6.36191 26 12 26C17.6381 26 21.6 24.1581 21.6 21.8857C21.6 20.1988 19.229 19.0528 15.839 18.5737L15.3694 19.3734C17.9244 19.7279 19.68 20.4729 19.68 21.3373C19.68 22.5493 16.2415 23.5316 12 23.5316C7.75847 23.5316 4.31999 22.5493 4.31999 21.3373C4.31975 20.4757 6.06383 19.7315 8.62679 19.3756C8.47199 19.1082 8.31623 18.8413 8.16119 18.5737H8.16143Z" fill="#F7A90B"/>
<path d="M47.604 18L48.573 11.472L51.191 18H52.364L55.101 11.472L55.934 18H58.875L57.175 6.661H54.234L51.803 12.713L49.508 6.661H46.601L44.68 18H47.604ZM66.3727 11.132C66.0497 10.775 65.3187 10.146 64.0947 10.146C63.0067 10.146 62.0037 10.571 61.3577 11.217C60.7457 11.829 60.1847 12.832 60.1847 14.26C60.1847 15.399 60.5417 16.266 61.2727 17.048C62.1907 18.017 63.1937 18.255 64.0097 18.255C64.7577 18.255 65.7437 18.034 66.3727 17.167V18H69.0927V10.401H66.3727V11.132ZM64.7067 12.458C65.2847 12.458 65.6757 12.713 65.9307 12.951C66.3557 13.359 66.4577 13.835 66.4577 14.192C66.4577 14.804 66.1857 15.178 65.9477 15.416C65.6077 15.756 65.1657 15.943 64.7237 15.943C64.2647 15.943 63.7887 15.705 63.4997 15.433C63.1597 15.11 62.9727 14.634 62.9727 14.192C62.9727 13.801 63.1427 13.308 63.5167 12.951C63.9077 12.577 64.3667 12.458 64.7067 12.458ZM70.9663 18H73.6863V13.92C73.6863 13.461 73.8563 12.968 74.1283 12.713C74.3493 12.509 74.7063 12.356 75.1313 12.356C75.4033 12.356 75.7433 12.407 75.9983 12.679C76.3553 13.053 76.3383 13.716 76.3383 14.158V18H79.0583V13.172C79.0583 12.339 78.9903 11.693 78.3443 11.047C77.7153 10.418 76.8823 10.231 76.1003 10.231C75.4373 10.231 74.4343 10.367 73.6863 11.353V10.401H70.9663V18ZM88.4246 10.401H80.8426V12.628H83.9026L80.3156 18H88.0506V15.773H84.8716L88.4246 10.401ZM89.6928 10.401V18H92.4128V10.401H89.6928ZM89.5228 7.239C89.5228 8.089 90.2028 8.769 91.0528 8.769C91.9028 8.769 92.5828 8.089 92.5828 7.239C92.5828 6.389 91.9028 5.709 91.0528 5.709C90.2028 5.709 89.5228 6.389 89.5228 7.239ZM94.2582 5.607V18H96.9782V5.607H94.2582ZM100.473 13.682C100.915 13.682 101.357 13.512 101.714 13.155C102.02 12.849 102.224 12.475 102.224 11.914C102.224 11.353 102.02 10.979 101.731 10.69C101.357 10.316 100.898 10.146 100.473 10.146C100.099 10.146 99.6397 10.265 99.2317 10.673C99.0107 10.894 98.7047 11.302 98.7047 11.914C98.7047 12.526 99.0107 12.934 99.2317 13.155C99.6397 13.563 100.099 13.682 100.473 13.682ZM100.473 18.255C100.915 18.255 101.357 18.085 101.714 17.728C102.02 17.422 102.224 17.048 102.224 16.487C102.224 15.926 102.02 15.552 101.731 15.263C101.357 14.889 100.898 14.719 100.473 14.719C100.099 14.719 99.6397 14.838 99.2317 15.246C99.0107 15.467 98.7047 15.875 98.7047 16.487C98.7047 17.099 99.0107 17.507 99.2317 17.728C99.6397 18.136 100.099 18.255 100.473 18.255ZM114.007 7.851V6.661H107.241V7.851H109.995V18H111.253V7.851H114.007ZM117.267 18.204C119.409 18.204 121.007 16.64 121.007 14.498C121.007 12.356 119.426 10.775 117.267 10.775C115.108 10.775 113.527 12.356 113.527 14.498C113.527 16.64 115.125 18.204 117.267 18.204ZM117.267 11.863C118.559 11.863 119.749 12.764 119.749 14.498C119.749 16.215 118.542 17.116 117.267 17.116C116.009 17.116 114.785 16.232 114.785 14.498C114.785 12.781 115.975 11.863 117.267 11.863ZM126.795 12.05C126.234 10.843 125.231 10.775 124.857 10.775C123.667 10.775 122.8 11.506 122.8 12.747C122.8 13.104 122.851 13.444 123.123 13.784C123.446 14.175 123.99 14.447 124.84 14.821C125.503 15.11 125.979 15.331 125.979 15.994C125.979 16.521 125.622 17.116 124.823 17.116C123.939 17.116 123.531 16.334 123.395 15.96L122.341 16.402C122.936 18.17 124.517 18.204 124.806 18.204C126.166 18.204 127.237 17.371 127.237 15.892C127.237 15.501 127.169 15.127 126.863 14.753C126.591 14.413 126.115 14.09 125.095 13.665C124.296 13.325 123.956 13.172 123.956 12.662C123.956 12.118 124.364 11.863 124.806 11.863C125.265 11.863 125.622 12.169 125.792 12.577L126.795 12.05ZM128.861 18H130.085V14.311C130.085 13.801 130.119 12.968 130.595 12.407C130.952 11.982 131.411 11.863 131.836 11.863C132.38 11.863 132.754 12.067 132.992 12.373C133.281 12.747 133.315 13.24 133.315 13.665V18H134.539V13.631C134.539 12.849 134.488 12.271 134.131 11.744C133.706 11.115 132.941 10.775 132.108 10.775C130.935 10.775 130.306 11.472 130.085 11.761V5.607H128.861V18ZM136.846 5.607V18H138.07V15.093L138.376 14.787L141.198 18H142.796L139.226 13.971L142.252 10.945H140.654L138.07 13.563V5.607H136.846ZM149.088 15.637C148.935 15.977 148.68 16.334 148.357 16.606C147.949 16.946 147.49 17.116 146.912 17.116C145.688 17.116 144.685 16.181 144.668 14.719H150.159C150.193 13.784 149.938 12.696 149.496 12.067C149.071 11.455 148.204 10.775 146.827 10.775C144.702 10.775 143.41 12.407 143.41 14.515C143.41 17.133 145.195 18.204 146.895 18.204C147.796 18.204 148.595 17.915 149.241 17.337C149.598 17.014 149.904 16.589 150.108 16.198L149.088 15.637ZM144.753 13.699C144.94 12.645 145.79 11.863 146.827 11.863C147.864 11.863 148.697 12.594 148.901 13.699H144.753ZM152.037 18H153.261V14.311C153.261 13.801 153.295 12.968 153.771 12.407C154.128 11.982 154.587 11.863 155.012 11.863C155.556 11.863 155.93 12.067 156.168 12.373C156.457 12.747 156.491 13.24 156.491 13.665V18H157.715V13.631C157.715 12.849 157.664 12.271 157.307 11.744C156.882 11.115 156.117 10.775 155.284 10.775C154.111 10.775 153.482 11.472 153.261 11.761V10.945H152.037V18ZM162.504 12.067V10.945H161.28V8.395H160.056V10.945H159.308V12.067H160.056V18H161.28V12.067H162.504ZM171.536 12.05C170.975 10.843 169.972 10.775 169.598 10.775C168.408 10.775 167.541 11.506 167.541 12.747C167.541 13.104 167.592 13.444 167.864 13.784C168.187 14.175 168.731 14.447 169.581 14.821C170.244 15.11 170.72 15.331 170.72 15.994C170.72 16.521 170.363 17.116 169.564 17.116C168.68 17.116 168.272 16.334 168.136 15.96L167.082 16.402C167.677 18.17 169.258 18.204 169.547 18.204C170.907 18.204 171.978 17.371 171.978 15.892C171.978 15.501 171.91 15.127 171.604 14.753C171.332 14.413 170.856 14.09 169.836 13.665C169.037 13.325 168.697 13.172 168.697 12.662C168.697 12.118 169.105 11.863 169.547 11.863C170.006 11.863 170.363 12.169 170.533 12.577L171.536 12.05ZM173.602 18H174.826V14.311C174.826 13.801 174.86 12.968 175.336 12.407C175.693 11.982 176.152 11.863 176.577 11.863C177.121 11.863 177.495 12.067 177.733 12.373C178.022 12.747 178.056 13.24 178.056 13.665V18H179.28V13.631C179.28 12.849 179.229 12.271 178.872 11.744C178.447 11.115 177.682 10.775 176.849 10.775C175.676 10.775 175.047 11.472 174.826 11.761V5.607H173.602V18ZM186.994 11.948C186.671 11.523 185.94 10.775 184.58 10.775C182.778 10.775 181.146 12.033 181.146 14.464C181.146 16.946 182.795 18.204 184.58 18.204C185.821 18.204 186.586 17.541 186.994 17.014V18H188.218V10.945H186.994V11.948ZM184.716 11.863C185.804 11.863 187.062 12.662 187.062 14.481C187.062 15.875 186.212 17.116 184.716 17.116C183.254 17.116 182.404 15.977 182.404 14.464C182.404 12.747 183.509 11.863 184.716 11.863ZM190.536 18H191.76V14.311C191.76 13.801 191.794 12.968 192.27 12.407C192.627 11.982 193.086 11.863 193.511 11.863C194.055 11.863 194.429 12.067 194.667 12.373C194.956 12.747 194.99 13.24 194.99 13.665V18H196.214V13.631C196.214 12.849 196.163 12.271 195.806 11.744C195.381 11.115 194.616 10.775 193.783 10.775C192.61 10.775 191.981 11.472 191.76 11.761V5.607H190.536V18ZM198.521 18H199.745V14.277C199.745 13.121 199.949 12.645 200.153 12.373C200.34 12.135 200.646 11.931 201.139 11.931C201.326 11.931 201.581 11.982 201.853 12.169L202.431 11.064C202.125 10.911 201.717 10.775 201.343 10.775C200.391 10.775 199.864 11.523 199.745 11.71V10.945H198.521V18ZM203.552 10.945V18H204.776V10.945H203.552ZM203.297 8.276C203.297 8.752 203.688 9.143 204.164 9.143C204.64 9.143 205.031 8.752 205.031 8.276C205.031 7.8 204.64 7.409 204.164 7.409C203.688 7.409 203.297 7.8 203.297 8.276ZM206.34 20.261L207.139 20.584L208.856 16.742L207.734 16.334L206.34 20.261ZM224.696 7.596C223.336 6.559 222.027 6.474 221.347 6.474C217.947 6.474 215.414 8.99 215.414 12.373C215.414 15.654 217.913 18.204 221.279 18.204C222.129 18.204 223.438 18 224.696 17.099V15.535C224.492 15.739 224.033 16.164 223.387 16.487C222.792 16.793 222.044 17.014 221.279 17.014C219.205 17.014 216.706 15.467 216.706 12.39C216.706 9.772 218.644 7.664 221.262 7.664C221.925 7.664 222.622 7.834 223.217 8.106C223.795 8.378 224.339 8.803 224.696 9.16V7.596ZM226.711 18H227.935V14.311C227.935 13.801 227.969 12.968 228.445 12.407C228.802 11.982 229.261 11.863 229.686 11.863C230.23 11.863 230.604 12.067 230.842 12.373C231.131 12.747 231.165 13.24 231.165 13.665V18H232.389V13.631C232.389 12.849 232.338 12.271 231.981 11.744C231.556 11.115 230.791 10.775 229.958 10.775C228.785 10.775 228.156 11.472 227.935 11.761V5.607H226.711V18ZM234.696 10.945V18H235.92V10.945H234.696ZM234.441 8.276C234.441 8.752 234.832 9.143 235.308 9.143C235.784 9.143 236.175 8.752 236.175 8.276C236.175 7.8 235.784 7.409 235.308 7.409C234.832 7.409 234.441 7.8 234.441 8.276ZM238.232 5.607V18H239.456V5.607H238.232ZM245.066 18.204C247.208 18.204 248.806 16.64 248.806 14.498C248.806 12.356 247.225 10.775 245.066 10.775C242.907 10.775 241.326 12.356 241.326 14.498C241.326 16.64 242.924 18.204 245.066 18.204ZM245.066 11.863C246.358 11.863 247.548 12.764 247.548 14.498C247.548 16.215 246.341 17.116 245.066 17.116C243.808 17.116 242.584 16.232 242.584 14.498C242.584 12.781 243.774 11.863 245.066 11.863ZM250.683 18H251.907V14.311C251.907 13.801 251.941 12.968 252.417 12.407C252.774 11.982 253.233 11.863 253.658 11.863C254.202 11.863 254.576 12.067 254.814 12.373C255.103 12.747 255.137 13.24 255.137 13.665V18H256.361V13.631C256.361 12.849 256.31 12.271 255.953 11.744C255.528 11.115 254.763 10.775 253.93 10.775C252.757 10.775 252.128 11.472 251.907 11.761V10.945H250.683V18ZM265.197 10.945H258.635V12.067H262.749L257.649 18H264.993V16.878H260.097L265.197 10.945ZM269.62 18.204C271.762 18.204 273.36 16.64 273.36 14.498C273.36 12.356 271.779 10.775 269.62 10.775C267.461 10.775 265.88 12.356 265.88 14.498C265.88 16.64 267.478 18.204 269.62 18.204ZM269.62 11.863C270.912 11.863 272.102 12.764 272.102 14.498C272.102 16.215 270.895 17.116 269.62 17.116C268.362 17.116 267.138 16.232 267.138 14.498C267.138 12.781 268.328 11.863 269.62 11.863ZM275.237 18H276.461V14.277C276.461 13.121 276.665 12.645 276.869 12.373C277.056 12.135 277.362 11.931 277.855 11.931C278.042 11.931 278.297 11.982 278.569 12.169L279.147 11.064C278.841 10.911 278.433 10.775 278.059 10.775C277.107 10.775 276.58 11.523 276.461 11.71V10.945H275.237V18ZM47.638 36.067V34.945H46.414V32.395H45.19V34.945H44.442V36.067H45.19V42H46.414V36.067H47.638ZM50.0157 34.945H48.7917V39.195C48.7917 40.062 48.8767 40.708 49.4377 41.32C50.0667 41.983 50.8997 42.204 51.5967 42.204C52.2937 42.204 53.1267 41.983 53.7557 41.32C54.3167 40.708 54.4017 40.062 54.4017 39.195V34.945H53.1777V39.059C53.1777 39.552 53.1777 40.13 52.8377 40.572C52.6507 40.81 52.2767 41.116 51.5967 41.116C50.9167 41.116 50.5427 40.81 50.3557 40.572C50.0157 40.13 50.0157 39.552 50.0157 39.059V34.945ZM56.7107 42H57.9347V38.158C57.9347 37.308 58.0877 35.863 59.4817 35.863C60.7737 35.863 60.7567 37.325 60.7567 37.818V42H61.9807V38.073C61.9807 37.223 62.1337 35.863 63.5447 35.863C64.7007 35.863 64.8027 36.917 64.8027 37.716V42H66.0267V37.529C66.0267 36.526 65.8227 34.775 63.7317 34.775C63.2557 34.775 62.2867 34.843 61.6067 35.914C61.4707 35.676 60.9607 34.775 59.6857 34.775C58.9377 34.775 58.3257 35.115 57.9347 35.693V34.945H56.7107V42ZM73.7544 35.948C73.4314 35.523 72.7004 34.775 71.3404 34.775C69.5384 34.775 67.9064 36.033 67.9064 38.464C67.9064 40.946 69.5554 42.204 71.3404 42.204C72.5814 42.204 73.3464 41.541 73.7544 41.014V42H74.9784V34.945H73.7544V35.948ZM71.4764 35.863C72.5644 35.863 73.8224 36.662 73.8224 38.481C73.8224 39.875 72.9724 41.116 71.4764 41.116C70.0144 41.116 69.1644 39.977 69.1644 38.464C69.1644 36.747 70.2694 35.863 71.4764 35.863ZM77.2966 42H78.5206V38.311C78.5206 37.801 78.5546 36.968 79.0306 36.407C79.3876 35.982 79.8466 35.863 80.2716 35.863C80.8156 35.863 81.1896 36.067 81.4276 36.373C81.7166 36.747 81.7506 37.24 81.7506 37.665V42H82.9746V37.631C82.9746 36.849 82.9236 36.271 82.5666 35.744C82.1416 35.115 81.3766 34.775 80.5436 34.775C79.3706 34.775 78.7416 35.472 78.5206 35.761V34.945H77.2966V42ZM85.282 34.945V42H86.506V34.945H85.282ZM85.027 32.276C85.027 32.752 85.418 33.143 85.894 33.143C86.37 33.143 86.761 32.752 86.761 32.276C86.761 31.8 86.37 31.409 85.894 31.409C85.418 31.409 85.027 31.8 85.027 32.276ZM88.0701 44.261L88.8691 44.584L90.5861 40.742L89.4641 40.334L88.0701 44.261ZM105.339 42H106.733L101.65 30.117L96.4309 42H97.8249L99.1849 38.804H104.013L105.339 42ZM99.6779 37.614L101.616 33.075L103.52 37.614H99.6779ZM108.026 42H109.25V38.277C109.25 37.121 109.454 36.645 109.658 36.373C109.845 36.135 110.151 35.931 110.644 35.931C110.831 35.931 111.086 35.982 111.358 36.169L111.936 35.064C111.63 34.911 111.222 34.775 110.848 34.775C109.896 34.775 109.369 35.523 109.25 35.71V34.945H108.026V42ZM113.056 42H114.28V38.311C114.28 37.801 114.314 36.968 114.79 36.407C115.147 35.982 115.606 35.863 116.031 35.863C116.575 35.863 116.949 36.067 117.187 36.373C117.476 36.747 117.51 37.24 117.51 37.665V42H118.734V37.631C118.734 36.849 118.683 36.271 118.326 35.744C117.901 35.115 117.136 34.775 116.303 34.775C115.13 34.775 114.501 35.472 114.28 35.761V34.945H113.056V42ZM126.448 35.948C126.125 35.523 125.394 34.775 124.034 34.775C122.232 34.775 120.6 36.033 120.6 38.464C120.6 40.946 122.249 42.204 124.034 42.204C125.275 42.204 126.04 41.541 126.448 41.014V42H127.672V34.945H126.448V35.948ZM124.17 35.863C125.258 35.863 126.516 36.662 126.516 38.481C126.516 39.875 125.666 41.116 124.17 41.116C122.708 41.116 121.858 39.977 121.858 38.464C121.858 36.747 122.963 35.863 124.17 35.863ZM133.9 36.05C133.339 34.843 132.336 34.775 131.962 34.775C130.772 34.775 129.905 35.506 129.905 36.747C129.905 37.104 129.956 37.444 130.228 37.784C130.551 38.175 131.095 38.447 131.945 38.821C132.608 39.11 133.084 39.331 133.084 39.994C133.084 40.521 132.727 41.116 131.928 41.116C131.044 41.116 130.636 40.334 130.5 39.96L129.446 40.402C130.041 42.17 131.622 42.204 131.911 42.204C133.271 42.204 134.342 41.371 134.342 39.892C134.342 39.501 134.274 39.127 133.968 38.753C133.696 38.413 133.22 38.09 132.2 37.665C131.401 37.325 131.061 37.172 131.061 36.662C131.061 36.118 131.469 35.863 131.911 35.863C132.37 35.863 132.727 36.169 132.897 36.577L133.9 36.05ZM139.265 42.204C141.407 42.204 143.005 40.64 143.005 38.498C143.005 36.356 141.424 34.775 139.265 34.775C137.106 34.775 135.525 36.356 135.525 38.498C135.525 40.64 137.123 42.204 139.265 42.204ZM139.265 35.863C140.557 35.863 141.747 36.764 141.747 38.498C141.747 40.215 140.54 41.116 139.265 41.116C138.007 41.116 136.783 40.232 136.783 38.498C136.783 36.781 137.973 35.863 139.265 35.863ZM144.865 45.91H146.225L151.41 34.945H150.05L147.755 39.994L145.256 34.945H143.862L147.109 41.337L144.865 45.91ZM156.669 29.607V42H157.893V39.093L158.199 38.787L161.021 42H162.619L159.049 37.971L162.075 34.945H160.477L157.893 37.563V29.607H156.669ZM163.773 41.32C163.773 41.779 164.164 42.17 164.623 42.17C165.082 42.17 165.473 41.779 165.473 41.32C165.473 40.861 165.082 40.47 164.623 40.47C164.164 40.47 163.773 40.861 163.773 41.32ZM166.961 44.261L167.76 44.584L169.477 40.742L168.355 40.334L166.961 44.261ZM176.07 41.609L177.056 42.272L184.638 30.661H176.308V31.817H182.513L176.07 41.609ZM185.698 39.008H189.438V37.75H185.698V39.008ZM192.673 34.945H191.449V39.195C191.449 40.062 191.534 40.708 192.095 41.32C192.724 41.983 193.557 42.204 194.254 42.204C194.951 42.204 195.784 41.983 196.413 41.32C196.974 40.708 197.059 40.062 197.059 39.195V34.945H195.835V39.059C195.835 39.552 195.835 40.13 195.495 40.572C195.308 40.81 194.934 41.116 194.254 41.116C193.574 41.116 193.2 40.81 193.013 40.572C192.673 40.13 192.673 39.552 192.673 39.059V34.945ZM199.351 45.91H200.711L205.896 34.945H204.536L202.241 39.994L199.742 34.945H198.348L201.595 41.337L199.351 45.91ZM206.389 41.32C206.389 41.779 206.78 42.17 207.239 42.17C207.698 42.17 208.089 41.779 208.089 41.32C208.089 40.861 207.698 40.47 207.239 40.47C206.78 40.47 206.389 40.861 206.389 41.32Z" fill="white"/>
</svg>
