<svg width="44" height="44" viewBox="0 0 44 44" fill="none" xmlns="http://www.w3.org/2000/svg">
<g id="tap 2" clip-path="url(#clip0_1_614)">
<path id="Vector" d="M28.3498 14.2056L28.3109 14.2281C27.7777 14.532 27.3769 15.0238 27.1867 15.6074C26.3552 14.9064 25.1743 14.7393 24.2217 15.2893C23.6402 15.6305 23.2209 16.1922 23.0597 16.8471C22.253 16.3088 21.2119 16.2288 20.354 16.7241L20.3126 16.7481C19.8487 17.0065 19.4864 17.4151 19.2851 17.9064L16.1857 12.5383C15.4368 11.241 13.8175 10.7688 12.589 11.4781C11.3619 12.1866 10.966 13.8213 11.7137 15.118L17.8527 25.7747L16.8273 25.3906C15.9188 25.0377 14.9049 25.0783 14.0275 25.5026C13.1704 25.9222 12.525 26.6773 12.2444 27.5895L11.9708 28.3269C11.8826 28.5647 11.9723 28.8316 12.1861 28.968L22.9441 35.8255C24.9106 37.0784 27.3297 37.1716 29.2529 36.0613L34.9994 32.7435L34.9965 32.7385C37.9101 31.0563 38.8128 27.1642 37.0234 24.0581C36.2226 22.6684 35.6197 21.6362 35.1362 20.7966C33.8431 18.55 33.3625 17.723 31.9289 15.2531C31.1787 13.9605 29.5749 13.4983 28.3498 14.2056ZM34.1951 21.3357C34.6788 22.1755 35.2775 23.2156 36.078 24.6054C37.5715 27.1979 36.8354 30.4401 34.4336 31.8267L28.7147 35.1285C27.1404 36.0374 25.1492 35.9534 23.5229 34.9171L13.1326 28.2959L13.2586 27.9527C13.2619 27.9442 13.2644 27.9348 13.2673 27.9262C13.4582 27.2912 13.9042 26.7642 14.4988 26.4709C15.1104 26.1776 15.8161 26.152 16.4474 26.3997L18.8769 27.3121C19.0896 27.3924 19.3297 27.3299 19.4768 27.1567C19.6238 26.9835 19.6462 26.7363 19.5326 26.5396L12.6409 14.5834C12.1895 13.8005 12.4138 12.8221 13.1276 12.41C13.8415 11.9979 14.8013 12.2935 15.2534 13.0766L19.4138 20.2826C19.4282 20.3076 19.4417 20.3336 19.4564 20.3591C19.4627 20.37 19.4703 20.3805 19.4765 20.3912L21.2553 23.4721C21.4039 23.7296 21.7331 23.8178 21.9906 23.6692C22.248 23.5205 22.3363 23.1913 22.1876 22.9338L20.3552 19.76C19.9193 19.005 20.1555 18.0819 20.8509 17.6804L20.8923 17.6565C21.6066 17.2441 22.5604 17.5235 23.0125 18.3066L24.6401 21.1258C24.7887 21.3832 25.118 21.4714 25.3754 21.3228C25.6329 21.1742 25.7211 20.8449 25.5725 20.5875L24.2955 18.3756C23.8432 17.5923 24.0413 16.6285 24.7594 16.2138C25.4735 15.8016 26.4071 16.1118 26.8595 16.8953L28.0642 18.9819C28.2128 19.2394 28.5421 19.3276 28.7995 19.179C29.057 19.0303 29.1452 18.7011 28.9966 18.4436L28.3442 17.3137C27.892 16.5304 28.1349 15.5728 28.8492 15.1604L28.8881 15.1379C29.6006 14.7266 30.5412 15.0148 30.9938 15.7945C32.4264 18.2626 32.9029 19.0907 34.1951 21.3357Z" fill="black"/>
<path id="Vector_2" d="M10.3505 16.1758C10.6079 16.0272 10.6962 15.698 10.5475 15.4405C9.52797 13.6573 10.1421 11.3855 11.9208 10.3585C13.6997 9.33148 15.974 9.93567 17.0085 11.7102C17.1572 11.9677 17.4864 12.0559 17.7439 11.9073C18.0013 11.7586 18.0895 11.4294 17.9409 11.1719C16.6083 8.88381 13.6767 8.10405 11.3835 9.42799C9.09062 10.7518 8.29987 13.6807 9.61515 15.9788C9.76379 16.2363 10.093 16.3245 10.3505 16.1758Z" fill="black"/>
</g>
<defs>
<clipPath id="clip0_1_614">
<rect width="32" height="32" fill="white" transform="translate(0 16) rotate(-30)"/>
</clipPath>
</defs>
</svg>
