<svg width="80" height="80" viewBox="0 0 80 80" fill="none" xmlns="http://www.w3.org/2000/svg">
<path d="M6.66454 67.3031C5.99406 67.3031 5.45209 66.7612 5.45209 66.0907C5.45209 60.072 10.348 55.1761 16.3666 55.1761C17.0371 55.1761 17.5791 55.7181 17.5791 56.3886C17.5791 57.0591 17.0371 57.6011 16.3666 57.6011C11.6853 57.6011 7.877 61.4094 7.877 66.0907C7.877 66.7612 7.33503 67.3031 6.66454 67.3031Z" fill="#F7A90B"/>
<path d="M60.0126 67.3019C59.3421 67.3019 58.8002 66.76 58.8002 66.0895C58.8002 61.4106 54.9918 57.6023 50.313 57.6023C49.6425 57.6023 49.1005 57.0603 49.1005 56.3898C49.1005 55.7193 49.6425 55.1774 50.313 55.1774C56.3304 55.1774 61.2251 60.0721 61.2251 66.0895C61.2251 66.76 60.6831 67.3019 60.0126 67.3019Z" fill="#F7A90B"/>
<path d="M16.3666 57.6011C15.6973 57.6011 15.1541 57.0591 15.1541 56.3886C15.1541 55.7193 15.6961 55.1762 16.3666 55.1762L22.4276 55.175C23.0969 55.175 23.6401 55.7169 23.6401 56.3874C23.6401 57.0567 23.0981 57.5999 22.4276 57.5999L16.3666 57.6011Z" fill="#F7A90B"/>
<path d="M6.66576 76.9979C5.99648 76.9979 5.4533 76.456 5.4533 75.7855L5.45209 66.0907C5.45209 65.4214 5.99406 64.8782 6.66454 64.8782C7.33382 64.8782 7.877 65.4202 7.877 66.0907L7.87821 75.7855C7.87821 76.4548 7.33624 76.9979 6.66576 76.9979Z" fill="#F7A90B"/>
<path d="M60.0126 76.9979C59.3421 76.9979 58.8002 76.456 58.8002 75.7855V66.0895C58.8002 65.419 59.3421 64.877 60.0126 64.877C60.6831 64.877 61.2251 65.419 61.2251 66.0895V75.7855C61.2251 76.456 60.6831 76.9979 60.0126 76.9979Z" fill="#F7A90B"/>
<path d="M24.8514 55.1749C24.1809 55.1749 23.6389 54.633 23.6389 53.9625V49.4412C23.6389 48.7708 24.1809 48.2288 24.8514 48.2288C25.5219 48.2288 26.0638 48.7708 26.0638 49.4412V53.9625C26.0638 54.633 25.5219 55.1749 24.8514 55.1749Z" fill="#F7A90B"/>
<path d="M41.8258 55.1749C41.1553 55.1749 40.6133 54.633 40.6133 53.9625V49.4412C40.6133 48.7708 41.1553 48.2288 41.8258 48.2288C42.4963 48.2288 43.0383 48.7708 43.0383 49.4412V53.9625C43.0383 54.633 42.4963 55.1749 41.8258 55.1749Z" fill="#F7A90B"/>
<path d="M33.3386 52.7512C22.6423 52.7512 13.9393 44.0482 13.9393 33.352C13.9393 32.6815 14.4812 32.1395 15.1517 32.1395C15.8222 32.1395 16.3642 32.6815 16.3642 33.352C16.3642 42.7121 23.9784 50.3263 33.3386 50.3263C42.6987 50.3263 50.313 42.7121 50.313 33.352C50.313 32.6815 50.8549 32.1395 51.5254 32.1395C52.1959 32.1395 52.7379 32.6815 52.7379 33.352C52.7379 44.0482 44.0349 52.7512 33.3386 52.7512Z" fill="#F7A90B"/>
<path d="M15.1517 34.5644C15.1505 34.5644 15.1493 34.5644 15.1481 34.5644C14.4776 34.562 13.9369 34.0176 13.9393 33.3483L13.9587 27.3042C13.9611 26.6349 14.5031 26.0954 15.1711 26.0954H15.1748C15.8453 26.0978 16.386 26.6422 16.3836 27.3115L16.3642 33.3556C16.3618 34.0249 15.8198 34.5644 15.1517 34.5644Z" fill="#F7A90B"/>
<path d="M51.5254 34.5644C50.855 34.5644 50.313 34.0224 50.313 33.3519V27.3079C50.313 26.6374 50.855 26.0954 51.5254 26.0954C52.1959 26.0954 52.7379 26.6374 52.7379 27.3079V33.3519C52.7379 34.0224 52.1959 34.5644 51.5254 34.5644Z" fill="#F7A90B"/>
<path d="M26.7393 60.0272C26.3113 60.0272 25.8979 59.8005 25.676 59.4003C25.3523 58.8135 25.5657 58.0751 26.1525 57.7526L32.7519 54.1128C33.3387 53.7903 34.0759 54.0037 34.3996 54.5893C34.7233 55.1762 34.5099 55.9145 33.9231 56.2371L27.3237 59.8768C27.1394 59.9787 26.9382 60.0272 26.7393 60.0272Z" fill="#F7A90B"/>
<path d="M39.9368 60.0272C39.7391 60.0272 39.5379 59.9787 39.3524 59.8768L32.753 56.2371C32.1673 55.9133 31.954 55.1762 32.2765 54.5893C32.6014 54.0049 33.3374 53.7915 33.9242 54.1128L40.5236 57.7526C41.1092 58.0764 41.3226 58.8135 41.0001 59.4004C40.7794 59.8017 40.3648 60.0272 39.9368 60.0272Z" fill="#F7A90B"/>
<path d="M20.0018 60.0271C19.6914 60.0271 19.381 59.9083 19.1446 59.6719C18.6705 59.1978 18.6705 58.4316 19.1446 57.9575L23.9944 53.1052C24.4684 52.6312 25.2347 52.6312 25.7088 53.1052C26.1829 53.5793 26.1829 54.3456 25.7088 54.8197L20.859 59.6719C20.6225 59.9095 20.3121 60.0271 20.0018 60.0271Z" fill="#F7A90B"/>
<path d="M24.8515 64.8746C24.5411 64.8746 24.2307 64.7557 23.9943 64.5193L19.1445 59.6719C18.6704 59.1979 18.6704 58.4316 19.1445 57.9575C19.6186 57.4834 20.3848 57.4834 20.8589 57.9575L25.7087 62.8049C26.1828 63.279 26.1828 64.0452 25.7087 64.5193C25.4723 64.757 25.1619 64.8746 24.8515 64.8746Z" fill="#F7A90B"/>
<path d="M22.4266 67.2995C22.1162 67.2995 21.8058 67.1807 21.5694 66.9442C21.0953 66.4702 21.0953 65.7039 21.5694 65.2298L23.9943 62.8049C24.4684 62.3309 25.2347 62.3309 25.7087 62.8049C26.1828 63.279 26.1828 64.0453 25.7087 64.5193L23.2838 66.9442C23.0474 67.1819 22.737 67.2995 22.4266 67.2995Z" fill="#F7A90B"/>
<path d="M29.7025 76.9991C29.3327 76.9991 28.9702 76.8318 28.7313 76.5141L21.4566 66.8145C21.054 66.2798 21.1632 65.5196 21.6991 65.1183C22.2338 64.7157 22.9928 64.8236 23.3953 65.3608L30.67 75.0604C31.0726 75.5951 30.9634 76.3553 30.4275 76.7566C30.2105 76.9203 29.9559 76.9991 29.7025 76.9991Z" fill="#F7A90B"/>
<path d="M33.3388 76.9991C32.8539 76.9991 32.3955 76.7057 32.2088 76.2256L23.7216 54.4014C23.4791 53.777 23.7883 53.0749 24.4115 52.8324C25.0347 52.59 25.7392 52.8991 25.9804 53.5223L34.4676 75.3466C34.7101 75.971 34.401 76.673 33.7778 76.9155C33.6335 76.9737 33.4855 76.9991 33.3388 76.9991Z" fill="#F7A90B"/>
<path d="M46.6758 60.0272C46.3654 60.0272 46.055 59.9083 45.8186 59.6719L40.9688 54.8197C40.4947 54.3456 40.4947 53.5793 40.9688 53.1052C41.4428 52.6312 42.2091 52.6312 42.6832 53.1052L47.533 57.9575C48.0071 58.4316 48.0071 59.1978 47.533 59.6719C47.2966 59.9095 46.9862 60.0272 46.6758 60.0272Z" fill="#F7A90B"/>
<path d="M41.826 64.8746C41.5156 64.8746 41.2052 64.7557 40.9688 64.5193C40.4947 64.0452 40.4947 63.279 40.9688 62.8049L45.8186 57.9575C46.2927 57.4834 47.0589 57.4834 47.533 57.9575C48.0071 58.4316 48.0071 59.1979 47.533 59.6719L42.6832 64.5193C42.4468 64.757 42.1364 64.8746 41.826 64.8746Z" fill="#F7A90B"/>
<path d="M44.2509 67.2995C43.9405 67.2995 43.6301 67.1807 43.3937 66.9442L40.9688 64.5193C40.4947 64.0453 40.4947 63.279 40.9688 62.8049C41.4428 62.3309 42.2091 62.3309 42.6832 62.8049L45.1081 65.2298C45.5822 65.7039 45.5822 66.4702 45.1081 66.9442C44.8717 67.1819 44.5613 67.2995 44.2509 67.2995Z" fill="#F7A90B"/>
<path d="M36.9748 76.9992C36.7214 76.9992 36.4668 76.9203 36.2486 76.7567C35.7127 76.3553 35.6035 75.5951 36.0061 75.0604L43.2808 65.3608C43.6833 64.8249 44.4423 64.7182 44.977 65.1183C45.5129 65.5196 45.6221 66.2798 45.2195 66.8145L37.9448 76.5142C37.7072 76.833 37.3446 76.9992 36.9748 76.9992Z" fill="#F7A90B"/>
<path d="M33.3387 77C33.192 77 33.0441 76.9745 32.8998 76.9176C32.2754 76.6751 31.9662 75.9731 32.2099 75.3486L40.6971 53.5244C40.9396 52.9 41.644 52.5896 42.266 52.8345C42.8904 53.077 43.1996 53.779 42.9559 54.4035L34.4687 76.2277C34.282 76.7066 33.8237 77 33.3387 77Z" fill="#F7A90B"/>
<path d="M50.3129 57.6023H44.2507C43.5802 57.6023 43.0382 57.0603 43.0382 56.3898C43.0382 55.7193 43.5802 55.1774 44.2507 55.1774H50.3129C50.9834 55.1774 51.5254 55.7193 51.5254 56.3898C51.5254 57.0603 50.9834 57.6023 50.3129 57.6023Z" fill="#F7A90B"/>
<path d="M29.5664 67.2995C29.4088 67.2995 29.2487 67.2692 29.0948 67.2037C28.4776 66.943 28.1891 66.2313 28.4497 65.6154L31.0092 59.5555C31.2699 58.9372 31.9816 58.6498 32.5975 58.9105C33.2147 59.1712 33.5032 59.8829 33.2426 60.4988L30.6831 66.5587C30.4867 67.0218 30.038 67.2995 29.5664 67.2995Z" fill="#F7A90B"/>
<path d="M37.1105 67.2995C36.6376 67.2995 36.189 67.0218 35.9938 66.5587L33.4343 60.4964C33.1736 59.8793 33.4622 59.1688 34.0793 58.9081C34.6952 58.6474 35.407 58.936 35.6676 59.5531L38.2271 65.6154C38.4878 66.2325 38.1992 66.943 37.5821 67.2037C37.4281 67.2692 37.2681 67.2995 37.1105 67.2995Z" fill="#F7A90B"/>
<path d="M34.551 61.2397H32.1261C31.4556 61.2397 30.9136 60.6977 30.9136 60.0272C30.9136 59.3567 31.4556 58.8148 32.1261 58.8148H34.551C35.2215 58.8148 35.7635 59.3567 35.7635 60.0272C35.7635 60.6977 35.2215 61.2397 34.551 61.2397Z" fill="#F7A90B"/>
<path d="M34.5511 61.2397C34.2734 61.2397 33.9934 61.1451 33.7654 60.9499C33.255 60.517 33.1943 59.7508 33.6296 59.2415L36.0545 56.3947C36.4886 55.883 37.2537 55.8224 37.7629 56.2589C38.2733 56.6917 38.334 57.458 37.8987 57.9672L35.4738 60.8141C35.2337 61.0954 34.893 61.2397 34.5511 61.2397Z" fill="#F7A90B"/>
<path d="M32.1262 61.2396C31.7843 61.2396 31.4436 61.0953 31.2035 60.8128L28.7786 57.966C28.3445 57.4568 28.4039 56.6905 28.9144 56.2576C29.4248 55.8224 30.1899 55.8818 30.6227 56.3934L33.0476 59.2403C33.4817 59.7495 33.4223 60.5158 32.9118 60.9486C32.6839 61.145 32.4038 61.2396 32.1262 61.2396Z" fill="#F7A90B"/>
<path d="M51.5253 23.6486C50.8548 23.6486 50.3129 23.1067 50.3129 22.4362C50.3129 14.8329 45.2023 8.10738 37.8852 6.07772C37.2401 5.89949 36.8619 5.23022 37.0413 4.58519C37.2207 3.94016 37.8888 3.5643 38.5338 3.74132C46.8962 6.06075 52.7378 13.7489 52.7378 22.4374C52.7378 23.1067 52.1958 23.6486 51.5253 23.6486Z" fill="#F7A90B"/>
<path d="M15.1516 23.6486C14.4811 23.6486 13.9391 23.1067 13.9391 22.4362C13.9391 13.7247 19.7977 6.03285 28.1879 3.72918C28.8318 3.54974 29.501 3.92924 29.678 4.57669C29.8551 5.22172 29.4768 5.88978 28.8305 6.0668C21.4903 8.08311 16.3653 14.8147 16.3653 22.4362C16.3641 23.1067 15.8221 23.6486 15.1516 23.6486Z" fill="#F7A90B"/>
<path d="M38.2101 3.71952C38.1022 3.71952 37.9931 3.70497 37.8852 3.67587C34.9462 2.8611 31.7562 2.8611 28.8269 3.66375C28.1891 3.83834 27.515 3.46248 27.3368 2.81624C27.1598 2.17122 27.538 1.50315 28.1843 1.32613C31.5319 0.402243 35.1741 0.407093 38.5302 1.33826C39.1752 1.51649 39.5547 2.18455 39.3753 2.82958C39.2286 3.36791 38.7411 3.71952 38.2101 3.71952Z" fill="#F7A90B"/>
<path d="M52.756 28.5203H13.9586C13.2881 28.5203 12.7462 27.9783 12.7462 27.3078V22.4556C12.7462 21.7851 13.2881 21.2431 13.9586 21.2431H52.756C53.4265 21.2431 53.9685 21.7851 53.9685 22.4556V27.3078C53.9685 27.9783 53.4265 28.5203 52.756 28.5203ZM15.1711 26.0954H51.5435V23.668H15.1711V26.0954Z" fill="#F7A90B"/>
<path d="M28.5069 10.3335C27.8364 10.3335 27.2944 9.79152 27.2944 9.12103V2.49496C27.2944 1.82447 27.8364 1.2825 28.5069 1.2825C29.1774 1.2825 29.7193 1.82447 29.7193 2.49496V9.12103C29.7193 9.79152 29.1774 10.3335 28.5069 10.3335Z" fill="#F7A90B"/>
<path d="M38.2089 10.3334C37.5384 10.3334 36.9965 9.79148 36.9965 9.12099V2.50704C36.9965 1.83655 37.5384 1.29459 38.2089 1.29459C38.8794 1.29459 39.4214 1.83655 39.4214 2.50704V9.12099C39.4214 9.79148 38.8794 10.3334 38.2089 10.3334Z" fill="#F7A90B"/>
<path d="M67.2727 53.971C62.5938 53.971 58.7855 50.1627 58.7855 45.4838C58.7855 40.8049 62.5938 36.9966 67.2727 36.9966C67.9431 36.9966 68.4851 37.5386 68.4851 38.2091C68.4851 38.8796 67.9431 39.4215 67.2727 39.4215C63.9299 39.4215 61.2104 42.1411 61.2104 45.4838C61.2104 48.8266 63.9299 51.5461 67.2727 51.5461C67.9431 51.5461 68.4851 52.0881 68.4851 52.7586C68.4851 53.429 67.9431 53.971 67.2727 53.971Z" fill="#F7A90B"/>
<path d="M67.879 50.3336C67.2085 50.3336 66.6665 49.7917 66.6665 49.1212C66.6665 48.4507 67.2085 47.9087 67.879 47.9087C70.219 47.9087 72.1226 46.0052 72.1226 43.6651C72.1226 41.3251 70.219 39.4215 67.879 39.4215C67.2085 39.4215 66.6665 38.8796 66.6665 38.2091C66.6665 37.5386 67.2085 36.9966 67.879 36.9966C71.5551 36.9966 74.5475 39.989 74.5475 43.6651C74.5475 47.3413 71.5551 50.3336 67.879 50.3336Z" fill="#F7A90B"/>
<path d="M67.879 46.7011C67.2085 46.7011 66.6665 46.1592 66.6665 45.4887C66.6665 44.8182 67.2085 44.2762 67.879 44.2762C68.2136 44.2762 68.4876 44.0022 68.4876 43.6676C68.4876 43.3329 68.2136 43.0589 67.879 43.0589C67.2085 43.0589 66.6665 42.5169 66.6665 41.8465C66.6665 41.176 67.2085 40.634 67.879 40.634C69.5522 40.634 70.9125 41.9944 70.9125 43.6676C70.9125 45.3408 69.5522 46.7011 67.879 46.7011Z" fill="#F7A90B"/>
<path d="M67.2727 50.3337C64.5981 50.3337 62.4229 48.1585 62.4229 45.4838C62.4229 42.8091 64.5981 40.634 67.2727 40.634C67.9432 40.634 68.4852 41.176 68.4852 41.8465C68.4852 42.5169 67.9432 43.0589 67.2727 43.0589C65.9354 43.0589 64.8478 44.1465 64.8478 45.4838C64.8478 46.8212 65.9354 47.9087 67.2727 47.9087C67.9432 47.9087 68.4852 48.4507 68.4852 49.1212C68.4852 49.7917 67.9432 50.3337 67.2727 50.3337Z" fill="#F7A90B"/>
<path d="M67.2727 76.9992C66.6022 76.9992 66.0603 76.4572 66.0603 75.7867V52.7586C66.0603 52.0881 66.6022 51.5461 67.2727 51.5461C67.9432 51.5461 68.4852 52.0881 68.4852 52.7586V75.7867C68.4852 76.4572 67.9432 76.9992 67.2727 76.9992Z" fill="#F7A90B"/>
<path d="M59.998 76.998C59.3275 76.998 58.7856 76.456 58.7856 75.7855V45.4838C58.7856 44.8133 59.3275 44.2714 59.998 44.2714C60.6685 44.2714 61.2105 44.8133 61.2105 45.4838V75.7855C61.2105 76.456 60.6685 76.998 59.998 76.998Z" fill="#F7A90B"/>
<path d="M67.2751 50.3336C66.6046 50.3336 66.0627 49.7917 66.0627 49.1212V45.4887C66.0627 44.8182 66.6046 44.2762 67.2751 44.2762C67.9456 44.2762 68.4876 44.8182 68.4876 45.4887V49.1212C68.4876 49.7917 67.9456 50.3336 67.2751 50.3336Z" fill="#F7A90B"/>
<path d="M67.8789 46.7011H67.2751C66.6046 46.7011 66.0627 46.1592 66.0627 45.4887C66.0627 44.8182 66.6046 44.2762 67.2751 44.2762H67.8789C68.5494 44.2762 69.0914 44.8182 69.0914 45.4887C69.0914 46.1592 68.5494 46.7011 67.8789 46.7011Z" fill="#F7A90B"/>
<path d="M67.879 50.3336H67.2727C66.6022 50.3336 66.0603 49.7917 66.0603 49.1212C66.0603 48.4507 66.6022 47.9087 67.2727 47.9087H67.879C68.5494 47.9087 69.0914 48.4507 69.0914 49.1212C69.0914 49.7917 68.5494 50.3336 67.879 50.3336Z" fill="#F7A90B"/>
<path d="M67.879 43.0589H67.2727C66.6022 43.0589 66.0603 42.5169 66.0603 41.8465C66.0603 41.176 66.6022 40.634 67.2727 40.634H67.879C68.5494 40.634 69.0914 41.176 69.0914 41.8465C69.0914 42.5169 68.5494 43.0589 67.879 43.0589Z" fill="#F7A90B"/>
<path d="M73.335 76.998C72.6645 76.998 72.1226 76.456 72.1226 75.7855V43.6652C72.1226 42.9947 72.6645 42.4527 73.335 42.4527C74.0055 42.4527 74.5475 42.9947 74.5475 43.6652V75.7855C74.5475 76.456 74.0055 76.998 73.335 76.998Z" fill="#F7A90B"/>
<path d="M67.879 39.4215H67.2727C66.6022 39.4215 66.0603 38.8796 66.0603 38.2091C66.0603 37.5386 66.6022 36.9966 67.2727 36.9966H67.879C68.5494 36.9966 69.0914 37.5386 69.0914 38.2091C69.0914 38.8796 68.5494 39.4215 67.879 39.4215Z" fill="#F7A90B"/>
</svg>
