<svg width="285" height="28" viewBox="0 0 285 28" fill="none" xmlns="http://www.w3.org/2000/svg">
<path d="M17.4645 19.6558C17.4663 20.5069 17.3011 21.3499 16.9784 22.1366C16.6558 22.9233 16.1819 23.638 15.5841 24.2399C14.9862 24.8418 14.2762 25.3189 13.4947 25.6439C12.7132 25.9688 11.8756 26.1353 11.0301 26.1336H1.32699L2.64698 23.4736H11.0301C12.024 23.4545 12.9708 23.0436 13.667 22.3293C14.3632 21.615 14.7532 20.6543 14.7532 19.6537C14.7532 18.6531 14.3632 17.6924 13.667 16.9781C12.9708 16.2638 12.024 15.8529 11.0301 15.8338H6.57911C5.72608 15.8464 4.87907 15.6882 4.08734 15.3684C3.2956 15.0485 2.57495 14.5734 1.96728 13.9707C1.35961 13.368 0.877065 12.6497 0.547694 11.8576C0.218323 11.0655 0.0487061 10.2154 0.0487061 9.35671C0.0487061 8.49802 0.218323 7.64789 0.547694 6.85578C0.877065 6.06367 1.35961 5.34537 1.96728 4.74266C2.57495 4.13996 3.2956 3.66487 4.08734 3.34503C4.87907 3.02519 5.72608 2.86698 6.57911 2.87961H16.2738L14.9539 5.53961H6.57494C6.07045 5.52988 5.56909 5.6215 5.10018 5.8091C4.63128 5.99671 4.20424 6.27653 3.84404 6.6322C3.48384 6.98787 3.19772 7.41226 3.00239 7.88055C2.80706 8.34883 2.70646 8.85162 2.70646 9.3595C2.70646 9.86738 2.80706 10.3702 3.00239 10.8385C3.19772 11.3067 3.48384 11.7311 3.84404 12.0868C4.20424 12.4425 4.63128 12.7223 5.10018 12.9099C5.56909 13.0975 6.07045 13.1891 6.57494 13.1794H11.0259C11.8717 13.1772 12.7096 13.3432 13.4915 13.6678C14.2734 13.9924 14.9838 14.4693 15.5821 15.0711C16.1803 15.6729 16.6546 16.3877 16.9776 17.1745C17.3007 17.9612 17.4661 18.8045 17.4645 19.6558Z" fill="white"/>
<path d="M45.3181 5.53988H37.9907V26.1339H35.348V5.53988H29.9164L28.0248 2.87988H45.3181V5.53988Z" fill="white"/>
<path d="M285 5.53988H277.674V26.1339H275.031V5.53988H269.595L267.705 2.87988H285V5.53988Z" fill="white"/>
<path d="M201.475 5.53988H194.149V26.1339H191.506V5.53988H186.07L184.18 2.87988H201.475V5.53988Z" fill="white"/>
<path d="M66.8002 4.84243L65.3147 1.81982L63.8292 4.84243L53.2373 26.1336H56.2389L65.3147 7.79782L74.3905 26.1336H77.3934L66.8002 4.84243Z" fill="white"/>
<path d="M65.3147 14.5083L64.6054 15.9531L59.5396 26.1339H60.975H65.3147H69.6544H71.0898L66.0255 15.9531L65.3147 14.5083Z" fill="#F7A90B"/>
<path d="M59.5396 26.1339L65.3148 14.5083V26.1339H59.5396Z" fill="#D3810B"/>
<path d="M103.463 26.134H100.494L94.0582 13.1798H96.2043C97.1983 13.1607 98.1451 12.7498 98.8413 12.0355C99.5375 11.3212 99.9275 10.3605 99.9275 9.3599C99.9275 8.35928 99.5375 7.3986 98.8413 6.68432C98.1451 5.97003 97.1983 5.55916 96.2043 5.54001H87.9535V26.134H85.3107V2.88281H96.2016C97.7347 2.88594 99.2165 3.43915 100.381 4.44309C101.545 5.44703 102.316 6.83592 102.554 8.3603C102.793 9.88469 102.483 11.4447 101.682 12.7602C100.88 14.0756 99.6388 15.0603 98.1808 15.5374L103.463 26.134Z" fill="white"/>
<path d="M122.934 26.1336C119.87 26.1336 116.932 24.9087 114.766 22.7285C112.6 20.5483 111.383 17.5913 111.383 14.508C111.383 11.4247 112.6 8.46766 114.766 6.28743C116.932 4.10721 119.87 2.88238 122.934 2.88238C124.482 2.87771 126.015 3.19033 127.439 3.8012C128.863 4.41207 130.149 5.30839 131.218 6.43557L129.172 8.09738C127.914 6.8585 126.32 6.02233 124.59 5.69434C122.861 5.36635 121.073 5.56123 119.454 6.2544C117.834 6.94757 116.455 8.10798 115.49 9.58927C114.524 11.0706 114.017 12.8064 114.03 14.5777C114.044 16.3491 114.579 18.0767 115.567 19.5426C116.555 21.0086 117.952 22.1472 119.582 22.8148C121.212 23.4824 123.003 23.6491 124.727 23.294C126.451 22.9388 128.032 22.0777 129.271 20.8192L131.119 22.6798C130.051 23.7739 128.777 24.6428 127.372 25.2358C125.966 25.8288 124.458 26.134 122.934 26.1336Z" fill="white"/>
<path d="M144.418 13.2134V8.31341L141.778 2.88281V26.134H144.418V15.8706H153.823L152.569 13.2134H144.418Z" fill="white"/>
<path d="M156.464 2.88281V13.1462V15.8034V20.7034L159.104 26.134V2.88281H156.464Z" fill="white"/>
<path d="M172.962 2.88281V26.134H170.32V2.88281H172.962Z" fill="white"/>
<path d="M224.428 23.4767L229.36 26.1367H212.035V23.4767H224.428ZM224.428 5.53988L229.36 2.87988H212.035V5.53988H224.428ZM224.257 13.1797V15.8397H215.984V13.1797H224.257ZM214.708 23.4767H212.066V5.53988H214.708V23.4767Z" fill="white"/>
<path d="M248.864 26.1336C245.801 26.1336 242.863 24.9087 240.697 22.7285C238.531 20.5483 237.314 17.5913 237.314 14.508C237.314 11.4247 238.531 8.46766 240.697 6.28743C242.863 4.10721 245.801 2.88238 248.864 2.88238C250.413 2.87771 251.946 3.19033 253.37 3.8012C254.794 4.41207 256.08 5.30839 257.149 6.43557L255.096 8.09738C253.838 6.85864 252.243 6.02265 250.514 5.69485C248.784 5.36706 246.997 5.56213 245.377 6.25548C243.758 6.94884 242.379 8.10941 241.414 9.5908C240.449 11.0722 239.941 12.808 239.955 14.5794C239.969 16.3508 240.504 18.0784 241.492 19.5442C242.48 21.01 243.878 22.1484 245.508 22.8158C247.138 23.4833 248.928 23.6498 250.652 23.2945C252.377 22.9391 253.958 22.0778 255.196 20.8192L257.043 22.6798C255.976 23.7733 254.703 24.6419 253.299 25.2349C251.895 25.8279 250.387 26.1334 248.864 26.1336Z" fill="white"/>
</svg>
