<svg width="72" height="78" viewBox="0 0 72 78" fill="none" xmlns="http://www.w3.org/2000/svg">
<path d="M61.9808 58.7987L56.6987 57.2477L45.2069 49.7417V48.0219C48.5341 45.5122 50.8189 41.6762 51.2436 37.279C52.9122 37.0104 54.1907 35.5604 54.1907 33.8173V29.0879C54.1907 29.0697 54.1888 29.0517 54.1879 29.0334V23.0425C54.8527 22.5665 55.2746 21.7911 55.2746 20.9213V15.4387L63.2053 14.0878C64.5087 13.8658 65.446 12.8306 65.5381 11.5118C65.6298 10.1929 64.8453 9.03763 63.5855 8.63702L36.8497 0.13308C36.2918 -0.0444592 35.7026 -0.0442835 35.145 0.132904L8.40883 8.63702C7.149 9.03763 6.36432 10.1929 6.45625 11.5116C6.51461 12.3495 6.91504 13.072 7.53309 13.5452V20.7148H7.4677C5.96213 20.7148 4.73729 21.9396 4.73729 23.4452V27.0041L2.97473 37.3491C2.6701 39.1384 4.04822 40.7762 5.86756 40.7762H11.8352C13.6504 40.7762 15.0333 39.1423 14.728 37.349L12.9654 27.0041V23.4452C12.9654 21.9396 11.7406 20.7148 10.235 20.7148H10.1698V14.3228L16.7254 15.4394V20.9213C16.7254 21.7874 17.1453 22.5615 17.807 23.0383L17.8094 29.0885V33.8173C17.8094 35.5606 19.0879 37.0104 20.7566 37.279C21.1811 41.6737 23.4634 45.508 26.7875 48.0178V49.7458L15.298 57.2504L10.0202 58.7995C4.37254 60.4572 0.384766 65.6422 0.384766 71.6694V75.5984C0.384766 76.3265 0.974863 76.9168 1.70312 76.9168C2.43139 76.9168 3.02148 76.3267 3.02148 75.5984V71.6694C3.02148 66.9191 6.20471 62.6671 10.7629 61.3294L15.6805 59.8859L35.3269 71.56C35.7258 71.797 36.2535 71.8096 36.6738 71.56L56.3213 59.8852L61.2385 61.3287C65.796 62.6667 68.9792 66.9185 68.9792 71.6685V75.5984C69.125 77.5 71.6154 77.5 71.6154 75.5984V71.6683C71.6154 65.7832 67.7637 60.4965 61.9808 58.7987ZM11.835 38.1394H5.86756C5.68316 38.1394 5.54254 37.9747 5.57383 37.7918L7.16816 28.4339H10.5344L12.1287 37.7916C12.1598 37.9742 12.0203 38.1394 11.835 38.1394ZM10.3287 23.4452V25.7973H7.37365V23.4452C7.37365 23.3933 7.41566 23.3513 7.46752 23.3513H10.2347C10.2867 23.3511 10.3287 23.3933 10.3287 23.4452ZM31.285 65.5965L31.8097 66.403L18.3503 58.4054L26.8935 52.8253C27.2809 57.371 28.7792 61.7453 31.285 65.5965ZM31.2759 59.9056C34.3789 60.3464 37.6193 60.3468 40.7241 59.9056C40.1242 61.3818 39.3848 62.8063 38.505 64.1588L36 68.0091L33.4949 64.1588C32.6151 62.8063 31.8758 61.3818 31.2759 59.9056ZM40.715 65.5965C43.2207 61.7453 44.7191 57.371 45.1063 52.8253L53.6495 58.4053L40.1903 66.403L40.715 65.5965ZM48.4267 23.5334H51.5513V27.7694H50.0004C49.1326 27.7694 48.4265 27.0635 48.4265 26.1956L48.4267 23.5334ZM9.20793 11.1496L35.9444 2.64535C35.9787 2.63445 36.0156 2.63427 36.0504 2.64552L62.7868 11.1496C62.842 11.1672 62.9177 11.1911 62.908 11.3284C62.8984 11.4655 62.8202 11.4787 62.7629 11.4885L53.9232 12.9941L50.6044 12.5837C49.8823 12.4942 49.2238 13.0078 49.1344 13.7303C49.0451 14.4529 49.5585 15.111 50.281 15.2003L52.6382 15.492V20.8969L19.3619 20.8957V15.4918L33.0038 13.8038C34.9908 13.5582 37.0053 13.5582 38.9909 13.8038L44.1541 14.4424C44.8766 14.5318 45.5349 14.0184 45.6244 13.2959C45.7138 12.5733 45.2004 11.9152 44.4779 11.8257L39.3147 11.1871C37.1144 10.9148 34.882 10.9148 32.6802 11.1871L18.0738 12.9945L9.23149 11.4885C9.17418 11.4787 9.09596 11.4655 9.08629 11.3284C9.0768 11.1911 9.15256 11.167 9.20793 11.1496ZM20.4453 27.7694L20.4435 23.5334H23.5733V26.1958C23.5733 27.0635 22.8674 27.7696 21.9994 27.7696L20.4453 27.7694ZM23.3469 36.6014C23.279 35.5279 22.3868 34.6869 21.3157 34.6869C20.836 34.6869 20.4458 34.2967 20.4458 33.8172V30.4061H21.9994C24.3209 30.4061 26.2098 28.5174 26.2098 26.1958V23.5334H45.7899V26.1958C45.7899 28.5174 47.6789 30.4061 50.0004 30.4061H51.554V33.8172C51.554 34.2967 51.1637 34.6869 50.684 34.6869C49.613 34.6869 48.7207 35.5279 48.6529 36.6015C48.2329 43.2582 42.6751 48.4728 35.9998 48.4728C29.3245 48.4728 23.7668 43.2582 23.3469 36.6014ZM36 51.1093C38.3447 51.1093 40.5733 50.5732 42.5703 49.6199V50.4554C42.5703 52.7094 42.2662 54.9329 41.6807 57.0774C38.0979 57.7605 34.0474 57.7881 30.3193 57.0774C29.7337 54.9331 29.4296 52.7096 29.4296 50.4554C29.4296 50.4274 29.4258 50.4002 29.424 50.3726C29.4237 50.3671 29.4242 50.3617 29.4238 50.3562V49.6173C31.4223 50.5721 33.653 51.1093 36 51.1093Z" fill="#F7A90B"/>
</svg>
