<svg width="282" height="32" viewBox="0 0 282 32" fill="none" xmlns="http://www.w3.org/2000/svg">
<path d="M84.792 17.208H88.536V20.952H91.464V17.208H95.208V14.52H91.464V10.776H88.536V14.52H84.792V17.208ZM101.712 24.432L106.416 18.144C107.544 16.656 108.432 15.096 108.432 13.152C108.432 11.352 107.736 10.128 106.872 9.264C105.552 7.944 104.016 7.632 102.312 7.632C100.68 7.632 99.12 7.968 97.752 9.456C96.672 10.632 96.288 11.976 96.288 13.32C96.288 15 96.96 16.368 97.8 17.16C98.736 18.072 100.176 18.528 101.304 18.528C101.88 18.528 102.504 18.384 103.008 18.216L99.192 23.208L101.712 24.432ZM102.36 10.128C103.32 10.128 104.016 10.536 104.424 10.92C104.904 11.376 105.312 12.072 105.312 13.08C105.312 13.896 105.024 14.568 104.448 15.168C103.872 15.768 103.224 16.032 102.36 16.032C101.568 16.032 100.896 15.84 100.296 15.264C99.744 14.736 99.408 14.016 99.408 13.056C99.408 12 99.888 11.328 100.272 10.944C100.68 10.536 101.352 10.128 102.36 10.128ZM114.873 24.432L119.577 18.144C120.705 16.656 121.593 15.096 121.593 13.152C121.593 11.352 120.897 10.128 120.033 9.264C118.713 7.944 117.177 7.632 115.473 7.632C113.841 7.632 112.281 7.968 110.913 9.456C109.833 10.632 109.449 11.976 109.449 13.32C109.449 15 110.121 16.368 110.961 17.16C111.897 18.072 113.337 18.528 114.465 18.528C115.041 18.528 115.665 18.384 116.169 18.216L112.353 23.208L114.873 24.432ZM115.521 10.128C116.481 10.128 117.177 10.536 117.585 10.92C118.065 11.376 118.473 12.072 118.473 13.08C118.473 13.896 118.185 14.568 117.609 15.168C117.033 15.768 116.385 16.032 115.521 16.032C114.729 16.032 114.057 15.84 113.457 15.264C112.905 14.736 112.569 14.016 112.569 13.056C112.569 12 113.049 11.328 113.433 10.944C113.841 10.536 114.513 10.128 115.521 10.128ZM131.369 15.648C132.593 15.048 133.673 13.872 133.673 12.096C133.673 9.768 131.993 7.632 128.657 7.632C125.321 7.632 123.641 9.768 123.641 12.096C123.641 13.872 124.721 15.048 125.945 15.648C124.169 16.224 123.089 17.784 123.089 19.632C123.089 22.272 125.201 24.36 128.657 24.36C132.113 24.36 134.225 22.272 134.225 19.632C134.225 17.784 133.145 16.224 131.369 15.648ZM128.657 14.352C127.337 14.352 126.425 13.44 126.425 12.12C126.425 10.8 127.337 9.888 128.657 9.888C129.977 9.888 130.889 10.8 130.889 12.12C130.889 13.44 129.977 14.352 128.657 14.352ZM128.657 21.912C127.265 21.912 126.209 20.88 126.209 19.416C126.209 17.952 127.265 16.92 128.657 16.92C130.049 16.92 131.105 17.952 131.105 19.416C131.105 20.88 130.049 21.912 128.657 21.912ZM141.338 27.048C140.666 25.68 140.306 24.48 140.018 23.112C139.514 20.784 139.418 18.696 139.418 17.28C139.418 15.312 139.61 13.536 140.018 11.544C140.33 10.104 140.642 8.928 141.338 7.512L139.01 6.24C138.194 7.896 137.618 9.552 137.186 11.52C136.73 13.68 136.634 15.288 136.634 17.28C136.634 19.584 136.778 21.288 137.234 23.376C137.618 25.104 138.098 26.616 139.01 28.32L141.338 27.048ZM148.401 24.432L153.105 18.144C154.233 16.656 155.121 15.096 155.121 13.152C155.121 11.352 154.425 10.128 153.561 9.264C152.241 7.944 150.705 7.632 149.001 7.632C147.369 7.632 145.809 7.968 144.441 9.456C143.361 10.632 142.977 11.976 142.977 13.32C142.977 15 143.649 16.368 144.489 17.16C145.425 18.072 146.865 18.528 147.993 18.528C148.569 18.528 149.193 18.384 149.697 18.216L145.881 23.208L148.401 24.432ZM149.049 10.128C150.009 10.128 150.705 10.536 151.113 10.92C151.593 11.376 152.001 12.072 152.001 13.08C152.001 13.896 151.713 14.568 151.137 15.168C150.561 15.768 149.913 16.032 149.049 16.032C148.257 16.032 147.585 15.84 146.985 15.264C146.433 14.736 146.097 14.016 146.097 13.056C146.097 12 146.577 11.328 146.961 10.944C147.369 10.536 148.041 10.128 149.049 10.128ZM161.562 24.432L166.266 18.144C167.394 16.656 168.282 15.096 168.282 13.152C168.282 11.352 167.586 10.128 166.722 9.264C165.402 7.944 163.866 7.632 162.162 7.632C160.53 7.632 158.97 7.968 157.602 9.456C156.522 10.632 156.138 11.976 156.138 13.32C156.138 15 156.81 16.368 157.65 17.16C158.586 18.072 160.026 18.528 161.154 18.528C161.73 18.528 162.354 18.384 162.858 18.216L159.042 23.208L161.562 24.432ZM162.21 10.128C163.17 10.128 163.866 10.536 164.274 10.92C164.754 11.376 165.162 12.072 165.162 13.08C165.162 13.896 164.874 14.568 164.298 15.168C163.722 15.768 163.074 16.032 162.21 16.032C161.418 16.032 160.746 15.84 160.146 15.264C159.594 14.736 159.258 14.016 159.258 13.056C159.258 12 159.738 11.328 160.122 10.944C160.53 10.536 161.202 10.128 162.21 10.128ZM172.203 28.32C173.115 26.616 173.595 25.104 173.979 23.376C174.435 21.288 174.579 19.584 174.579 17.28C174.579 15.288 174.483 13.68 174.027 11.52C173.595 9.552 173.019 7.896 172.203 6.24L169.875 7.512C170.571 8.928 170.883 10.104 171.195 11.544C171.603 13.536 171.795 15.312 171.795 17.28C171.795 18.696 171.699 20.784 171.195 23.112C170.907 24.48 170.547 25.68 169.875 27.048L172.203 28.32ZM186.332 24H189.452V7.992H184.028V10.68H186.332V24ZM202.253 7.992H199.445L191.501 19.584V20.976H199.325V24H202.253V20.976H204.125V18.48H202.253V7.992ZM195.197 18.48L199.325 12.384V18.48H195.197ZM211.574 7.56L206.87 13.848C205.742 15.336 204.854 16.896 204.854 18.84C204.854 20.64 205.55 21.864 206.414 22.728C207.734 24.048 209.27 24.36 210.974 24.36C212.606 24.36 214.166 24.024 215.534 22.536C216.614 21.36 216.998 20.016 216.998 18.672C216.998 16.992 216.326 15.624 215.486 14.832C214.55 13.92 213.134 13.464 211.958 13.464C211.262 13.464 210.686 13.632 210.206 13.848L214.094 8.784L211.574 7.56ZM210.926 21.864C209.966 21.864 209.27 21.456 208.862 21.072C208.262 20.52 207.974 19.8 207.974 18.912C207.974 18.024 208.262 17.424 208.838 16.824C209.366 16.272 209.99 15.96 210.926 15.96C211.718 15.96 212.39 16.152 212.99 16.728C213.542 17.256 213.878 17.976 213.878 18.936C213.878 19.992 213.398 20.664 213.014 21.048C212.606 21.456 211.934 21.864 210.926 21.864ZM222.848 24H234.464V21.312H228.68L231.44 18.312C232.688 16.968 234.344 15.192 234.344 12.72C234.344 10.176 232.424 7.632 228.704 7.632C225.536 7.632 223.232 9.72 223.088 12.984H226.304C226.352 11.616 227.216 10.32 228.848 10.32C230.192 10.32 231.224 11.304 231.224 12.744C231.224 13.68 230.72 14.664 230.288 15.312C229.712 16.176 227.84 18.312 227.552 18.648L222.848 24ZM243.017 7.56L238.313 13.848C237.185 15.336 236.297 16.896 236.297 18.84C236.297 20.64 236.993 21.864 237.857 22.728C239.177 24.048 240.713 24.36 242.417 24.36C244.049 24.36 245.609 24.024 246.977 22.536C248.057 21.36 248.441 20.016 248.441 18.672C248.441 16.992 247.769 15.624 246.929 14.832C245.993 13.92 244.577 13.464 243.401 13.464C242.705 13.464 242.129 13.632 241.649 13.848L245.537 8.784L243.017 7.56ZM242.369 21.864C241.409 21.864 240.713 21.456 240.305 21.072C239.705 20.52 239.417 19.8 239.417 18.912C239.417 18.024 239.705 17.424 240.281 16.824C240.809 16.272 241.433 15.96 242.369 15.96C243.161 15.96 243.833 16.152 244.433 16.728C244.985 17.256 245.321 17.976 245.321 18.936C245.321 19.992 244.841 20.664 244.457 21.048C244.049 21.456 243.377 21.864 242.369 21.864ZM260.675 24.36C263.867 24.36 266.867 21.504 266.867 16.008C266.867 10.488 263.867 7.632 260.675 7.632C257.483 7.632 254.483 10.488 254.483 15.984C254.483 21.504 257.483 24.36 260.675 24.36ZM260.675 10.32C262.019 10.32 263.747 11.832 263.747 15.984C263.747 20.16 262.043 21.672 260.675 21.672C259.307 21.672 257.603 20.16 257.603 15.984C257.603 11.832 259.331 10.32 260.675 10.32ZM275.022 7.56L270.318 13.848C269.19 15.336 268.302 16.896 268.302 18.84C268.302 20.64 268.998 21.864 269.862 22.728C271.182 24.048 272.718 24.36 274.422 24.36C276.054 24.36 277.614 24.024 278.982 22.536C280.062 21.36 280.446 20.016 280.446 18.672C280.446 16.992 279.774 15.624 278.934 14.832C277.998 13.92 276.582 13.464 275.406 13.464C274.71 13.464 274.134 13.632 273.654 13.848L277.542 8.784L275.022 7.56ZM274.374 21.864C273.414 21.864 272.718 21.456 272.31 21.072C271.71 20.52 271.422 19.8 271.422 18.912C271.422 18.024 271.71 17.424 272.286 16.824C272.814 16.272 273.438 15.96 274.374 15.96C275.166 15.96 275.838 16.152 276.438 16.728C276.99 17.256 277.326 17.976 277.326 18.936C277.326 19.992 276.846 20.664 276.462 21.048C276.054 21.456 275.382 21.864 274.374 21.864Z" fill="white"/>
<g clip-path="url(#clip0_1_737)">
<path d="M16 32C24.8366 32 32 24.8366 32 16C32 7.16344 24.8366 0 16 0C7.16344 0 0 7.16344 0 16C0 24.8366 7.16344 32 16 32Z" fill="#039BE5"/>
<path d="M8.46326 14.9043L21.6391 9.77711C22.2507 9.55414 22.7848 9.92767 22.5866 10.8609L22.5877 10.8598L20.3443 21.5268C20.178 22.2831 19.7328 22.467 19.1099 22.1107L15.6935 19.5695L14.0456 21.1717C13.8634 21.3556 13.7097 21.5107 13.3567 21.5107L13.5992 18.0018L19.9309 12.2286C20.2065 11.9838 19.8694 11.8459 19.5062 12.0896L11.6815 17.0616L8.30838 15.9996C7.57614 15.7652 7.56019 15.2606 8.46326 14.9043Z" fill="white"/>
</g>
<g clip-path="url(#clip1_1_737)">
<circle cx="56" cy="16" r="16" fill="#4BB87D"/>
<path fill-rule="evenodd" clip-rule="evenodd" d="M61.1698 19.3017C60.803 18.8397 60.2073 18.1703 59.6973 18.1068C59.387 18.0683 59.0304 18.3254 58.679 18.568C58.6104 18.6023 58.0807 18.9177 58.0164 18.9366C57.677 19.0334 56.9527 19.0617 56.5147 18.6623C56.093 18.2766 55.4261 17.5626 54.8878 16.9086C54.3735 16.2348 53.8344 15.4248 53.5584 14.9277C53.2704 14.4126 53.4778 13.7311 53.6561 13.4311C53.6887 13.3771 54.083 12.9717 54.1713 12.8774L54.1841 12.8928C54.5107 12.6186 54.8527 12.34 54.8913 12.0383C54.9547 11.536 54.4413 10.8048 54.0744 10.342C53.7075 9.87827 53.1393 9.06656 52.3653 9.18141C52.0738 9.22427 51.8227 9.32627 51.575 9.47284L51.5681 9.46513C51.5542 9.47547 51.5405 9.48604 51.527 9.49684L51.5055 9.50798L51.5081 9.51141C51.3658 9.62113 50.9595 9.92456 50.9133 9.9657C50.411 10.4123 49.655 11.464 50.2395 13.3557C50.6733 14.7614 51.5981 16.4123 52.8581 18.082L52.8513 18.088C52.913 18.1686 52.9764 18.2414 53.0407 18.3194C53.1007 18.3991 53.1598 18.478 53.2215 18.5568L53.2301 18.5508C54.5673 20.1614 55.9695 21.4488 57.2493 22.2083C58.9721 23.23 60.197 22.7697 60.7627 22.4037C60.8158 22.3686 61.2204 22.054 61.3575 21.9503L61.361 21.9537C61.3661 21.9486 61.3695 21.9417 61.3764 21.9366C61.3888 21.9272 61.4011 21.9178 61.4133 21.9083L61.4081 21.9014C61.6155 21.7008 61.7818 21.4866 61.8967 21.2166C62.1975 20.506 61.5367 19.7654 61.1698 19.3017Z" fill="white"/>
</g>
<defs>
<clipPath id="clip0_1_737">
<rect width="32" height="32" fill="white"/>
</clipPath>
<clipPath id="clip1_1_737">
<rect width="32" height="32" fill="white" transform="translate(40)"/>
</clipPath>
</defs>
</svg>
