<svg width="32" height="32" viewBox="0 0 32 32" fill="none" xmlns="http://www.w3.org/2000/svg">
<g clip-path="url(#clip0_1_705)">
<path d="M16 32C24.8366 32 32 24.8366 32 16C32 7.16344 24.8366 0 16 0C7.16344 0 0 7.16344 0 16C0 24.8366 7.16344 32 16 32Z" fill="#039BE5"/>
<path d="M8.46326 14.9043L21.6391 9.77711C22.2507 9.55414 22.7848 9.92767 22.5866 10.8609L22.5877 10.8598L20.3443 21.5268C20.178 22.2831 19.7328 22.467 19.1099 22.1107L15.6935 19.5695L14.0456 21.1717C13.8634 21.3556 13.7097 21.5107 13.3567 21.5107L13.5992 18.0018L19.9309 12.2286C20.2065 11.9838 19.8694 11.8459 19.5062 12.0896L11.6815 17.0616L8.30838 15.9996C7.57614 15.7652 7.56019 15.2606 8.46326 14.9043Z" fill="white"/>
</g>
<defs>
<clipPath id="clip0_1_705">
<rect width="32" height="32" fill="white"/>
</clipPath>
</defs>
</svg>
