<svg width="72" height="72" viewBox="0 0 72 72" fill="none" xmlns="http://www.w3.org/2000/svg">
<g clip-path="url(#clip0_1_652)">
<path d="M36 72C55.8823 72 72 55.8823 72 36C72 16.1177 55.8823 0 36 0C16.1177 0 0 16.1177 0 36C0 55.8823 16.1177 72 36 72Z" fill="#039BE5"/>
<path d="M16.473 35.2201L51.183 21.8371C52.794 21.2551 54.201 22.2301 53.679 24.6661L53.682 24.6631L47.772 52.5061C47.334 54.4801 46.161 54.9601 44.52 54.0301L35.52 47.3971L31.179 51.5791C30.699 52.0591 30.294 52.4641 29.364 52.4641L30.003 43.3051L46.683 28.2361C47.409 27.5971 46.521 27.2371 45.564 27.8731L24.951 40.8511L16.065 38.0791C14.136 37.4671 14.094 36.1501 16.473 35.2201Z" fill="white"/>
</g>
<defs>
<clipPath id="clip0_1_652">
<rect width="72" height="72" fill="white"/>
</clipPath>
</defs>
</svg>
