<svg width="56" height="56" viewBox="0 0 56 56" fill="none" xmlns="http://www.w3.org/2000/svg">
<g id="tik-tok-2 1">
<g id="Group">
<g id="Group_2">
<path id="Vector" d="M19.9171 29.028C15.4765 29.028 11.889 32.6155 11.9546 37.0124C11.9984 39.8343 13.5515 42.2843 15.8374 43.6515C15.0609 42.4593 14.6015 41.0484 14.5796 39.528C14.514 35.1312 18.1015 31.5437 22.5421 31.5437C23.4171 31.5437 24.2593 31.6858 25.0468 31.9374V23.1327C24.2265 23.0124 23.3843 22.9468 22.5421 22.9468C22.4984 22.9468 22.4656 22.9468 22.4218 22.9468V29.4218C21.6343 29.1702 20.7921 29.028 19.9171 29.028Z" fill="#F00044"/>
<path id="Vector_2" d="M39.1125 2.625H39.0468H36.7719C37.4281 5.91719 39.2765 8.78281 41.8578 10.7297C40.1625 8.4875 39.1343 5.6875 39.1125 2.625Z" fill="#F00044"/>
<path id="Vector_3" d="M52.4999 16.0233C51.6358 16.0233 50.8046 15.9358 49.9843 15.7827V22.0937C47.0093 22.0937 44.1218 21.514 41.4093 20.3546C39.6593 19.6108 38.0296 18.6593 36.5312 17.5108L36.5749 36.9687C36.553 41.3437 34.8249 45.4452 31.6968 48.5405C29.1483 51.0562 25.9218 52.664 22.4218 53.178C21.6015 53.2983 20.7593 53.364 19.9171 53.364C16.1765 53.364 12.6108 52.1499 9.7124 49.9077C10.0405 50.3015 10.3905 50.6843 10.7733 51.0562C13.9233 54.1624 18.1015 55.8796 22.553 55.8796C23.3952 55.8796 24.2374 55.814 25.0577 55.6937C28.5577 55.1796 31.7843 53.5718 34.3327 51.0562C37.4608 47.9608 39.189 43.8593 39.2108 39.4843L39.0468 20.0265C40.5343 21.1749 42.164 22.1374 43.9249 22.8702C46.6483 24.0187 49.5358 24.6093 52.4999 24.6093" fill="#F00044"/>
</g>
<path id="Vector_4" d="M10.7406 27.7921C13.8578 24.6968 18.0031 22.9796 22.4218 22.9468V20.6171C21.6015 20.4968 20.7593 20.4312 19.9171 20.4312C15.4546 20.4312 11.2656 22.1483 8.11558 25.2765C5.02027 28.3499 3.24839 32.5499 3.25933 36.914C3.25933 41.3108 4.99839 45.4343 8.13745 48.5515C8.64058 49.0437 9.15464 49.503 9.70152 49.9187C7.22964 46.9765 5.88433 43.3015 5.87339 39.4296C5.88433 35.0655 7.64527 30.8655 10.7406 27.7921Z" fill="#08FFF9"/>
<path id="Vector_5" d="M49.9843 15.7826V13.442H49.9624C46.9218 13.442 44.1218 12.4357 41.8687 10.7295C43.8265 13.3107 46.6921 15.1482 49.9843 15.7826Z" fill="#08FFF9"/>
<path id="Vector_6" d="M22.0936 47.2719C23.1327 47.3266 24.128 47.1844 25.0468 46.8891C28.2186 45.85 30.5046 42.8969 30.5046 39.4188L30.5155 26.4031V2.625H36.7718C36.6077 1.80469 36.5202 0.973437 36.5093 0.109375H27.8905V23.8766L27.8796 36.8922C27.8796 40.3703 25.5936 43.3234 22.4218 44.3625C21.503 44.6688 20.5077 44.8109 19.4687 44.7453C18.1452 44.6688 16.9093 44.275 15.8374 43.6406C17.1827 45.7188 19.4796 47.1297 22.0936 47.2719Z" fill="#08FFF9"/>
<path id="Vector_7" d="M22.4218 53.1781C25.9218 52.6641 29.1484 51.0562 31.6968 48.5406C34.825 45.4453 36.5531 41.3437 36.575 36.9687L36.5312 17.5109C38.0187 18.6594 39.6484 19.6219 41.4093 20.3547C44.1328 21.5031 47.0203 22.0937 49.9843 22.0937V15.7828C46.6921 15.1484 43.8265 13.3109 41.8687 10.7297C39.2875 8.78281 37.4281 5.91719 36.7828 2.625H30.5156V26.3922L30.5046 39.4078C30.5046 42.8859 28.2187 45.8391 25.0468 46.8781C24.1281 47.1844 23.1328 47.3266 22.0937 47.2609C19.4687 47.1187 17.1828 45.7078 15.8375 43.6406C13.5515 42.2844 11.9984 39.8234 11.9546 37.0016C11.889 32.6047 15.4765 29.0172 19.9171 29.0172C20.7921 29.0172 21.6343 29.1594 22.4218 29.4109V22.9359C18.0031 22.9687 13.8578 24.6859 10.7406 27.7812C7.64527 30.8547 5.87339 35.0547 5.88433 39.4078C5.88433 43.2797 7.22964 46.9547 9.71245 49.8969C12.6218 52.1391 16.1765 53.3531 19.9171 53.3531C20.7593 53.3641 21.6015 53.2984 22.4218 53.1781Z" fill="black"/>
</g>
</g>
</svg>
