<svg width="72" height="72" viewBox="0 0 72 72" fill="none" xmlns="http://www.w3.org/2000/svg">
<path d="M25.6077 37.3222C19.8984 37.3222 15.2859 41.9347 15.3702 47.5878C15.4265 51.2159 17.4234 54.3659 20.3624 56.1237C19.364 54.5909 18.7734 52.7769 18.7452 50.8222C18.6609 45.169 23.2734 40.5565 28.9827 40.5565C30.1077 40.5565 31.1905 40.7394 32.203 41.0628V29.7425C31.1484 29.5878 30.0655 29.5034 28.9827 29.5034C28.9265 29.5034 28.8843 29.5034 28.828 29.5034V37.8284C27.8155 37.505 26.7327 37.3222 25.6077 37.3222Z" fill="#F00044"/>
<path d="M50.2875 3.375H50.2031H47.2781C48.1218 7.60781 50.4984 11.2922 53.8171 13.7953C51.6375 10.9125 50.3156 7.3125 50.2875 3.375Z" fill="#F00044"/>
<path d="M67.5 20.6019C66.389 20.6019 65.3203 20.4894 64.2656 20.2925V28.4065C60.4406 28.4065 56.7281 27.6612 53.2406 26.1706C50.9906 25.2144 48.8953 23.9909 46.9687 22.5144L47.025 47.5315C46.9968 53.1565 44.775 58.43 40.7531 62.4097C37.4765 65.644 33.3281 67.7112 28.8281 68.3722C27.7734 68.5269 26.6906 68.6112 25.6078 68.6112C20.7984 68.6112 16.214 67.0503 12.4875 64.1675C12.9093 64.6737 13.3593 65.1659 13.8515 65.644C17.9015 69.6378 23.2734 71.8456 28.9968 71.8456C30.0796 71.8456 31.1625 71.7612 32.2171 71.6065C36.7171 70.9456 40.8656 68.8784 44.1421 65.644C48.164 61.6644 50.3859 56.3909 50.414 50.7659L50.2031 25.7487C52.1156 27.2253 54.2109 28.4628 56.475 29.405C59.9765 30.8815 63.689 31.6409 67.5 31.6409" fill="#F00044"/>
<path d="M13.8094 35.7331C17.8172 31.7534 23.1469 29.5456 28.8281 29.5034V26.5081C27.7734 26.3534 26.6906 26.269 25.6078 26.269C19.8703 26.269 14.4844 28.4769 10.4344 32.4987C6.45466 36.4503 4.17654 41.8503 4.1906 47.4612C4.1906 53.1144 6.42654 58.4159 10.4625 62.4237C11.1094 63.0565 11.7703 63.6472 12.4734 64.1815C9.29529 60.3987 7.5656 55.6737 7.55154 50.6956C7.5656 45.0847 9.82966 39.6847 13.8094 35.7331Z" fill="#08FFF9"/>
<path d="M64.2656 20.2923V17.2829H64.2375C60.3281 17.2829 56.7281 15.9892 53.8312 13.7954C56.3484 17.1142 60.0328 19.4767 64.2656 20.2923Z" fill="#08FFF9"/>
<path d="M28.4062 60.7781C29.7422 60.8484 31.0218 60.6656 32.2031 60.2859C36.2812 58.95 39.2203 55.1531 39.2203 50.6812L39.2343 33.9469V3.375H47.2781C47.0672 2.32031 46.9546 1.25156 46.9406 0.140625H35.8593V30.6984L35.8453 47.4328C35.8453 51.9047 32.9062 55.7016 28.8281 57.0375C27.6468 57.4313 26.3672 57.6141 25.0312 57.5297C23.3297 57.4313 21.7406 56.925 20.3625 56.1094C22.0922 58.7812 25.0453 60.5953 28.4062 60.7781Z" fill="#08FFF9"/>
<path d="M28.8281 68.3719C33.3281 67.7109 37.4765 65.6437 40.7531 62.4094C44.775 58.4297 46.9969 53.1562 47.025 47.5312L46.9687 22.5141C48.8812 23.9906 50.9765 25.2281 53.2406 26.1703C56.7422 27.6469 60.4547 28.4062 64.2656 28.4062V20.2922C60.0328 19.4766 56.3484 17.1141 53.8312 13.7953C50.5125 11.2922 48.1219 7.60781 47.2922 3.375H39.2344V33.9328L39.2203 50.6672C39.2203 55.1391 36.2812 58.9359 32.2031 60.2719C31.0219 60.6656 29.7422 60.8484 28.4062 60.7641C25.0312 60.5812 22.0922 58.7672 20.3625 56.1094C17.4234 54.3656 15.4265 51.2016 15.3703 47.5734C15.2859 41.9203 19.8984 37.3078 25.6078 37.3078C26.7328 37.3078 27.8156 37.4906 28.8281 37.8141V29.4891C23.1469 29.5312 17.8172 31.7391 13.8094 35.7187C9.82966 39.6703 7.55154 45.0703 7.5656 50.6672C7.5656 55.6453 9.29529 60.3703 12.4875 64.1531C16.2281 67.0359 20.7984 68.5969 25.6078 68.5969C26.6906 68.6109 27.7734 68.5266 28.8281 68.3719Z" fill="black"/>
</svg>
