<svg width="32" height="32" viewBox="0 0 32 32" fill="none" xmlns="http://www.w3.org/2000/svg">
<g clip-path="url(#clip0_1_708)">
<circle cx="16" cy="16" r="16" fill="#4BB87D"/>
<path fill-rule="evenodd" clip-rule="evenodd" d="M21.1698 19.3017C20.803 18.8397 20.2072 18.1703 19.6973 18.1068C19.387 18.0683 19.0304 18.3254 18.679 18.568C18.6104 18.6023 18.0807 18.9177 18.0164 18.9366C17.677 19.0334 16.9527 19.0617 16.5147 18.6623C16.093 18.2766 15.4261 17.5626 14.8878 16.9086C14.3735 16.2348 13.8344 15.4248 13.5584 14.9277C13.2704 14.4126 13.4778 13.7311 13.6561 13.4311C13.6887 13.3771 14.083 12.9717 14.1712 12.8774L14.1841 12.8928C14.5107 12.6186 14.8527 12.34 14.8912 12.0383C14.9547 11.536 14.4412 10.8048 14.0744 10.342C13.7075 9.87827 13.1392 9.06656 12.3652 9.18141C12.0738 9.22427 11.8227 9.32627 11.575 9.47284L11.5681 9.46513C11.5542 9.47547 11.5405 9.48604 11.527 9.49684L11.5055 9.50798L11.5081 9.51141C11.3658 9.62113 10.9595 9.92456 10.9132 9.9657C10.411 10.4123 9.65496 11.464 10.2395 13.3557C10.6732 14.7614 11.5981 16.4123 12.8581 18.082L12.8512 18.088C12.913 18.1686 12.9764 18.2414 13.0407 18.3194C13.1007 18.3991 13.1598 18.478 13.2215 18.5568L13.2301 18.5508C14.5672 20.1614 15.9695 21.4488 17.2492 22.2083C18.9721 23.23 20.197 22.7697 20.7627 22.4037C20.8158 22.3686 21.2204 22.054 21.3575 21.9503L21.361 21.9537C21.3661 21.9486 21.3695 21.9417 21.3764 21.9366C21.3888 21.9272 21.401 21.9178 21.4132 21.9083L21.4081 21.9014C21.6155 21.7008 21.7818 21.4866 21.8967 21.2166C22.1975 20.506 21.5367 19.7654 21.1698 19.3017Z" fill="white"/>
</g>
<defs>
<clipPath id="clip0_1_708">
<rect width="32" height="32" fill="white"/>
</clipPath>
</defs>
</svg>
